<svg width="32" height="32" version="1.1" xmlns="http://www.w3.org/2000/svg" xmlns:xlink="http://www.w3.org/1999/xlink">
 <defs>
  <style id="current-color-scheme" type="text/css">.ColorScheme-Text {
        color:#31363b;
      }
      .ColorScheme-Background{
        color:#eff0f1;
      }
      .ColorScheme-ViewText {
        color:#31363b;
      }
      .ColorScheme-ViewBackground{
        color:#fcfcfc;
      }
      .ColorScheme-ViewHover {
        color:#3daee9;
      }
      .ColorScheme-ViewFocus{
        color:#3daee9;
      }
      .ColorScheme-ButtonText {
        color:#31363b;
      }
      .ColorScheme-ButtonBackground{
        color:#eff0f1;
      }
      .ColorScheme-ButtonHover {
        color:#3daee9;
      }
      .ColorScheme-ButtonFocus{
        color:#3daee9;
      }</style>
  <filter id="a" x="-.036" y="-.036" width="1.072" height="1.072" color-interpolation-filters="sRGB">
   <feGaussianBlur stdDeviation="0.435"/>
  </filter>
 </defs>
 <g transform="translate(-6.1297 -1009.8)">
  <g transform="matrix(3.1818 0 0 3.1818 -1217.5 -701.24)">
   <g id="system-log-out" transform="matrix(.31429 0 0 .31429 353.77 568.54)">
    <rect x="98" y="-98" width="32" height="32" rx="0" ry="0" opacity="0" stroke-width="2" style="paint-order:fill markers stroke"/>
    <g transform="translate(98,-98)">
     <path d="m16 1.5c-8 0-14.5 6.5-14.5 14.5s6.5 14.5 14.5 14.5 14.5-6.5 14.5-14.5-6.5-14.5-14.5-14.5z" color="#000000" filter="url(#a)" opacity=".15" overflow="visible"/>
     <path d="m16 2c-7.7241 0-14 6.2759-14 14 0 7.7241 6.2759 14 14 14 7.7241 0 14-6.2759 14-14 0-7.7241-6.2759-14-14-14z" color="#000000" fill="#f88230" overflow="visible"/>
     <path d="m16 1.5c-8 0-14.5 6.5-14.5 14.5s6.5 14.5 14.5 14.5 14.5-6.5 14.5-14.5-6.5-14.5-14.5-14.5z" color="#000000" fill="none" opacity=".35" overflow="visible"/>
     <path d="m17 9 8 7.027-8 6.973v-5h-9v-3.928h9z" fill="#fff" overflow="visible"/>
    </g>
   </g>
  </g>
 </g>
</svg>
