<svg width="32" height="32" version="1.1" xmlns="http://www.w3.org/2000/svg">
 <defs>
  <style id="current-color-scheme" type="text/css">.ColorScheme-Text {
        color:#31363b;
      }
      .ColorScheme-Background{
        color:#eff0f1;
      }
      .ColorScheme-ViewText {
        color:#31363b;
      }
      .ColorScheme-ViewBackground{
        color:#fcfcfc;
      }
      .ColorScheme-ViewHover {
        color:#3daee9;
      }
      .ColorScheme-ViewFocus{
        color:#3daee9;
      }
      .ColorScheme-ButtonText {
        color:#31363b;
      }
      .ColorScheme-ButtonBackground{
        color:#eff0f1;
      }
      .ColorScheme-ButtonHover {
        color:#3daee9;
      }
      .ColorScheme-ButtonFocus{
        color:#3daee9;
      }</style>
  <filter id="a" x="-.036" y="-.036" width="1.072" height="1.072" color-interpolation-filters="sRGB">
   <feGaussianBlur stdDeviation="0.43506"/>
  </filter>
 </defs>
 <g transform="translate(-6.1297 -1009.8)">
  <g id="system-shutdown" transform="translate(-13.87 1107.8)">
   <rect x="20" y="-98" width="32" height="32" rx="0" ry="0" opacity="0" stroke-width="2" style="paint-order:fill markers stroke"/>
   <g transform="translate(20,-98)">
    <path d="m16 1.498c-8.002 0-14.502 6.5-14.502 14.502s6.5 14.502 14.502 14.502 14.502-6.5 14.502-14.502-6.5-14.502-14.502-14.502z" color="#000000" fill-opacity=".992" filter="url(#a)" opacity=".15" overflow="visible"/>
    <path d="m16 2c-7.725 0-14 6.275-14 14 0 7.725 6.275 14 14 14 7.725 0 14-6.275 14-14 0-7.725-6.275-14-14-14z" color="#000000" fill="#d93c3f" fill-opacity=".992" overflow="visible"/>
    <path d="m16 1.5c-8 0-14.5 6.5-14.5 14.5s6.5 14.5 14.5 14.5 14.5-6.5 14.5-14.5-6.5-14.5-14.5-14.5z" color="#000000" fill="none" opacity=".5" overflow="visible"/>
    <path d="m11.877 8.776c-0.204 0-0.394 0.08-0.566 0.162l-0.405 0.243c-1.984 1.309-3.382 3.331-3.8 5.7 0 2e-3 -0.04-3e-3 -0.04 0-0.011 0.065 0.01 0.136 0 0.202-0.06 0.4-0.121 0.795-0.121 1.213 0 4.822 4.054 8.732 9.055 8.732s9.055-3.91 9.055-8.732c0-0.371-0.033-0.733-0.08-1.092-0.015-0.111-0.062-0.213-0.081-0.323-0.418-2.369-1.816-4.391-3.8-5.7l-0.405-0.243c-0.172-0.081-0.362-0.162-0.566-0.162-0.736 0-1.334 0.598-1.334 1.335 0 0.419 0.223 0.806 0.526 1.05 0.096 0.078 0.208 0.154 0.323 0.203a6.32 6.32 0 0 1 2.588 3.517c7e-3 0.027 0.033 0.053 0.04 0.08 0.135 0.495 0.202 1 0.202 1.537 0 3.445-2.896 6.226-6.468 6.226s-6.468-2.781-6.468-6.226c0-0.536 0.068-1.042 0.202-1.536 8e-3 -0.03 0.032-0.053 0.04-0.081a6.32 6.32 0 0 1 2.588-3.517c0.115-0.05 0.227-0.125 0.323-0.202 0.303-0.245 0.526-0.632 0.526-1.051 0-0.737-0.598-1.335-1.334-1.335zm4.123-3.153a1.29 1.29 0 0 1 1.294 1.294v7.762a1.29 1.29 0 0 1-1.294 1.293 1.29 1.29 0 0 1-1.294-1.293v-7.762a1.29 1.29 0 0 1 1.294-1.294z" color="#000000" fill="#fff" overflow="visible"/>
   </g>
  </g>
 </g>
</svg>
