<?xml version="1.0" encoding="UTF-8" standalone="no"?>
<svg
   xmlns:dc="http://purl.org/dc/elements/1.1/"
   xmlns:cc="http://creativecommons.org/ns#"
   xmlns:rdf="http://www.w3.org/1999/02/22-rdf-syntax-ns#"
   xmlns:svg="http://www.w3.org/2000/svg"
   xmlns="http://www.w3.org/2000/svg"
   xmlns:xlink="http://www.w3.org/1999/xlink"
   xmlns:sodipodi="http://sodipodi.sourceforge.net/DTD/sodipodi-0.dtd"
   xmlns:inkscape="http://www.inkscape.org/namespaces/inkscape"
   width="300"
   height="300"
   version="1.1"
   viewBox="0 0 300 300"
   id="svg83"
   sodipodi:docname="decoration.svg"
   inkscape:version="0.92.4 5da689c313, 2019-01-14">
  <metadata
     id="metadata87">
    <rdf:RDF>
      <cc:Work
         rdf:about="">
        <dc:format>image/svg+xml</dc:format>
        <dc:type
           rdf:resource="http://purl.org/dc/dcmitype/StillImage" />
        <dc:title />
      </cc:Work>
    </rdf:RDF>
  </metadata>
  <sodipodi:namedview
     pagecolor="#9f9f9f"
     bordercolor="#666666"
     borderopacity="1"
     objecttolerance="10"
     gridtolerance="10"
     guidetolerance="10"
     inkscape:pageopacity="0"
     inkscape:pageshadow="2"
     inkscape:window-width="1366"
     inkscape:window-height="713"
     id="namedview85"
     showgrid="true"
     inkscape:snap-intersection-paths="true"
     inkscape:snap-smooth-nodes="true"
     inkscape:zoom="3.1466666"
     inkscape:cx="71.675427"
     inkscape:cy="92.283871"
     inkscape:window-x="0"
     inkscape:window-y="27"
     inkscape:window-maximized="1"
     inkscape:current-layer="svg83"
     inkscape:snap-bbox="true"
     inkscape:bbox-nodes="true"
     inkscape:bbox-paths="true"
     inkscape:snap-bbox-edge-midpoints="true">
    <inkscape:grid
       type="xygrid"
       id="grid894" />
  </sodipodi:namedview>
  <defs
     id="defs28">
    <linearGradient
       id="linearGradient948">
      <stop
         style="stop-color:#000000;stop-opacity:0.65"
         offset="0"
         id="stop944" />
      <stop
         style="stop-color:#000000;stop-opacity:0"
         offset="1"
         id="stop946" />
    </linearGradient>
    <radialGradient
       id="radialGradient4275"
       cx="984"
       cy="905.362"
       r="8.5"
       fx="984"
       fy="905.362"
       gradientTransform="matrix(-1.6187099e-5,-1.4117565,1.4117775,-1.618734e-5,-1261.1539,1406.183)"
       gradientUnits="userSpaceOnUse"
       xlink:href="#linearGradient4215-49" />
    <linearGradient
       id="linearGradient4215-49">
      <stop
         id="stop4217-5"
         offset="0"
         style="stop-color:#000000;stop-opacity:0.184" />
      <stop
         id="stop4223-8"
         offset="1"
         style="stop-color:#000000;stop-opacity:0" />
    </linearGradient>
    <radialGradient
       id="radialGradient4255"
       cx="982.909"
       cy="906.453"
       r="8.5"
       fx="982.909"
       fy="906.453"
       gradientTransform="matrix(1.4117577,5.5406049e-6,-5.5406032e-6,1.4117573,-1320.6245,-1262.6973)"
       gradientUnits="userSpaceOnUse"
       xlink:href="#linearGradient4215-49" />
    <linearGradient
       id="linearGradient4283"
       x1="83.599998"
       x2="83.599998"
       y1="-969.362"
       y2="-957.362"
       gradientTransform="matrix(0.71428571,0,0,1,-317.71429,1250.3622)"
       gradientUnits="userSpaceOnUse"
       xlink:href="#linearGradient4215-49" />
    <radialGradient
       id="radialGradient3382"
       cx="984"
       cy="905.362"
       r="8.5"
       fx="984"
       fy="905.362"
       gradientTransform="matrix(7.8257357e-6,1.411771,-1.4117668,7.8257123e-6,1345.1525,-1322.1898)"
       gradientUnits="userSpaceOnUse"
       xlink:href="#linearGradient4215-49" />
    <linearGradient
       id="linearGradient4452"
       x1="-260"
       x2="-260"
       y1="281"
       y2="293"
       gradientUnits="userSpaceOnUse"
       xlink:href="#linearGradient4215-49" />
    <radialGradient
       id="radialGradient4263"
       cx="984"
       cy="905.362"
       r="8.5"
       fx="984"
       fy="905.362"
       gradientTransform="matrix(-1.411767,-9.899721e-6,9.8996845e-6,-1.4117618,1406.1698,1345.1655)"
       gradientUnits="userSpaceOnUse"
       xlink:href="#linearGradient4215-49" />
    <linearGradient
       inkscape:collect="always"
       xlink:href="#linearGradient4215-49"
       id="linearGradient1036"
       gradientUnits="userSpaceOnUse"
       gradientTransform="matrix(0.71428571,0,0,1,-317.71429,1250.3622)"
       x1="83.599998"
       y1="-969.362"
       x2="83.599998"
       y2="-957.362" />
    <linearGradient
       inkscape:collect="always"
       xlink:href="#linearGradient4215-49"
       id="linearGradient1038"
       gradientUnits="userSpaceOnUse"
       gradientTransform="matrix(0.71428571,0,0,1,-317.71429,1250.3622)"
       x1="83.599998"
       y1="-969.362"
       x2="83.599998"
       y2="-957.362" />
    <radialGradient
       id="radialGradient4275-3"
       cx="984"
       cy="905.362"
       r="8.5"
       fx="984"
       fy="905.362"
       gradientTransform="matrix(-1.6187099e-5,-1.4117565,1.4117775,-1.618734e-5,-1261.1539,1406.183)"
       gradientUnits="userSpaceOnUse"
       xlink:href="#linearGradient948" />
    <radialGradient
       id="radialGradient4255-5"
       cx="982.909"
       cy="906.453"
       r="8.5"
       fx="982.909"
       fy="906.453"
       gradientTransform="matrix(1.4117577,5.5406049e-6,-5.5406032e-6,1.4117573,-1320.6245,-1262.6973)"
       gradientUnits="userSpaceOnUse"
       xlink:href="#linearGradient948" />
    <radialGradient
       id="radialGradient3382-3"
       cx="984"
       cy="905.362"
       r="8.5"
       fx="984"
       fy="905.362"
       gradientTransform="matrix(7.8257357e-6,1.411771,-1.4117668,7.8257123e-6,1345.1525,-1322.1898)"
       gradientUnits="userSpaceOnUse"
       xlink:href="#linearGradient948" />
    <radialGradient
       id="radialGradient4263-5"
       cx="984"
       cy="905.362"
       r="8.5"
       fx="984"
       fy="905.362"
       gradientTransform="matrix(-1.411767,-9.899721e-6,9.8996845e-6,-1.4117618,1406.1698,1345.1655)"
       gradientUnits="userSpaceOnUse"
       xlink:href="#linearGradient948" />
    <linearGradient
       inkscape:collect="always"
       xlink:href="#linearGradient948"
       id="linearGradient1951"
       gradientUnits="userSpaceOnUse"
       gradientTransform="matrix(0.71428571,0,0,1,-317.71429,1250.3622)"
       x1="83.599998"
       y1="-969.362"
       x2="83.599998"
       y2="-957.362" />
    <linearGradient
       inkscape:collect="always"
       xlink:href="#linearGradient948"
       id="linearGradient1953"
       gradientUnits="userSpaceOnUse"
       x1="-260"
       y1="281"
       x2="-260"
       y2="293" />
    <linearGradient
       inkscape:collect="always"
       xlink:href="#linearGradient948"
       id="linearGradient1955"
       gradientUnits="userSpaceOnUse"
       gradientTransform="matrix(0.71428571,0,0,1,-317.71429,1250.3622)"
       x1="83.599998"
       y1="-969.362"
       x2="83.599998"
       y2="-957.362" />
    <linearGradient
       inkscape:collect="always"
       xlink:href="#linearGradient948"
       id="linearGradient1957"
       gradientUnits="userSpaceOnUse"
       gradientTransform="matrix(0.71428571,0,0,1,-317.71429,1250.3622)"
       x1="83.599998"
       y1="-969.362"
       x2="83.599998"
       y2="-957.362" />
  </defs>
  <rect
     style="opacity:1;fill:#272a2a;fill-opacity:1;stroke:none"
     id="decoration-inactive-center"
     width="50"
     height="50"
     x="137.33333"
     y="170" />
  <g
     id="decoration-inactive-bottomleft"
     transform="translate(120.33333,153)">
    <path
       inkscape:connector-curvature="0"
       id="shadow-bottomleft"
       d="M 17,84 V 74 h -2 c -2.77,0 -5,-2.23 -5,-5 V 67 H 0 v 17 z"
       style="opacity:1;fill:url(#radialGradient4263);fill-opacity:1;stroke:none" />
    <path
       inkscape:connector-curvature="0"
       style="color:#383c4a;opacity:0.9;fill:#343938;fill-opacity:1;stroke:none;stroke-width:1.16666663"
       id="path87"
       d="m 10,67 v 2.333333 C 10,71.938846 12.061153,74 14.666667,74 H 17 v -7 z" />
  </g>
  <g
     id="decoration-inactive-left"
     transform="translate(120.33333,153)">
    <g
       id="shadow-left-3"
       transform="matrix(-1,0,0,1,298,-240)">
      <rect
         id="rect31"
         width="50"
         height="10"
         x="-307"
         y="288"
         transform="rotate(-90)"
         style="opacity:1;fill:url(#linearGradient1036);fill-opacity:1;stroke:none" />
      <rect
         id="rect33"
         width="7"
         height="1"
         x="278"
         y="257"
         transform="translate(3,2)"
         style="fill:#3498db;fill-opacity:0" />
    </g>
    <path
       inkscape:connector-curvature="0"
       style="color:#383c4a;opacity:1;fill:#272a2a;fill-opacity:1;stroke:none;stroke-width:1.08012342"
       id="path71"
       d="m 10,17 v 50 h 7 V 17 Z" />
  </g>
  <g
     id="decoration-inactive-right"
     transform="translate(120.33333,153)">
    <g
       id="shadow-right"
       transform="translate(-214,-240)">
      <rect
         id="rect45"
         width="50"
         height="10"
         x="-307"
         y="288"
         transform="rotate(-90)"
         style="opacity:1;fill:url(#linearGradient4452);fill-opacity:1;stroke:none" />
      <rect
         id="rect47"
         width="7"
         height="1"
         x="278"
         y="257"
         transform="translate(3,2)"
         style="fill:#3498db;fill-opacity:0" />
    </g>
    <path
       inkscape:connector-curvature="0"
       style="color:#383c4a;opacity:1;fill:#272a2a;fill-opacity:1;stroke:none;stroke-width:1.08012342"
       id="path79"
       d="m 67,17 v 50 h 7 V 17 Z" />
  </g>
  <g
     id="decoration-inactive-bottom"
     transform="translate(120.33333,153)">
    <g
       id="shadow-bottom"
       transform="rotate(90,269,55)">
      <rect
         id="rect39"
         width="50"
         height="10"
         x="-307"
         y="288"
         transform="rotate(-90)"
         style="opacity:1;fill:url(#linearGradient1038);fill-opacity:1;stroke:none" />
      <rect
         id="rect41"
         width="7"
         height="1"
         x="278"
         y="257"
         transform="translate(3,2)"
         style="fill:#3498db;fill-opacity:0" />
    </g>
    <path
       inkscape:connector-curvature="0"
       style="color:#383c4a;opacity:0.9;fill:#343938;fill-opacity:1;stroke:none;stroke-width:1.08012342"
       id="path95"
       d="m 17,67 v 7 h 50 v -7 z" />
  </g>
  <g
     id="decoration-inactive-bottomright"
     transform="translate(120.33333,153)">
    <path
       inkscape:connector-curvature="0"
       id="shadow-bottomright"
       d="M 84,67 H 74 v 2 c 0,2.77 -2.23,5 -5,5 h -2 v 10 h 17 z"
       style="opacity:1;fill:url(#radialGradient3382);fill-opacity:1;stroke:none" />
    <path
       inkscape:connector-curvature="0"
       style="color:#383c4a;opacity:0.9;fill:#343938;fill-opacity:1;stroke:none;stroke-width:1.16666663"
       id="path103"
       d="m 67,67 v 7 h 2.333333 C 71.938846,74 74,71.938846 74,69.333333 V 67 Z" />
  </g>
  <g
     id="decoration-inactive-top"
     transform="translate(120.33333,153)">
    <g
       id="shadow-top-6"
       transform="matrix(0,-1,-1,0,324,298)">
      <rect
         id="rect51"
         width="50"
         height="10"
         x="-307"
         y="288"
         transform="rotate(-90)"
         style="opacity:1;fill:url(#linearGradient4283);fill-opacity:1;stroke:none" />
      <rect
         id="rect53"
         width="7"
         height="1"
         x="278"
         y="257"
         transform="translate(3,2)"
         style="fill:#3498db;fill-opacity:0" />
    </g>
    <path
       inkscape:connector-curvature="0"
       style="color:#383c4a;opacity:1;fill:#272a2a;fill-opacity:1;stroke:none;stroke-width:1.08012342"
       id="path111"
       d="m 17,10 v 7 h 50 v -7 z" />
    <path
       d="m 17,10 v 1 h 50 v -1 z"
       id="path955"
       style="color:#383c4a;opacity:0.1;fill:#ffffff;fill-opacity:1;stroke:none;stroke-width:1.08012342"
       inkscape:connector-curvature="0" />
  </g>
  <g
     id="decoration-inactive-topright"
     transform="translate(120.33333,153)">
    <path
       inkscape:connector-curvature="0"
       id="shadow-topright"
       d="m 67,0 v 10 h 2 c 2.77,0 5,2.23 5,5 v 2 H 84 V 0 Z"
       style="opacity:1;fill:url(#radialGradient4255);fill-opacity:1;stroke:none" />
    <path
       inkscape:connector-curvature="0"
       style="color:#383c4a;opacity:1;fill:#272a2a;fill-opacity:1;stroke:none;stroke-width:1.16666663"
       id="path119"
       d="m 67,10 v 7 h 7 V 14.666667 C 74,12.061154 71.938846,10 69.333333,10 Z" />
    <path
       style="color:#383c4a;opacity:0.1;fill:#ffffff;fill-opacity:1;stroke:none;stroke-width:1.16666663"
       d="M 187.33398 163 L 187.33398 164 L 189.66602 164 C 192.27153 164 194.33398 165.7667 194.33398 168 L 194.33398 167.66602 C 194.33398 165.0605 192.27153 163 189.66602 163 L 187.33398 163 z "
       transform="translate(-120.33333,-153)"
       id="path950" />
  </g>
  <g
     id="decoration-inactive-topleft"
     transform="translate(120.33333,153)">
    <path
       inkscape:connector-curvature="0"
       id="shadow-topleft"
       d="m 0,17 h 10 v -2 c 0,-2.77 2.23,-5 5,-5 h 2 V 0 H 0 Z"
       style="opacity:1;fill:url(#radialGradient4275);fill-opacity:1;stroke:none" />
    <path
       inkscape:connector-curvature="0"
       style="color:#383c4a;opacity:1;fill:#272a2a;fill-opacity:1;stroke:none;stroke-width:1.16666663"
       id="path63"
       d="M 14.666667,10 C 12.061153,10 10,12.061154 10,14.666667 V 17 h 7 v -7 z" />
    <path
       style="color:#383c4a;opacity:0.1;fill:#ffffff;fill-opacity:1;stroke:none;stroke-width:1.16666663"
       d="M 135 163 C 132.39449 163 130.33398 165.0605 130.33398 167.66602 L 130.33398 168 C 130.33398 165.7667 132.39449 164 135 164 L 137.33398 164 L 137.33398 163 L 135 163 z "
       transform="translate(-120.33333,-153)"
       id="path957" />
  </g>
  <rect
     style="opacity:1;fill:#272a2a;fill-opacity:1;stroke:none;stroke-width:0.99999994"
     id="decoration-center"
     width="50"
     height="50"
     x="35"
     y="170" />
  <g
     id="decoration-bottomleft"
     transform="translate(17.999991,152.99998)">
    <path
       inkscape:connector-curvature="0"
       id="shadow-bottomleft-6"
       d="M 17,84 V 74 h -2 c -2.77,0 -5,-2.23 -5,-5 V 67 H 0 v 17 z"
       style="opacity:1;fill:url(#radialGradient4263-5);fill-opacity:1.0;stroke:none" />
    <path
       inkscape:connector-curvature="0"
       style="color:#383c4a;opacity:0.9;fill:#343938;fill-opacity:1;stroke:none;stroke-width:1.16666663"
       id="path87-2"
       d="m 10,67 v 2.333333 C 10,71.938846 12.061153,74 14.666667,74 H 17 v -7 z" />
  </g>
  <g
     id="decoration-left"
     transform="translate(17.999991,152.99998)">
    <g
       id="shadow-left-3-9"
       transform="matrix(-1,0,0,1,298,-240)">
      <rect
         id="rect31-1"
         width="50"
         height="10"
         x="-307"
         y="288"
         transform="rotate(-90)"
         style="opacity:1;fill:url(#linearGradient1951);fill-opacity:1.0;stroke:none" />
      <rect
         id="rect33-2"
         width="7"
         height="1"
         x="278"
         y="257"
         transform="translate(3,2)"
         style="fill:#3498db;fill-opacity:0" />
    </g>
    <path
       inkscape:connector-curvature="0"
       style="color:#383c4a;opacity:1;fill:#272a2a;fill-opacity:1;stroke:none;stroke-width:1.08012342"
       id="path71-7"
       d="m 10,17 v 50 h 7 V 17 Z" />
  </g>
  <g
     id="decoration-right"
     transform="translate(17.999991,152.99998)">
    <g
       id="shadow-right-0"
       transform="translate(-214,-240)">
      <rect
         id="rect45-9"
         width="50"
         height="10"
         x="-307"
         y="288"
         transform="rotate(-90)"
         style="opacity:1;fill:url(#linearGradient1953);fill-opacity:1.0;stroke:none" />
      <rect
         id="rect47-3"
         width="7"
         height="1"
         x="278"
         y="257"
         transform="translate(3,2)"
         style="fill:#3498db;fill-opacity:0" />
    </g>
    <path
       inkscape:connector-curvature="0"
       style="color:#383c4a;opacity:1;fill:#272a2a;fill-opacity:1;stroke:none;stroke-width:1.08012342"
       id="path79-6"
       d="m 67,17 v 50 h 7 V 17 Z" />
  </g>
  <g
     id="decoration-bottom"
     transform="translate(17.999991,152.99998)">
    <g
       id="shadow-bottom-0"
       transform="rotate(90,269,55)">
      <rect
         id="rect39-6"
         width="50"
         height="10"
         x="-307"
         y="288"
         transform="rotate(-90)"
         style="opacity:1;fill:url(#linearGradient1955);fill-opacity:1;stroke:none" />
      <rect
         id="rect41-2"
         width="7"
         height="1"
         x="278"
         y="257"
         transform="translate(3,2)"
         style="fill:#3498db;fill-opacity:0" />
    </g>
    <path
       inkscape:connector-curvature="0"
       style="color:#383c4a;opacity:0.9;fill:#343938;fill-opacity:1;stroke:none;stroke-width:1.08012342"
       id="path95-6"
       d="m 17,67 v 7 h 50 v -7 z" />
  </g>
  <g
     id="decoration-bottomright"
     transform="translate(17.999991,152.99998)">
    <path
       inkscape:connector-curvature="0"
       id="shadow-bottomright-1"
       d="M 84,67 H 74 v 2 c 0,2.77 -2.23,5 -5,5 h -2 v 10 h 17 z"
       style="opacity:1;fill:url(#radialGradient3382-3);fill-opacity:1.0;stroke:none" />
    <path
       inkscape:connector-curvature="0"
       style="color:#383c4a;opacity:0.9;fill:#343938;fill-opacity:1;stroke:none;stroke-width:1.16666663"
       id="path103-8"
       d="m 67,67 v 7 h 2.333333 C 71.938846,74 74,71.938846 74,69.333333 V 67 Z" />
  </g>
  <g
     id="decoration-top"
     transform="translate(17.999991,152.99998)">
    <g
       id="shadow-top-6-7"
       transform="matrix(0,-1,-1,0,324,298)">
      <rect
         id="rect51-9"
         width="50"
         height="10"
         x="-307"
         y="288"
         transform="rotate(-90)"
         style="opacity:1;fill:url(#linearGradient1957);fill-opacity:1.0;stroke:none" />
      <rect
         id="rect53-2"
         width="7"
         height="1"
         x="278"
         y="257"
         transform="translate(3,2)"
         style="fill:#3498db;fill-opacity:0" />
    </g>
    <path
       inkscape:connector-curvature="0"
       style="color:#383c4a;opacity:1;fill:#272a2a;fill-opacity:1;stroke:none;stroke-width:1.08012342"
       id="path111-0"
       d="m 17,10 v 7 h 50 v -7 z" />
    <path
       d="m 17,10 v 1.00002 H 67 V 10 Z"
       id="path943"
       style="color:#383c4a;opacity:0.1;fill:#ffffff;fill-opacity:1;stroke:none;stroke-width:1.08012342"
       inkscape:connector-curvature="0" />
  </g>
  <g
     id="decoration-topright"
     transform="translate(17.999991,152.99998)">
    <path
       inkscape:connector-curvature="0"
       id="shadow-topright-2"
       d="m 67,0 v 10 h 2 c 2.77,0 5,2.23 5,5 v 2 H 84 V 0 Z"
       style="opacity:1;fill:url(#radialGradient4255-5);fill-opacity:1.0;stroke:none" />
    <path
       inkscape:connector-curvature="0"
       style="color:#383c4a;opacity:1;fill:#272a2a;fill-opacity:1;stroke:none;stroke-width:1.16666663"
       id="path119-3"
       d="m 67,10 v 7 h 7 V 14.666667 C 74,12.061154 71.938846,10 69.333333,10 Z" />
    <path
       style="color:#383c4a;opacity:0.1;fill:#ffffff;fill-opacity:1;stroke:none;stroke-width:1.16666663"
       d="M 85 163 L 85 164 L 87.333984 164 C 89.939497 164 92 165.76671 92 168 L 92 167.66602 C 92 165.0605 89.939497 163 87.333984 163 L 85 163 z "
       transform="translate(-17.999991,-152.99998)"
       id="path938" />
  </g>
  <g
     id="decoration-topleft"
     transform="translate(17.999991,152.99998)">
    <path
       inkscape:connector-curvature="0"
       id="shadow-topleft-7"
       d="m 0,17 h 10 v -2 c 0,-2.77 2.23,-5 5,-5 h 2 V 0 H 0 Z"
       style="opacity:1;fill:url(#radialGradient4275-3);fill-opacity:1.0;stroke:none" />
    <path
       inkscape:connector-curvature="0"
       style="color:#383c4a;opacity:1;fill:#272a2a;fill-opacity:1;stroke:none;stroke-width:1.16666663"
       id="path63-5"
       d="M 14.666667,10 C 12.061153,10 10,12.061154 10,14.666667 V 17 h 7 v -7 z" />
    <path
       style="color:#383c4a;opacity:0.1;fill:#ffffff;fill-opacity:1;stroke:none;stroke-width:1.16666663"
       d="M 32.666016 163 C 30.060502 163 28 165.0605 28 167.66602 L 28 168 C 28 165.76671 30.060502 164 32.666016 164 L 35 164 L 35 163 L 32.666016 163 z "
       transform="translate(-17.999991,-152.99998)"
       id="path945" />
  </g>
</svg>
