<?xml version="1.0" encoding="UTF-8" standalone="no"?>
<svg
   xmlns:dc="http://purl.org/dc/elements/1.1/"
   xmlns:cc="http://creativecommons.org/ns#"
   xmlns:rdf="http://www.w3.org/1999/02/22-rdf-syntax-ns#"
   xmlns:svg="http://www.w3.org/2000/svg"
   xmlns="http://www.w3.org/2000/svg"
   xmlns:sodipodi="http://sodipodi.sourceforge.net/DTD/sodipodi-0.dtd"
   xmlns:inkscape="http://www.inkscape.org/namespaces/inkscape"
   width="22"
   height="22"
   version="1"
   viewBox="0 0 22 22"
   id="svg331"
   sodipodi:docname="battery.svg"
   inkscape:version="0.92.4 (5da689c313, 2019-01-14)">
  <metadata
     id="metadata335">
    <rdf:RDF>
      <cc:Work
         rdf:about="">
        <dc:format>image/svg+xml</dc:format>
        <dc:type
           rdf:resource="http://purl.org/dc/dcmitype/StillImage" />
      </cc:Work>
    </rdf:RDF>
  </metadata>
  <sodipodi:namedview
     pagecolor="#ffffff"
     bordercolor="#666666"
     borderopacity="1"
     objecttolerance="10"
     gridtolerance="10"
     guidetolerance="10"
     inkscape:pageopacity="0"
     inkscape:pageshadow="2"
     inkscape:window-width="1366"
     inkscape:window-height="708"
     id="namedview333"
     showgrid="false"
     inkscape:zoom="1.3409091"
     inkscape:cx="118.43885"
     inkscape:cy="-60.483717"
     inkscape:window-x="0"
     inkscape:window-y="28"
     inkscape:window-maximized="1"
     inkscape:current-layer="svg331" />
  <defs
     id="defs3">
    <style
       id="current-color-scheme"
       type="text/css">.ColorScheme-Text { color:#565656; } .ColorScheme-Highlight { color:#5294e2; } .ColorScheme-ButtonBackground { color:#5c616c; }</style>
  </defs>
  <g
     transform="translate(0,30)"
     id="g13">
    <rect
       width="22"
       height="22"
       opacity="0"
       stroke-width="2"
       style="paint-order:fill markers stroke"
       id="rect5" />
    <g
       transform="translate(-262 394)"
       enable-background="new"
       id="g11">
      <rect
         transform="rotate(90)"
         x="-391"
         y="-281"
         width="16"
         height="16"
         color="#dddddd"
         fill="none"
         id="rect7" />
      <path
         transform="translate(241 -473)"
         d="m30 83v1h-3v1 11c0 0.554 0.446 1 1 1h8c0.554 0 1-0.446 1-1v-11-1h-3v-1z"
         fill="#565656"
         id="path9"
         style="fill:#565656;fill-opacity:1" />
    </g>
  </g>
  <g
     id="22-22-Battery">
    <rect
       width="22"
       height="22"
       opacity="0"
       stroke-width="2"
       style="paint-order:fill markers stroke"
       id="rect15" />
    <g
       transform="translate(-262 394)"
       enable-background="new"
       id="g21">
      <rect
         transform="rotate(90)"
         x="-391"
         y="-281"
         width="16"
         height="16"
         color="#dddddd"
         fill="none"
         id="rect17" />
      <path
         transform="translate(241 -473)"
         d="m30 83v1h-3v1 11c0 0.554 0.446 1 1 1h8c0.554 0 1-0.446 1-1v-11-1h-3v-1z"
         fill="#565656"
         opacity=".5"
         id="path19" />
    </g>
  </g>
  <g
     id="22-22-battery-ups"
     transform="translate(25,30)">
    <rect
       x="35"
       width="22"
       height="22"
       opacity="0"
       stroke-width="2"
       style="paint-order:fill markers stroke"
       id="rect24" />
    <g
       transform="translate(-227 394)"
       enable-background="new"
       id="g30">
      <rect
         transform="rotate(90)"
         x="-391"
         y="-281"
         width="16"
         height="16"
         color="#dddddd"
         fill="none"
         id="rect26" />
      <path
         transform="translate(121 -473)"
         d="m150 83v1h-3v1 11c0 0.554 0.446 1 1 1h8c0.554 0 1-0.446 1-1v-11-1h-3v-1zm2 4v3h3l-3 5v-3h-3z"
         fill="#4caf50"
         id="path28" />
    </g>
  </g>
  <g
     transform="translate(-36,-2)"
     id="g41">
    <rect
       x="281"
       y="2"
       width="22"
       height="22"
       opacity="0"
       stroke-width="2"
       style="paint-order:fill markers stroke"
       id="rect33" />
    <g
       transform="matrix(-1 0 0 1 565 396)"
       enable-background="new"
       id="g39">
      <rect
         transform="rotate(90)"
         x="-391"
         y="-281"
         width="16"
         height="16"
         color="#dddddd"
         fill="none"
         id="rect35" />
      <path
         class="error"
         transform="translate(221 -473)"
         d="m47 93 3e-5 3c6e-6 0.554 0.446 1 1 1h8c0.554 0 1-0.446 1-1v-2z"
         fill="#565656"
         id="path37" />
    </g>
  </g>
  <g
     transform="translate(-35,-2)"
     id="g51">
    <rect
       x="218"
       y="2"
       width="22"
       height="22"
       opacity="0"
       stroke-width="2"
       style="paint-order:fill markers stroke"
       id="rect43" />
    <g
       transform="matrix(-1 0 0 1 502 396)"
       enable-background="new"
       id="g49">
      <rect
         transform="rotate(90)"
         x="-391"
         y="-281"
         width="16"
         height="16"
         color="#dddddd"
         fill="none"
         id="rect45" />
      <path
         transform="translate(221 -473)"
         d="m47 91 3e-5 5c3e-6 0.554 0.446 1 1 1h8c0.554 0 1-0.446 1-1v-4z"
         fill="#565656"
         id="path47" />
    </g>
  </g>
  <g
     transform="translate(-38)"
     id="g61">
    <rect
       x="128"
       width="22"
       height="22"
       opacity="0"
       stroke-width="2"
       style="paint-order:fill markers stroke"
       id="rect53" />
    <g
       transform="translate(-134 394)"
       enable-background="new"
       id="g59">
      <rect
         transform="rotate(90)"
         x="-391"
         y="-281"
         width="16"
         height="16"
         color="#dddddd"
         fill="none"
         id="rect55" />
      <path
         transform="translate(221 -473)"
         d="m47 88v8c0 0.554 0.446 1 1 1h8c0.554 0 1-0.446 1-1v-8z"
         fill="#565656"
         id="path57" />
    </g>
  </g>
  <g
     transform="translate(-39)"
     id="g71">
    <rect
       x="160"
       width="22"
       height="22"
       opacity="0"
       stroke-width="2"
       style="paint-order:fill markers stroke"
       id="rect63" />
    <g
       transform="translate(-102 394)"
       enable-background="new"
       id="g69">
      <rect
         transform="rotate(90)"
         x="-391"
         y="-281"
         width="16"
         height="16"
         color="#dddddd"
         fill="none"
         id="rect65" />
      <path
         transform="translate(221 -473)"
         d="m47 90v6c0 0.554 0.446 1 1 1h8c0.554 0 1-0.446 1-1v-7z"
         fill="#565656"
         id="path67" />
    </g>
  </g>
  <g
     transform="translate(-37)"
     id="g81">
    <rect
       x="65"
       width="22"
       height="22"
       opacity="0"
       stroke-width="2"
       style="paint-order:fill markers stroke"
       id="rect73" />
    <g
       transform="translate(-197 394)"
       enable-background="new"
       id="g79">
      <rect
         transform="rotate(90)"
         x="-391"
         y="-281"
         width="16"
         height="16"
         color="#dddddd"
         fill="none"
         id="rect75" />
      <path
         transform="translate(241 -473)"
         d="m30 83v1h-3v1 11c0 0.554 0.446 1 1 1h8c0.554 0 1-0.446 1-1v-11-1h-3v-1z"
         fill="#565656"
         id="path77" />
    </g>
  </g>
  <g
     transform="translate(-41)"
     id="g91">
    <rect
       x="100"
       width="22"
       height="22"
       opacity="0"
       stroke-width="2"
       style="paint-order:fill markers stroke"
       id="rect83" />
    <g
       transform="translate(-162 394)"
       enable-background="new"
       id="g89">
      <rect
         transform="rotate(90)"
         x="-391"
         y="-281"
         width="16"
         height="16"
         color="#dddddd"
         fill="none"
         id="rect85" />
      <path
         transform="translate(221 -473)"
         d="m47 88v8c0 0.554 0.446 1 1 1h8c0.554 0 1-0.446 1-1v-9z"
         fill="#565656"
         id="path87" />
    </g>
  </g>
  <g
     transform="translate(-36,-2)"
     id="g101">
    <rect
       x="188"
       y="2"
       width="22"
       height="22"
       opacity="0"
       stroke-width="2"
       style="paint-order:fill markers stroke"
       id="rect93" />
    <g
       transform="translate(-74 396)"
       enable-background="new"
       id="g99">
      <rect
         transform="rotate(90)"
         x="-391"
         y="-281"
         width="16"
         height="16"
         color="#dddddd"
         fill="none"
         id="rect95" />
      <path
         transform="translate(221 -473)"
         d="m47 90v6c0 0.554 0.446 1 1 1h8c0.554 0 1-0.446 1-1v-6z"
         fill="#565656"
         id="path97" />
    </g>
  </g>
  <g
     transform="translate(-39,-2)"
     id="g111">
    <rect
       x="253"
       y="2"
       width="22"
       height="22"
       opacity="0"
       stroke-width="2"
       style="paint-order:fill markers stroke"
       id="rect103" />
    <g
       transform="matrix(-1 0 0 1 537 396)"
       enable-background="new"
       id="g109">
      <rect
         transform="rotate(90)"
         x="-391"
         y="-281"
         width="16"
         height="16"
         color="#dddddd"
         fill="none"
         id="rect105" />
      <path
         transform="translate(221 -473)"
         d="m47 92v4c0 0.554 0.446 1 1 1h8c0.554 0 1-0.446 1-1v-4z"
         fill="#565656"
         id="path107" />
    </g>
  </g>
  <g
     transform="translate(-36,-2)"
     id="g121">
    <rect
       x="313"
       y="2"
       width="22"
       height="22"
       opacity="0"
       stroke-width="2"
       style="paint-order:fill markers stroke"
       id="rect113" />
    <g
       transform="matrix(-1 0 0 1 597 396)"
       enable-background="new"
       id="g119">
      <rect
         transform="rotate(90)"
         x="-391"
         y="-281"
         width="16"
         height="16"
         color="#dddddd"
         fill="none"
         id="rect115" />
      <path
         class="error"
         transform="translate(221 -473)"
         d="m47 94v2c0 0.554 0.446 1 1 1h8c0.554 0 1-0.446 1-1v-2z"
         fill="#f44336"
         id="path117" />
    </g>
  </g>
  <g
     transform="translate(-35 -2)"
     id="g131">
    <rect
       x="343"
       y="2"
       width="22"
       height="22"
       opacity="0"
       stroke-width="2"
       style="paint-order:fill markers stroke"
       id="rect123" />
    <g
       transform="matrix(-1 0 0 1 627 396)"
       enable-background="new"
       id="g129">
      <rect
         transform="rotate(90)"
         x="-391"
         y="-281"
         width="16"
         height="16"
         color="#dddddd"
         fill="none"
         id="rect125" />
      <path
         class="error"
         transform="translate(221 -473)"
         d="m47 94v2c0 0.554 0.446 1 1 1h8c0.554 0 1-0.446 1-1l-3e-5 -1z"
         fill="#f44336"
         id="path127" />
    </g>
  </g>
  <g
     transform="translate(-36 -2)"
     id="g141">
    <rect
       x="375"
       y="2"
       width="22"
       height="22"
       opacity="0"
       stroke-width="2"
       style="paint-order:fill markers stroke"
       id="rect133" />
    <g
       transform="translate(113 396)"
       enable-background="new"
       id="g139">
      <rect
         transform="rotate(90)"
         x="-391"
         y="-281"
         width="16"
         height="16"
         color="#dddddd"
         fill="none"
         id="rect135" />
      <path
         transform="translate(-77 -394)"
         d="m348 4v1h-3v12c0 0.554 0.446 1 1 1h8c0.554 0 1-0.446 1-1v-12h-3v-1z"
         fill="#f44336"
         opacity=".5"
         id="path137" />
    </g>
  </g>
  <g
     id="22-22-AcAdapter"
     transform="rotate(-90 -68.984 357.52)"
     stroke-linecap="square"
     stroke-width=".1">
    <path
       d="m236.54 426.5h22v22h-22z"
       id="path143"
       fill="none" />
    <path
       transform="translate(214.54 404.5)"
       d="m34 30a3 3 0 0 0-2.826 2h-1.174v2h1.176a3 3 0 0 0 2.824 2v-1h2v-1h-2v-2h2v-1h-2z"
       id="path145"
       style="fill:#ffffff"
       fill="#4caf50" />
  </g>
  <g
     transform="translate(30,30)"
     id="g156">
    <rect
       width="22"
       height="22"
       opacity="0"
       stroke-width="2"
       style="paint-order:fill markers stroke"
       id="rect148" />
    <g
       transform="translate(-262 394)"
       enable-background="new"
       id="g154">
      <rect
         transform="rotate(90)"
         x="-391"
         y="-281"
         width="16"
         height="16"
         color="#dddddd"
         fill="none"
         id="rect150" />
      <path
         transform="translate(241 -473)"
         d="m30 83v1h-3v1 11c0 0.554 0.446 1 1 1h8c0.554 0 1-0.446 1-1v-11-1h-3v-1z"
         fill="#565656"
         id="path152" />
    </g>
  </g>
  <g
     id="22-22-Unavailable"
     transform="translate(-228.54 -396.5)">
    <path
       d="m258.54 426.5h22v22h-22z"
       fill="none"
       id="path158" />
    <g
       id="g164">
      <rect
         x="270.54"
         y="438.5"
         width="8"
         height="8"
         rx="4"
         ry="4"
         fill="#f44336"
         id="rect160" />
      <path
         class="ColorScheme-Background"
         d="m276.66 441.09-0.70699-0.707-1.4143 1.4143-1.4143-1.4143-0.70699 0.707 1.4143 1.4143-1.4143 1.4141 0.70699 0.707 1.4143-1.4141 1.4142 1.4142 0.707-0.70699-1.4142-1.4142z"
         color="#eff0f1"
         fill="currentColor"
         id="path162" />
    </g>
  </g>
  <g
     stroke-width=".6875"
     id="g305">
    <g
       transform="matrix(1.4545 0 0 1.4545 37.273 70)"
       id="g175">
      <rect
         width="22"
         height="22"
         opacity="0"
         stroke-width="1.375"
         style="paint-order:fill markers stroke"
         id="rect167" />
      <g
         transform="translate(-262 394)"
         enable-background="new"
         stroke-width=".6875"
         id="g173">
        <rect
           transform="rotate(90)"
           x="-391"
           y="-281"
           width="16"
           height="16"
           color="#dddddd"
           fill="none"
           id="rect169" />
        <path
           d="m270.94-389.88v1.375h-2.75v11.393c0 0.5441 0.42928 0.98214 0.9625 0.98214h7.7c0.53322 0 0.9625-0.43804 0.9625-0.98214v-11.393h-2.75v-1.375z"
           fill="#565656"
           id="path171" />
      </g>
    </g>
    <g
       id="battery-ups"
       transform="matrix(1.4545 0 0 1.4545 57 117)">
      <rect
         x="35"
         width="22"
         height="22"
         opacity="0"
         stroke-width="1.375"
         style="paint-order:fill markers stroke"
         id="rect177" />
      <g
         transform="translate(-227 394)"
         enable-background="new"
         stroke-width=".6875"
         id="g183">
        <rect
           transform="rotate(90)"
           x="-391"
           y="-281"
           width="16"
           height="16"
           color="#dddddd"
           fill="none"
           id="rect179" />
        <path
           d="m270.94-389.88v1.375h-2.75v11.393c0 0.5441 0.42928 0.98214 0.9625 0.98214h7.7c0.53322 0 0.9625-0.43804 0.9625-0.98214v-11.393h-2.75v-1.375zm2.0625 4.125v2.75h2.75l-2.75 4.8125v-2.75h-2.75z"
           fill="#4caf50"
           id="path181" />
      </g>
    </g>
    <g
       transform="matrix(1.4545 0 0 1.4545 -72.455 70)"
       id="g194">
      <rect
         x="100"
         width="22"
         height="22"
         opacity="0"
         stroke-width="1.375"
         style="paint-order:fill markers stroke"
         id="rect186" />
      <g
         transform="translate(-162 394)"
         enable-background="new"
         stroke-width=".6875"
         id="g192">
        <rect
           transform="rotate(90)"
           x="-391"
           y="-281"
           width="16"
           height="16"
           color="#dddddd"
           fill="none"
           id="rect188" />
        <path
           d="m268.19-385.01v7.9c0 0.54708 0.42928 0.9875 0.9625 0.9875h7.7c0.53322 0 0.9625-0.44042 0.9625-0.9875v-9.325z"
           fill="#565656"
           id="path190" />
      </g>
    </g>
    <g
       transform="matrix(1.4545 0 0 1.4545 -37.455 70)"
       id="g204">
      <rect
         x="100"
         width="22"
         height="22"
         opacity="0"
         stroke-width="1.375"
         style="paint-order:fill markers stroke"
         id="rect196" />
      <g
         transform="translate(-162 394)"
         enable-background="new"
         stroke-width=".6875"
         id="g202">
        <rect
           transform="rotate(90)"
           x="-391"
           y="-281"
           width="16"
           height="16"
           color="#dddddd"
           fill="none"
           id="rect198" />
        <path
           d="m268.19-385.06v7.95c0 0.54708 0.42928 0.9875 0.9625 0.9875h7.7c0.53322 0 0.9625-0.44042 0.9625-0.9875v-7.95z"
           fill="#565656"
           id="path200" />
      </g>
    </g>
    <g
       transform="matrix(1.4545 0 0 1.4545 -2.4545 70)"
       id="g214">
      <rect
         x="100"
         width="22"
         height="22"
         opacity="0"
         stroke-width="1.375"
         style="paint-order:fill markers stroke"
         id="rect206" />
      <g
         transform="translate(-162 394)"
         enable-background="new"
         stroke-width=".6875"
         id="g212">
        <rect
           transform="rotate(90)"
           x="-391"
           y="-281"
           width="16"
           height="16"
           color="#dddddd"
           fill="none"
           id="rect208" />
        <path
           d="m268.19-383v5.8875c0 0.54708 0.42928 0.9875 0.9625 0.9875h7.7c0.53322 0 0.9625-0.44042 0.9625-0.9875v-7.2625z"
           fill="#565656"
           id="path210" />
      </g>
    </g>
    <g
       transform="matrix(1.4545 0 0 1.4545 32.545 70)"
       id="g224">
      <rect
         x="100"
         width="22"
         height="22"
         opacity="0"
         stroke-width="1.375"
         style="paint-order:fill markers stroke"
         id="rect216" />
      <g
         transform="translate(-162 394)"
         enable-background="new"
         stroke-width=".6875"
         id="g222">
        <rect
           transform="rotate(90)"
           x="-391"
           y="-281"
           width="16"
           height="16"
           color="#dddddd"
           fill="none"
           id="rect218" />
        <path
           d="m268.19-383v5.8875c0 0.54708 0.42928 0.9875 0.9625 0.9875h7.7c0.53322 0 0.9625-0.44042 0.9625-0.9875v-5.8875z"
           fill="#565656"
           id="path220" />
      </g>
    </g>
    <g
       transform="matrix(1.4545 0 0 1.4545 67.545 70)"
       id="g234">
      <rect
         x="100"
         width="22"
         height="22"
         opacity="0"
         stroke-width="1.375"
         style="paint-order:fill markers stroke"
         id="rect226" />
      <g
         transform="translate(-162 394)"
         enable-background="new"
         stroke-width=".6875"
         id="g232">
        <rect
           transform="rotate(90)"
           x="-391"
           y="-281"
           width="16"
           height="16"
           color="#dddddd"
           fill="none"
           id="rect228" />
        <path
           d="m268.19-381.62v4.5125c0 0.54708 0.42928 0.9875 0.9625 0.9875h7.7c0.53322 0 0.9625-0.44042 0.9625-0.9875v-5.8875z"
           fill="#565656"
           id="path230" />
      </g>
    </g>
    <g
       transform="matrix(1.4545 0 0 1.4545 103.55 70)"
       id="g244">
      <rect
         x="100"
         width="22"
         height="22"
         opacity="0"
         stroke-width="1.375"
         style="paint-order:fill markers stroke"
         id="rect236" />
      <g
         transform="translate(-162 394)"
         enable-background="new"
         stroke-width=".6875"
         id="g242">
        <rect
           transform="rotate(90)"
           x="-391"
           y="-281"
           width="16"
           height="16"
           color="#dddddd"
           fill="none"
           id="rect238" />
        <path
           d="m268.19-381.62v4.5125c0 0.54708 0.42928 0.9875 0.9625 0.9875h7.7c0.53322 0 0.9625-0.44042 0.9625-0.9875v-4.5125z"
           fill="#565656"
           id="path240" />
      </g>
    </g>
    <g
       transform="matrix(1.4545 0 0 1.4545 138.55 70)"
       id="g254">
      <rect
         x="100"
         width="22"
         height="22"
         opacity="0"
         stroke-width="1.375"
         style="paint-order:fill markers stroke"
         id="rect246" />
      <g
         transform="translate(-162 394)"
         enable-background="new"
         stroke-width=".6875"
         id="g252">
        <rect
           transform="rotate(90)"
           x="-391"
           y="-281"
           width="16"
           height="16"
           color="#dddddd"
           fill="none"
           id="rect248" />
        <path
           d="m268.19-378.87v1.7625c0 0.54708 0.42928 0.9875 0.9625 0.9875h7.7c0.53322 0 0.9625-0.44042 0.9625-0.9875v-3.1375z"
           fill="#565656"
           id="path250" />
      </g>
    </g>
    <g
       transform="matrix(1.4545 0 0 1.4545 173.55 70)"
       id="g264">
      <rect
         x="100"
         width="22"
         height="22"
         opacity="0"
         stroke-width="1.375"
         style="paint-order:fill markers stroke"
         id="rect256" />
      <g
         transform="translate(-162 394)"
         enable-background="new"
         stroke-width=".6875"
         id="g262">
        <rect
           transform="rotate(90)"
           x="-391"
           y="-281"
           width="16"
           height="16"
           color="#dddddd"
           fill="none"
           id="rect258" />
        <path
           d="m268.19-378.87v1.7625c0 0.54708 0.42928 0.9875 0.9625 0.9875h7.7c0.53322 0 0.9625-0.44042 0.9625-0.9875v-1.7625z"
           fill="#f44336"
           id="path260" />
      </g>
    </g>
    <g
       transform="matrix(1.4545 0 0 1.4545 391 70)"
       id="g274">
      <rect
         width="22"
         height="22"
         opacity="0"
         stroke-width="1.375"
         style="paint-order:fill markers stroke"
         id="rect266" />
      <g
         transform="translate(-262 394)"
         enable-background="new"
         stroke-width=".6875"
         id="g272">
        <rect
           transform="rotate(90)"
           x="-391"
           y="-281"
           width="16"
           height="16"
           color="#dddddd"
           fill="none"
           id="rect268" />
        <path
           transform="matrix(.6875 0 0 .6875 -6.8123 -442.12)"
           d="m404 76v2h-4v16.572c0 0.79142 0.6248 1.4277 1.4004 1.4277h11.199c0.77559 0 1.4004-0.63632 1.4004-1.4277v-16.572h-4v-2z"
           fill="#f44336"
           opacity=".5"
           id="path270" />
      </g>
    </g>
    <g
       transform="matrix(1.4545 0 0 1.4545 209.55 70)"
       id="g284">
      <rect
         x="100"
         width="22"
         height="22"
         opacity="0"
         stroke-width="1.375"
         style="paint-order:fill markers stroke"
         id="rect276" />
      <g
         transform="translate(-162 394)"
         enable-background="new"
         stroke-width=".6875"
         id="g282">
        <rect
           transform="rotate(90)"
           x="-391"
           y="-281"
           width="16"
           height="16"
           color="#dddddd"
           fill="none"
           id="rect278" />
        <path
           d="m268.19-377.5v0.3875c0 0.54708 0.42928 0.9875 0.9625 0.9875h7.7c0.53322 0 0.9625-0.44042 0.9625-0.9875v-1.7625z"
           fill="#f44336"
           id="path280" />
      </g>
    </g>
    <g
       id="Battery"
       transform="matrix(1.4545 0 0 1.4545 1.9091 70)">
      <rect
         width="22"
         height="22"
         opacity="0"
         stroke-width="1.375"
         style="paint-order:fill markers stroke"
         id="rect286" />
      <g
         transform="translate(-262 394)"
         enable-background="new"
         stroke-width=".6875"
         id="g292">
        <rect
           transform="rotate(90)"
           x="-391"
           y="-281"
           width="16"
           height="16"
           color="#dddddd"
           fill="none"
           id="rect288" />
        <path
           d="m270.94-389.88v1.375h-2.75v11.393c0 0.5441 0.42928 0.98214 0.9625 0.98214h7.7c0.53322 0 0.9625-0.43804 0.9625-0.98214v-11.393h-2.75v-1.375z"
           fill="#565656"
           opacity=".5"
           id="path290" />
      </g>
    </g>
    <g
       transform="matrix(1.4545 0 0 1.4545 11.909 115)"
       id="g303">
      <rect
         width="22"
         height="22"
         opacity="0"
         stroke-width="1.375"
         style="paint-order:fill markers stroke"
         id="rect295" />
      <g
         transform="translate(-262 394)"
         enable-background="new"
         stroke-width=".6875"
         id="g301">
        <rect
           transform="rotate(90)"
           x="-391"
           y="-281"
           width="16"
           height="16"
           color="#dddddd"
           fill="none"
           id="rect297" />
        <path
           d="m270.94-389.88v1.375h-2.75v11.393c0 0.5441 0.42928 0.98214 0.9625 0.98214h7.7c0.53322 0 0.9625-0.43804 0.9625-0.98214v-11.393h-2.75v-1.375z"
           fill="#565656"
           id="path299" />
      </g>
    </g>
  </g>
  <g
     id="AcAdapter"
     transform="rotate(-90 -59.53 357.07)">
    <path
       d="m150.54 428.5h32v32h-32z"
       fill="none"
       id="path307" />
    <path
       transform="translate(214.54 404.5)"
       d="m-48 37a3 3 0 0 0-2.826 2h-1.174v2h1.176a3 3 0 0 0 2.824 2v-1h2v-1h-2v-2h2v-1h-2z"
       fill="#4caf50"
       id="path309"
       style="fill:#ffffff" />
  </g>
  <g
     transform="matrix(1.4545 0 0 1.4545 57.202 116)"
     id="g320">
    <rect
       width="22"
       height="22"
       opacity="0"
       stroke-width="1.375"
       style="paint-order:fill markers stroke"
       id="rect312" />
    <g
       transform="translate(-262 394)"
       enable-background="new"
       stroke-width=".6875"
       id="g318">
      <rect
         transform="rotate(90)"
         x="-391"
         y="-281"
         width="16"
         height="16"
         color="#dddddd"
         fill="none"
         id="rect314" />
      <path
         d="m270.94-389.88v1.375h-2.75v11.393c0 0.5441 0.42928 0.98214 0.9625 0.98214h7.7c0.53322 0 0.9625-0.43804 0.9625-0.98214v-11.393h-2.75v-1.375z"
         fill="#565656"
         id="path316" />
    </g>
  </g>
  <g
     id="Unavailable"
     transform="translate(-61.334 -312.5)">
    <path
       d="m118.54 428.5h32v32h-32z"
       fill="none"
       id="path322" />
    <g
       id="g328">
      <rect
         x="136.24"
         y="445.5"
         width="10"
         height="10"
         rx="5"
         ry="5"
         fill="#f44336"
         id="rect324" />
      <path
         class="ColorScheme-Background"
         d="m144.07 448.38-0.70699-0.707-2.1213 2.1213-2.1213-2.1213-0.70711 0.70711 2.1214 2.1212-2.1214 2.1214 0.70711 0.70711 2.1213-2.1216 2.1213 2.1216 0.70711-0.70711-2.1214-2.1214z"
         color="#eff0f1"
         fill="#fff"
         id="path326" />
    </g>
  </g>
</svg>
