<svg id="svg" version="1.1" viewBox="0 0 22 22" xmlns="http://www.w3.org/2000/svg">
 <defs>
  <style id="current-color-scheme" type="text/css">.ColorScheme-Text { color:#565656; } .ColorScheme-Highlight { color:#5294e2; } .ColorScheme-ButtonBackground { color:#565656; }</style>
 </defs>
 <rect class="ColorScheme-Text" width="22" height="22" opacity="0"/>
 <g id="16-16-device-notifier">
  <rect class="ColorScheme-Text" y="26" width="16" height="16" fill-opacity="0"/>
  <path class="ColorScheme-Text" d="m4.8438 27.007c-0.28125 0.04688-0.84375 0.24988-0.84375 0.9995v8.9955s0 0.9995 1 0.9995h6c1 0 1-0.9995 1-0.9995v-8.9955c0-0.9995-1-0.9995-1-0.9995h-6s-0.0625-0.01559-0.15625 0zm0.15625 11.994v1.999h6v-1.999z" enable-background="new" fill="currentColor" filter="url(#filter7554)"/>
 </g>
 <g id="22-22-device-notifier" transform="translate(28,4)">
  <rect class="ColorScheme-Text" x="-28" y="-4" width="22" height="22" fill-opacity="0"/>
  <path class="ColorScheme-Text" d="m-20.156-1.0006c-0.28125 0.05117-0.84375 0.27274-0.84375 1.091v9.8187s0 1.091 1 1.091h6c1 0 1-1.091 1-1.091v-9.8187c0-1.091-1-1.091-1-1.091h-6s-0.06251-0.017016-0.15625 0z" color="#565656" enable-background="new" fill="currentColor" filter="url(#filter7554)"/>
  <path class="ColorScheme-Text" d="m-20 12v2h6v-2z" color="#565656" enable-background="new" fill="currentColor" filter="url(#filter7554)"/>
 </g>
 <g id="device-notifier" transform="translate(40,4)">
  <rect class="ColorScheme-Text" x="-40" y="-38" width="32" height="32" fill-opacity="0"/>
  <path class="ColorScheme-Text" d="m-29.523-34.987c-0.49219 0.08522-1.4766 0.45426-1.4766 1.817v16.353s0 1.817 1.75 1.817h10.5c1.75 0 1.75-1.817 1.75-1.817v-16.353c0-1.817-1.75-1.817-1.75-1.817h-10.5s-0.10938-0.02834-0.27344 0z" enable-background="new" fill="currentColor" filter="url(#filter7554)"/>
  <path class="ColorScheme-Text" d="m-29-13v4h10v-4z" enable-background="new" fill="currentColor" filter="url(#filter7554)"/>
 </g>
</svg>
