<svg id="svg" version="1.1" viewBox="0 0 22 22" xmlns="http://www.w3.org/2000/svg">
 <defs>
  <style id="current-color-scheme" type="text/css">.ColorScheme-Text{color:#D3DAE3}</style>
 </defs>
 <g id="quassel" transform="translate(-1 -1)">
  <path d="M1 1h22v22H1z" fill="#fff" fill-opacity=".01"/>
  <path transform="translate(1,1)" d="m11 3c-4.4183 0-8 3.5817-8 8 0 4.4183 3.5817 8 8 8s8-3.5817 8-8c0-4.4183-3.5817-8-8-8zm2 8a3 3 0 0 1 3 3 3 3 0 0 1-3 3 3 3 0 0 1-3-3 3 3 0 0 1 3-3z" color="#d3dae3" fill="#565656"/>
 </g>
 <g id="quassel_message" transform="translate(28,-1)">
  <path d="m1 1h22v22h-22z" fill="#fff" fill-opacity=".01"/>
  <path transform="translate(1,1)" d="m11 3c-4.4183 0-8 3.5817-8 8 0 4.4183 3.5817 8 8 8s8-3.5817 8-8c0-4.4183-3.5817-8-8-8zm2 8a3 3 0 0 1 3 3 3 3 0 0 1-3 3 3 3 0 0 1-3-3 3 3 0 0 1 3-3z" color="#d3dae3" fill="#3daee6"/>
 </g>
 <g id="quassel_inactive" transform="translate(-29,-1)" opacity=".5">
  <path d="m1 1h22v22h-22z" fill="#fff" fill-opacity=".01"/>
  <path transform="translate(1,1)" d="m11 3c-4.4183 0-8 3.5817-8 8 0 4.4183 3.5817 8 8 8s8-3.5817 8-8c0-4.4183-3.5817-8-8-8zm2 8a3 3 0 0 1 3 3 3 3 0 0 1-3 3 3 3 0 0 1-3-3 3 3 0 0 1 3-3z" color="#d3dae3" fill="#565656"/>
 </g>
</svg>
