<svg width="32" height="32" version="1.1" viewBox="0 0 32 32" xmlns="http://www.w3.org/2000/svg">
 <defs>
  <style id="current-color-scheme" type="text/css">.ColorScheme-Text { color:#dedede; } .ColorScheme-Highlight { color:#5294e2; } .ColorScheme-ButtonBackground { color:#dedede; }</style>
  <filter id="a" x="-.036" y="-.036" width="1.072" height="1.072" color-interpolation-filters="sRGB">
   <feGaussianBlur stdDeviation="0.43506"/>
  </filter>
 </defs>
 <g id="applications-other">
  <rect x="-2.7563e-7" y="-1.2834e-9" width="32" height="32" rx="0" ry="0" opacity="0" stroke-width="2" style="paint-order:fill markers stroke"/>
  <path d="m16 1.498c-8.002 0-14.502 6.5-14.502 14.502s6.5 14.502 14.502 14.502 14.502-6.5 14.502-14.502-6.5-14.502-14.502-14.502z" color="#000000" fill-opacity=".992" filter="url(#a)" opacity=".15" overflow="visible"/>
  <path d="m16 2c-7.725 0-14 6.275-14 14 0 7.725 6.275 14 14 14 7.725 0 14-6.275 14-14 0-7.725-6.275-14-14-14z" color="#000000" fill="#4ca2f2" fill-opacity=".98824" overflow="visible"/>
  <path d="m16 1.5c-8 0-14.5 6.5-14.5 14.5s6.5 14.5 14.5 14.5 14.5-6.5 14.5-14.5-6.5-14.5-14.5-14.5z" color="#000000" fill="none" opacity=".5" overflow="visible"/>
  <path class="ColorScheme-Text" d="m13.982 8-0.17793 2.1071a6.3423 6.2857 0 0 0-1.8536 1.0625l-1.9324-0.90178-2.018 3.4643 1.7545 1.2076a6.3423 6.2857 0 0 0-0.09686 1.0603 6.3423 6.2857 0 0 0 0.09236 1.0647l-1.75 1.2031 2.018 3.4643 1.9279-0.89954a6.3423 6.2857 0 0 0 1.8581 1.0558l0.17793 2.1116h4.036l0.17793-2.1071a6.3423 6.2857 0 0 0 1.8536-1.0625l1.9324 0.90178 2.018-3.4643-1.7545-1.2076a6.3423 6.2857 0 0 0 0.09687-1.0603 6.3423 6.2857 0 0 0-0.09237-1.0647l1.75-1.2031-2.018-3.4643-1.9279 0.89954a6.3423 6.2857 0 0 0-1.8581-1.0558l-0.17793-2.1116zm2.018 5.7143a2.3063 2.2857 0 0 1 2.3063 2.2857 2.3063 2.2857 0 0 1-2.3063 2.2857 2.3063 2.2857 0 0 1-2.3063-2.2857 2.3063 2.2857 0 0 1 2.3063-2.2857z" color="#dedede" fill="#fff"/>
 </g>
</svg>
