<svg width="32" height="32" version="1.1" xmlns="http://www.w3.org/2000/svg">
 <defs>
  <style id="current-color-scheme" type="text/css">.ColorScheme-Text { color:#dedede; } .ColorScheme-Highlight { color:#5294e2; } .ColorScheme-ButtonBackground { color:#dedede; }</style>
  <filter id="a" x="-.036" y="-.036" width="1.072" height="1.072" color-interpolation-filters="sRGB">
   <feGaussianBlur stdDeviation="0.43506"/>
  </filter>
 </defs>
 <g id="bookmarks" transform="translate(38.723 .86801)">
  <rect x="-38.723" y="-.86801" width="32" height="32" rx="0" ry="0" opacity="0" stroke-width="2" style="paint-order:fill markers stroke"/>
  <path d="m-22.723 0.62998c-8.002 0-14.502 6.5-14.502 14.502s6.5 14.502 14.502 14.502 14.502-6.5 14.502-14.502-6.5-14.502-14.502-14.502z" color="#000000" fill-opacity=".992" filter="url(#a)" opacity=".15" overflow="visible"/>
  <path d="m-22.723 1.132c-7.725 0-14 6.275-14 14 0 7.725 6.275 14 14 14 7.725 0 14-6.275 14-14 0-7.725-6.275-14-14-14z" color="#000000" fill="#e55a5d" fill-opacity=".992" overflow="visible"/>
  <path d="m-22.723 0.63198c-8 0-14.5 6.5-14.5 14.5s6.5 14.5 14.5 14.5 14.5-6.5 14.5-14.5-6.5-14.5-14.5-14.5z" color="#000000" fill="none" opacity=".5" overflow="visible"/>
  <path d="m-27.015 8.132c-2.7758 0-5.0417 2.2334-5.0417 5 0 1.4396 0.60765 2.753 1.5833 3.6667l7.75 7.3333 7.75-7.3333c0.97581-0.91356 1.5833-2.227 1.5833-3.6667 0-2.7666-2.2659-5-5.0417-5-1.8284 0-3.4124 0.96155-4.2917 2.4167-0.87923-1.4551-2.4632-2.4167-4.2917-2.4167z" fill="#fff"/>
 </g>
</svg>
