<svg width="22" height="22" version="1.1" xmlns="http://www.w3.org/2000/svg">
 <defs>
  <style id="current-color-scheme" type="text/css">.ColorScheme-Text { color:#dedede; } .ColorScheme-Highlight { color:#5294e2; } .ColorScheme-ButtonBackground { color:#dedede; }</style>
  <filter id="a" x="-.036" y="-.036" width="1.072" height="1.072" color-interpolation-filters="sRGB">
   <feGaussianBlur stdDeviation="0.435"/>
  </filter>
 </defs>
 <g id="16-16-computer" transform="matrix(-1 0 0 1 399 331)" enable-background="new" filter="url(#filter7554)">
  <rect x="381" y="-303" width="16" height="16" color="#bebebe" enable-background="accumulate" fill="none"/>
  <rect x="381" y="-303" width="16" height="16" color="#bebebe" enable-background="accumulate" opacity="0" stroke-width="3"/>
  <path transform="translate(281 -699)" d="m101 397c-1 0-1 1-1 1v10s0 1 1 1h14s1 0 1-1v-10s0-1-1-1zm0.99959 2h12l4.1e-4 8-12-0.024zm3.0004 11 2e-4 0.99664h6l-2e-4 -0.99664c0-1-1-1-1-1h-4.0218s-0.97823 0-0.97823 1z" fill="#eaeaea"/>
 </g>
 <g id="22-22-computer" transform="translate(13 -46)">
  <rect transform="scale(-1,1)" x="-9" y="46" width="22" height="22" color="#bebebe" opacity="0" stroke-width="2"/>
  <path d="m6.75 48c1.25 0 1.25 1.286 1.25 1.286v12.428s0 1.286-1.25 1.286h-17.5s-1.25 0-1.25-1.286v-12.428s0-1.286 1.25-1.286zm-0.75 2h-16v11h16zm-4 14.422-2.475e-4 1.5783h-8l2.612e-4 -1.5783c0-1.286 1.25-1.4217 1.25-1.4217h5.5272s1.2228 0.13565 1.2228 1.4217z" fill="#eaeaea"/>
 </g>
 <g transform="translate(-41.5,-48)">
  <rect transform="scale(-1,1)" x="-115" y="8.9934" width="32" height="32" color="#bebebe" opacity="0" stroke-width="2"/>
  <rect transform="scale(-1,1)" x="-115" y="8.9934" width="32" height="32" color="#bebebe" opacity="0" stroke-width="3"/>
 </g>
 <g id="16-16-computer-laptop" transform="matrix(-1 0 0 1 450 331)" enable-background="new" filter="url(#filter7554)">
  <rect x="381" y="-303" width="16" height="16" color="#bebebe" enable-background="accumulate" fill="none"/>
  <rect x="381" y="-303" width="16" height="16" color="#bebebe" enable-background="accumulate" opacity="0" stroke-width="3"/>
  <path transform="translate(281 -699)" d="m101 397c-1 0-1 1-1 1v10s0 1 1 1h14s1 0 1-1v-10s0-1-1-1zm0.99959 2h12l4.1e-4 8-12-0.024zm-1.9996 11h16c0-1-1-1-1-1h-14.022s-0.97823 0-0.97823 1z" fill="#eaeaea"/>
 </g>
 <g id="22-22-computer-laptop" transform="translate(64 -46)">
  <rect transform="scale(-1,1)" x="-9" y="46" width="22" height="22" color="#bebebe" opacity="0" stroke-width="2"/>
  <path d="m6.75 48c1.25 0 1.25 1.286 1.25 1.286v12.428s0 1.286-1.25 1.286h-17.5s-1.25 0-1.25-1.286v-12.428s0-1.286 1.25-1.286zm-0.75 2h-16v11h16zm3 14-2.475e-4 1h-22l2.61e-4 -1c0-1.286 1.25-0.99999 1.25-0.99999h19.527s1.2228-0.28603 1.2228 0.99999z" fill="#eaeaea"/>
 </g>
 <g id="computer" transform="translate(1.5 .5)">
  <rect x="-4.5" y="-37.5" width="32" height="32" rx="0" ry="0" opacity="0" stroke-width="2" style="paint-order:fill markers stroke"/>
  <path d="m11.5-36c-8 0-14.5 6.5-14.5 14.5s6.5 14.5 14.5 14.5 14.5-6.5 14.5-14.5-6.5-14.5-14.5-14.5z" color="#000000" filter="url(#a)" opacity=".15" overflow="visible"/>
  <path d="m11.5-35.5c-7.7241 0-14 6.2759-14 14s6.2759 14 14 14 14-6.2759 14-14-6.2759-14-14-14z" color="#000000" fill="#77cb75" overflow="visible"/>
  <path d="m11.5-36c-8 0-14.5 6.5-14.5 14.5s6.5 14.5 14.5 14.5 14.5-6.5 14.5-14.5-6.5-14.5-14.5-14.5z" color="#000000" fill="none" opacity=".5" overflow="visible" solid-color="#000000" style="isolation:auto;mix-blend-mode:normal"/>
  <path d="m18.5-28.5c1 0 1 1 1 1v11s0 1-1 1h-14s-1 2.4e-4 -1-1v-11s0-1 1-1zm-1 2h-12v9h12zm-2.9996 12-4.1e-4 2.0002h-6v-2h5z" fill="#fff"/>
 </g>
 <g id="computer-laptop" transform="translate(-41.5 -.5)">
  <rect x="86.5" y="-37.5" width="32" height="32" rx="0" ry="0" opacity="0" stroke-width="2" style="paint-order:fill markers stroke"/>
  <path d="m102.5-36c-8 0-14.5 6.5-14.5 14.5s6.5 14.5 14.5 14.5 14.5-6.5 14.5-14.5-6.5-14.5-14.5-14.5z" color="#000000" filter="url(#a)" opacity=".15" overflow="visible"/>
  <path d="m102.5-35.5c-7.7241 0-14 6.2759-14 14s6.2759 14 14 14 14-6.2759 14-14-6.2759-14-14-14z" color="#000000" fill="#77cb75" overflow="visible"/>
  <path d="m102.5-36c-8 0-14.5 6.5-14.5 14.5s6.5 14.5 14.5 14.5 14.5-6.5 14.5-14.5-6.5-14.5-14.5-14.5z" color="#000000" fill="none" opacity=".5" overflow="visible" solid-color="#000000" style="isolation:auto;mix-blend-mode:normal"/>
  <path d="m110.5-28.5c1 0 1 1 1 1v11.024s0 1-1 1h-16s-1 0-1-1v-11.024s0-1 1-1zm-0.99959 2h-14l-4.1e-4 9.024 14-0.024zm1.9996 12.024h-18c0-1 1-1 1-1h16.021s0.97823 0 0.97823 1z" fill="#fff"/>
 </g>
</svg>
