<?xml version="1.0" encoding="UTF-8" standalone="no"?>
<svg
   xmlns:osb="http://www.openswatchbook.org/uri/2009/osb"
   xmlns:dc="http://purl.org/dc/elements/1.1/"
   xmlns:cc="http://creativecommons.org/ns#"
   xmlns:rdf="http://www.w3.org/1999/02/22-rdf-syntax-ns#"
   xmlns:svg="http://www.w3.org/2000/svg"
   xmlns="http://www.w3.org/2000/svg"
   xmlns:sodipodi="http://sodipodi.sourceforge.net/DTD/sodipodi-0.dtd"
   xmlns:inkscape="http://www.inkscape.org/namespaces/inkscape"
   id="svg"
   width="100%"
   height="100%"
   version="1.1"
   viewBox="0 0 22 22"
   sodipodi:docname="device.svg"
   inkscape:version="0.92.4 (5da689c313, 2019-01-14)">
  <metadata
     id="metadata28">
    <rdf:RDF>
      <cc:Work
         rdf:about="">
        <dc:format>image/svg+xml</dc:format>
        <dc:type
           rdf:resource="http://purl.org/dc/dcmitype/StillImage" />
      </cc:Work>
    </rdf:RDF>
  </metadata>
  <sodipodi:namedview
     pagecolor="#ffffff"
     bordercolor="#666666"
     borderopacity="1"
     objecttolerance="10"
     gridtolerance="10"
     guidetolerance="10"
     inkscape:pageopacity="0"
     inkscape:pageshadow="2"
     inkscape:window-width="1366"
     inkscape:window-height="707"
     id="namedview26"
     showgrid="true"
     inkscape:snap-bbox="true"
     inkscape:snap-bbox-edge-midpoints="true"
     inkscape:bbox-nodes="true"
     inkscape:zoom="5.2693537"
     inkscape:cx="40.439702"
     inkscape:cy="18.622384"
     inkscape:window-x="0"
     inkscape:window-y="0"
     inkscape:window-maximized="1"
     inkscape:current-layer="svg">
    <inkscape:grid
       type="xygrid"
       id="grid835" />
  </sodipodi:namedview>
  <defs
     id="defs81">
    <style
       id="current-color-scheme"
       type="text/css">
   .ColorScheme-Text { color:#dedede; } .ColorScheme-Highlight { color:#5294e2; } .ColorScheme-ButtonBackground { color:#dedede; }
  </style>
    <linearGradient
       id="linearGradient5606"
       osb:paint="solid">
      <stop
         id="stop5608"
         offset="0"
         style="stop-color:currentColor;stop-opacity:1" />
    </linearGradient>
  </defs>
  <rect
     id="rect3011-4"
     class="ColorScheme-Text"
     width="22"
     height="22"
     x="0"
     y="0"
     style="fill:currentColor;fill-opacity:0;stroke:none" />
  <g
     id="16-16-device-notifier">
    <rect
       id="rect4188"
       width="16"
       height="16"
       x="0"
       y="26"
       style="opacity:0;fill:currentColor;fill-opacity:1;fill-rule:nonzero;stroke:none;stroke-width:1;stroke-linecap:round;stroke-linejoin:round;stroke-miterlimit:4;stroke-dasharray:none;stroke-dashoffset:0;stroke-opacity:1" />
    <rect
       id="rect3823"
       class="ColorScheme-Text"
       width="16"
       height="16"
       x="0"
       y="26"
       style="fill:currentColor;fill-opacity:0;stroke:none" />
    <path
       id="rect9463"
       class="ColorScheme-Text"
       d="M 4.84375,27.00693 C 4.5625,27.05381 4,27.256806 4,28.006435 l 0,8.995545 c 0,0 0,0.999505 1,0.999505 l 6,0 c 1,0 1,-0.999505 1,-0.999505 l 0,-8.995545 C 12,27.00693 11,27.00693 11,27.00693 l -6,0 c 0,0 -0.0625,-0.01559 -0.15625,0 z M 5,39.00099 5,41 l 6,0 0,-1.99901 z"
       style="display:inline;opacity:1;fill:currentColor;fill-opacity:1;stroke:none;filter:url(#filter7554);enable-background:new" />
  </g>
  <g
     id="22-22-device-notifier"
     transform="translate(28,4)">
    <rect
       id="rect4243"
       width="22"
       height="22"
       x="-28"
       y="-4"
       style="opacity:0;fill:currentColor;fill-opacity:1;fill-rule:nonzero;stroke:none;stroke-width:1;stroke-linecap:round;stroke-linejoin:round;stroke-miterlimit:4;stroke-dasharray:none;stroke-dashoffset:0;stroke-opacity:1" />
    <rect
       id="rect4245"
       class="ColorScheme-Text"
       width="22"
       height="22"
       x="-28"
       y="-4"
       style="fill:currentColor;fill-opacity:0;stroke:none" />
    <path
       id="path4254"
       class="ColorScheme-Text"
       d="M -20.15625,-1.0006299 C -20.4375,-0.9494601 -21,-0.72788863 -21,0.09033645 V 9.9090339 c 0,0 0,1.0909671 1,1.0909671 h 6 c 1,0 1,-1.0909671 1,-1.0909671 V 0.09033645 c 0,-1.09096635 -1,-1.09096635 -1,-1.09096635 h -6 c 0,0 -0.06251,-0.017016 -0.15625,0 z"
       style="color:#dedede;display:inline;opacity:1;fill:currentColor;fill-opacity:1;stroke:none;stroke-width:0.99999994;filter:url(#filter7554);enable-background:new"
       inkscape:connector-curvature="0" />
    <path
       id="path4247"
       class="ColorScheme-Text"
       d="m -20,12 v 2 h 6 v -2 z"
       style="color:#dedede;display:inline;opacity:1;fill:currentColor;fill-opacity:1;stroke:none;stroke-width:1;filter:url(#filter7554);enable-background:new"
       inkscape:connector-curvature="0" />
  </g>
  <g
     id="device-notifier"
     transform="translate(40,4)">
    <rect
       id="rect4264"
       width="32"
       height="32"
       x="-40"
       y="-38"
       style="opacity:0;fill:currentColor;fill-opacity:1;fill-rule:nonzero;stroke:none;stroke-width:1;stroke-linecap:round;stroke-linejoin:round;stroke-miterlimit:4;stroke-dasharray:none;stroke-dashoffset:0;stroke-opacity:1" />
    <rect
       id="rect4266"
       class="ColorScheme-Text"
       width="32"
       height="32"
       x="-40"
       y="-38"
       style="fill:currentColor;fill-opacity:0;stroke:none" />
    <path
       id="path4268"
       class="ColorScheme-Text"
       d="M -29.523437,-34.987402 C -30.015625,-34.902182 -31,-34.533144 -31,-33.170366 l 0,16.35333 c 0,0 0,1.817036 1.75,1.817036 l 10.5,0 c 1.75,0 1.75,-1.817036 1.75,-1.817036 l 0,-16.35333 c 0,-1.817036 -1.75,-1.817036 -1.75,-1.817036 l -10.5,0 c 0,0 -0.109382,-0.02834 -0.273437,0 z"
       style="display:inline;opacity:1;fill:currentColor;fill-opacity:1;stroke:none;filter:url(#filter7554);enable-background:new" />
    <path
       id="path4270"
       class="ColorScheme-Text"
       d="m -29,-13 0,4 10,0 0,-4 z"
       style="display:inline;opacity:1;fill:currentColor;fill-opacity:1;stroke:none;filter:url(#filter7554);enable-background:new" />
  </g>
</svg>
