<svg id="svg" version="1.1" viewBox="0 0 22 22" xmlns="http://www.w3.org/2000/svg">
 <defs>
  <style id="current-color-scheme" type="text/css">
    .ColorScheme-Text { color:#dedede; } .ColorScheme-Highlight { color:#5294e2; }
  </style>
 </defs>
 <g id="kdeconnect">
  <rect y="-34" width="32" height="32" rx="0" ry="0" opacity="0"/>
 <path style="fill:currentColor" class="ColorScheme-Text" d="m10.4-30c-1.4 0-1.4004 1.5-1.4004 1.5v21s3.907e-4 1.5 1.4004 1.5h11.199c1.4 0 1.4004-1.5 1.4004-1.5v-21s-3.91e-4 -1.5-1.4004-1.5zm0.59961 2h10v16h-10zm5 17c1.1046 0 2 0.89543 2 2 0 1.1046-0.89543 2-2 2s-2-0.89543-2-2c0-1.1046 0.89543-2 2-2z"/>
 </g>
 <g id="16-16-kdeconnect">
  <rect y="26" width="16" height="16" rx="0" ry="0" opacity="0"/>
 <path style="fill:currentColor" class="ColorScheme-Text" d="m4.7988 28c-0.8 0-0.79883 0.75-0.79883 0.75v10.5s-0.0012 0.75 0.79883 0.75h6.4004c0.8 0 0.80078-0.75 0.80078-0.75v-10.5s-8.42e-4 -0.75-0.80078-0.75zm0.20117 1h6v7h-6zm3 8c0.55228 0 1 0.44772 1 1s-0.44772 1-1 1-1-0.44772-1-1 0.44772-1 1-1z"/>
 </g>
 <g id="22-22-kdeconnect">
  <path d="m0 0h22v22h-22z" opacity="0"/>
 <path style="fill:currentColor" class="ColorScheme-Text" d="m7 3c-1 0-1 1-1 1v14s0 1 1 1h8c1 0 1-1 1-1v-14s0-1-1-1zm8 1v11h-8v-11zm-4 12c0.55228 0 1 0.44772 1 1s-0.44772 1-1 1-1-0.44772-1-1 0.44772-1 1-1z" />
 </g>
</svg>
