<?xml version="1.0" encoding="UTF-8" standalone="no"?>
<svg
   xmlns:dc="http://purl.org/dc/elements/1.1/"
   xmlns:cc="http://creativecommons.org/ns#"
   xmlns:rdf="http://www.w3.org/1999/02/22-rdf-syntax-ns#"
   xmlns:svg="http://www.w3.org/2000/svg"
   xmlns="http://www.w3.org/2000/svg"
   xmlns:sodipodi="http://sodipodi.sourceforge.net/DTD/sodipodi-0.dtd"
   xmlns:inkscape="http://www.inkscape.org/namespaces/inkscape"
   id="svg2"
   width="22"
   height="22"
   version="1.1"
   sodipodi:docname="kdf.svg"
   inkscape:version="0.92.4 5da689c313, 2019-01-14">
  <metadata
     id="metadata14">
    <rdf:RDF>
      <cc:Work
         rdf:about="">
        <dc:format>image/svg+xml</dc:format>
        <dc:type
           rdf:resource="http://purl.org/dc/dcmitype/StillImage" />
      </cc:Work>
    </rdf:RDF>
  </metadata>
  <sodipodi:namedview
     pagecolor="#ffffff"
     bordercolor="#666666"
     borderopacity="1"
     objecttolerance="10"
     gridtolerance="10"
     guidetolerance="10"
     inkscape:pageopacity="0"
     inkscape:pageshadow="2"
     inkscape:window-width="1366"
     inkscape:window-height="711"
     id="namedview12"
     showgrid="false"
     inkscape:zoom="7.4519915"
     inkscape:cx="9.8569836"
     inkscape:cy="6.0107183"
     inkscape:window-x="0"
     inkscape:window-y="0"
     inkscape:window-maximized="1"
     inkscape:current-layer="svg2" />
  <defs
     id="defs4">
    <style
       id="current-color-scheme"
       type="text/css">
   .ColorScheme-Text { color:#dedede; } .ColorScheme-Highlight { color:#5294e2; } .ColorScheme-ButtonBackground { color:#dedede; }
  </style>
  </defs>
  <rect
     id="rect3018"
     class="ColorScheme-Text"
     width="16"
     height="16"
     x="-20.43"
     y="-19.39"
     ry="0"
     style="opacity:0;fill:currentColor;fill-opacity:1;stroke:none" />
  <g
     id="16-16-kdf">
    <rect
       id="rect3835"
       width="16"
       height="16"
       x="-20"
       y="6"
       ry="0"
       style="opacity:0;fill:#131313;fill-opacity:0.67054266;stroke:none" />
    <path
       id="rect8476"
       class="ColorScheme-Text"
       d="m -17,7 c -1,0 -1,1 -1,1 l 0,12 c 0,0 0,1 1,1 l 10,0 c 0,0 1,0 1,-1 L -6,8 c 0,0 0,-1 -1,-1 z m 5,2 c 2.20914,0 4,1.79086 4,4 0,2.20914 -1.79086,4 -4,4 l -4,0 0,-4 c 0,-2.20914 1.79086,-4 4,-4 z m 0,2 c -1.10457,0 -2,0.89543 -2,2 0,1.10457 0.89543,2 2,2 1.10457,0 2,-0.89543 2,-2 0,-1.10457 -0.89543,-2 -2,-2 z"
       style="fill:currentColor;fill-opacity:1" />
  </g>
  <g
     id="kdf">
    <rect
       id="rect3004"
       class="ColorScheme-Text"
       width="22"
       height="22"
       x="0"
       y="0"
       ry="1.375"
       style="color:#dedede;opacity:0;fill:currentColor;fill-opacity:1;stroke:none" />
    <path
       style="fill:#dedede;fill-opacity:1;stroke:none"
       d="m 5.99978,4.03456 c -1,0 -1,1 -1,1 v 12 c 0,0 0,1 1,1 h 10 c 0,0 1,0 1,-1 v -12 c 0,0 0,-1 -1,-1 z m 5,2 c 2.209139,0 4,1.79086 4,4 0,2.20914 -1.790861,4 -4,4 h -4 v -4 c 0,-2.20914 1.790861,-4 4,-4 z m 0,2 c -1.104569,0 -2,0.89543 -2,2 0,1.10457 0.895431,2 2,2 1.104569,0 2,-0.89543 2,-2 0,-1.10457 -0.895431,-2 -2,-2 z"
       id="rect8476-3"
       inkscape:connector-curvature="0"
       sodipodi:nodetypes="sccscscssssscsssssss" />
  </g>
</svg>
