<?xml version="1.0" encoding="UTF-8" standalone="no"?>
<svg
   xmlns:osb="http://www.openswatchbook.org/uri/2009/osb"
   xmlns:dc="http://purl.org/dc/elements/1.1/"
   xmlns:cc="http://creativecommons.org/ns#"
   xmlns:rdf="http://www.w3.org/1999/02/22-rdf-syntax-ns#"
   xmlns:svg="http://www.w3.org/2000/svg"
   xmlns="http://www.w3.org/2000/svg"
   xmlns:sodipodi="http://sodipodi.sourceforge.net/DTD/sodipodi-0.dtd"
   xmlns:inkscape="http://www.inkscape.org/namespaces/inkscape"
   id="svg7384"
   width="22"
   height="22"
   version="1.1"
   style="enable-background:new"
   sodipodi:docname="keyboard.svg"
   inkscape:version="0.92.4 5da689c313, 2019-01-14">
  <metadata
     id="metadata12">
    <rdf:RDF>
      <cc:Work
         rdf:about="">
        <dc:format>image/svg+xml</dc:format>
        <dc:type
           rdf:resource="http://purl.org/dc/dcmitype/StillImage" />
      </cc:Work>
    </rdf:RDF>
  </metadata>
  <sodipodi:namedview
     pagecolor="#ffffff"
     bordercolor="#666666"
     borderopacity="1"
     objecttolerance="10"
     gridtolerance="10"
     guidetolerance="10"
     inkscape:pageopacity="0"
     inkscape:pageshadow="2"
     inkscape:window-width="1366"
     inkscape:window-height="711"
     id="namedview10"
     showgrid="false"
     inkscape:zoom="7.4519915"
     inkscape:cx="-7.2063484"
     inkscape:cy="14.80153"
     inkscape:window-x="0"
     inkscape:window-y="0"
     inkscape:window-maximized="1"
     inkscape:current-layer="svg7384" />
  <defs
     id="defs7386">
    <style
       id="current-color-scheme"
       type="text/css">
   .ColorScheme-Text { color:#dedede; } .ColorScheme-Highlight { color:#5294e2; } .ColorScheme-ButtonBackground { color:#dedede; }
  </style>
    <linearGradient
       id="linearGradient5606"
       osb:paint="solid">
      <stop
         id="stop5608"
         offset="0"
         style="stop-color:currentColor;stop-opacity:1" />
    </linearGradient>
  </defs>
  <g
     id="keyboard-layout">
    <rect
       id="rect4161"
       class="ColorScheme-Text"
       width="22"
       height="22"
       x="0"
       y="0"
       style="color:#dedede;opacity:0;fill:currentColor;fill-opacity:1;stroke:none;stroke-opacity:1" />
    <path
       style="fill:#dedede;fill-opacity:1;stroke:none"
       d="m 4.99999,5.00336 c 0,0 -2,0 -2,2 v 8 c 0,2 2,2 2,2 h 11 c 0,0 2,0 2,-2 v -8 c 0,-2 -2,-2 -2,-2 z m 0.25,2 h 1.5 c 0.1385,0 0.25,0.1115 0.25,0.25 v 1.5 c 0,0.1385 -0.1115,0.25 -0.25,0.25 h -1.5 c -0.1385,0 -0.25,-0.1115 -0.25,-0.25 v -1.5 c 0,-0.1385 0.1115,-0.25 0.25,-0.25 z m 3,0 h 1.5 c 0.1385,0 0.25,0.1115 0.25,0.25 v 1.5 c 0,0.1385 -0.1115,0.25 -0.25,0.25 h -1.5 c -0.1385,0 -0.25,-0.1115 -0.25,-0.25 v -1.5 c 0,-0.1385 0.1115,-0.25 0.25,-0.25 z m 3,0 h 1.5 c 0.1385,0 0.25,0.1115 0.25,0.25 v 1.5 c 0,0.1385 -0.1115,0.25 -0.25,0.25 h -1.5 c -0.1385,0 -0.25,-0.1115 -0.25,-0.25 v -1.5 c 0,-0.1385 0.1115,-0.25 0.25,-0.25 z m 3,0 h 1.5 c 0.1385,0 0.25,0.1115 0.25,0.25 v 1.5 c 0,0.1385 -0.1115,0.25 -0.25,0.25 h -1.5 c -0.1385,0 -0.25,-0.1115 -0.25,-0.25 v -1.5 c 0,-0.1385 0.1115,-0.25 0.25,-0.25 z m -9,3 h 1.5 c 0.1385,0 0.25,0.1115 0.25,0.25 v 1.5 c 0,0.1385 -0.1115,0.25 -0.25,0.25 h -1.5 c -0.1385,0 -0.25,-0.1115 -0.25,-0.25 v -1.5 c 0,-0.1385 0.1115,-0.25 0.25,-0.25 z m 3,0 h 1.5 c 0.1385,0 0.25,0.1115 0.25,0.25 v 1.5 c 0,0.1385 -0.1115,0.25 -0.25,0.25 h -1.5 c -0.1385,0 -0.25,-0.1115 -0.25,-0.25 v -1.5 c 0,-0.1385 0.1115,-0.25 0.25,-0.25 z m 3,0 h 1.5 c 0.1385,0 0.25,0.1115 0.25,0.25 v 1.5 c 0,0.1385 -0.1115,0.25 -0.25,0.25 h -1.5 c -0.1385,0 -0.25,-0.1115 -0.25,-0.25 v -1.5 c 0,-0.1385 0.1115,-0.25 0.25,-0.25 z m 3,0 h 1.5 c 0.1385,0 0.25,0.1115 0.25,0.25 v 1.5 c 0,0.1385 -0.1115,0.25 -0.25,0.25 h -1.5 c -0.1385,0 -0.25,-0.1115 -0.25,-0.25 v -1.5 c 0,-0.1385 0.1115,-0.25 0.25,-0.25 z m -7,3 h 6.5 c 0.1385,0 0.25,0.1115 0.25,0.25 v 1.5 c 0,0.1385 -0.1115,0.25 -0.25,0.25 h -6.5 c -0.1385,0 -0.25,-0.1115 -0.25,-0.25 v -1.5 c 0,-0.1385 0.1115,-0.25 0.25,-0.25 z"
       id="rect6069-5-5"
       inkscape:connector-curvature="0" />
  </g>
</svg>
