<?xml version="1.0" encoding="UTF-8" standalone="no"?>
<svg
   xmlns:dc="http://purl.org/dc/elements/1.1/"
   xmlns:cc="http://creativecommons.org/ns#"
   xmlns:rdf="http://www.w3.org/1999/02/22-rdf-syntax-ns#"
   xmlns:svg="http://www.w3.org/2000/svg"
   xmlns="http://www.w3.org/2000/svg"
   xmlns:xlink="http://www.w3.org/1999/xlink"
   xmlns:sodipodi="http://sodipodi.sourceforge.net/DTD/sodipodi-0.dtd"
   xmlns:inkscape="http://www.inkscape.org/namespaces/inkscape"
   id="svg"
   width="100%"
   height="100%"
   version="1.1"
   viewBox="0 0 22 22"
   sodipodi:docname="notification.svg"
   inkscape:version="0.92.4 (5da689c313, 2019-01-14)">
  <metadata
     id="metadata35">
    <rdf:RDF>
      <cc:Work
         rdf:about="">
        <dc:format>image/svg+xml</dc:format>
        <dc:type
           rdf:resource="http://purl.org/dc/dcmitype/StillImage" />
      </cc:Work>
    </rdf:RDF>
  </metadata>
  <sodipodi:namedview
     pagecolor="#ffffff"
     bordercolor="#666666"
     borderopacity="1"
     objecttolerance="10"
     gridtolerance="10"
     guidetolerance="10"
     inkscape:pageopacity="0"
     inkscape:pageshadow="2"
     inkscape:window-width="1366"
     inkscape:window-height="707"
     id="namedview33"
     showgrid="true"
     inkscape:zoom="5.2693537"
     inkscape:cx="14.456122"
     inkscape:cy="5.0351971"
     inkscape:window-x="0"
     inkscape:window-y="0"
     inkscape:window-maximized="1"
     inkscape:current-layer="svg">
    <inkscape:grid
       type="xygrid"
       id="grid842" />
  </sodipodi:namedview>
  <defs
     id="defs81">
    <style
       id="current-color-scheme"
       type="text/css">
   .ColorScheme-Text { color:#dedede; } .ColorScheme-Highlight { color:#5294e2; } .ColorScheme-ButtonBackground { color:#dedede; }
  </style>
    <linearGradient
       id="linearGradient5399"
       x1="317.917"
       x2="317.917"
       y1="909.772"
       y2="912.772"
       gradientUnits="userSpaceOnUse"
       xlink:href="#linearGradient4254" />
    <linearGradient
       id="linearGradient4254">
      <stop
         id="stop4256"
         offset="0"
         style="stop-color:#888888;stop-opacity:1" />
      <stop
         id="stop4258"
         offset="1"
         style="stop-color:#232323;stop-opacity:1" />
    </linearGradient>
  </defs>
  <g
     id="notification-active">
    <rect
       id="rect3068"
       width="22"
       height="22"
       x="0"
       y="40"
       style="opacity:0;fill:currentColor;fill-opacity:0.94117647;stroke:none" />
    <path
       id="path4238"
       class="ColorScheme-Highlight"
       d="m 11,45 c -3.3137085,0 -6,2.686291 -6,6 0,3.313709 2.6862915,6 6,6 3.313709,0 6,-2.686291 6,-6 0,-3.313709 -2.686291,-6 -6,-6 z"
       style="color:#5294e2;opacity:1;fill:currentColor;fill-opacity:1;fill-rule:nonzero;stroke:none;stroke-width:1;stroke-linecap:round;stroke-linejoin:round;stroke-miterlimit:4;stroke-dasharray:none;stroke-dashoffset:0;stroke-opacity:1"
       inkscape:connector-curvature="0" />
    <path
       id="path4173-0"
       class="ColorScheme-Text"
       d="m 10,48 v 4 h 2 v -4 z m 1,5 c -0.453152,0 -1,0.518427 -1,0.980469 C 10,54.442512 10.546848,55 11,55 11.453152,55 12,54.442512 12,53.980469 12,53.518427 11.453152,53 11,53 Z"
       style="color:#dedede;opacity:1;fill:#ffffff;fill-opacity:0.94117647;stroke:none"
       inkscape:connector-curvature="0"
       sodipodi:nodetypes="cccccsssss" />
  </g>
  <path
     id="expander-bottom"
     class="ColorScheme-Text"
     d="m -18,23 2,-2 2,2 z"
     style="fill:currentColor;fill-opacity:1;opacity:1" />
  <path
     id="expander-top"
     class="ColorScheme-Text"
     d="m -18,17 2,2 2,-2 z"
     style="fill:currentColor;fill-opacity:1;opacity:1" />
  <path
     id="expander-right"
     class="ColorScheme-Text"
     d="m -13,18 -2,2 2,2 z"
     style="fill:currentColor;fill-opacity:1;opacity:1" />
  <path
     id="expander-left"
     class="ColorScheme-Text"
     d="m -19,18 2,2 -2,2 z"
     style="fill:currentColor;fill-opacity:1;opacity:1" />
  <g
     id="notification-inactive">
    <rect
       id="rect3028"
       class="ColorScheme-Text"
       width="22"
       height="22"
       x="0"
       y="0"
       style="fill:currentColor;fill-opacity:0;stroke:none" />
    <g
       id="g4185">
      <path
         id="path4163"
         class="ColorScheme-Text"
         d="m 11,5 a 6,6 0 0 0 -6,6 6,6 0 0 0 6,6 6,6 0 0 0 6,-6 6,6 0 0 0 -6,-6 z m 0,1.5 A 4.5,4.5 0 0 1 15.5,11 4.5,4.5 0 0 1 11,15.5 4.5,4.5 0 0 1 6.5,11 4.5,4.5 0 0 1 11,6.5 Z m -0.75,0.75 v 4.5 h 1.5 V 7.25 Z M 11,12.5 c -0.339864,0 -0.75,0.38882 -0.75,0.735352 C 10.25,13.581884 10.660136,14 11,14 11.339864,14 11.75,13.581884 11.75,13.235352 11.75,12.88882 11.339864,12.5 11,12.5 Z"
         style="color:#dedede;opacity:1;fill:currentColor;fill-opacity:1;fill-rule:nonzero;stroke:none;stroke-width:1;stroke-linecap:round;stroke-linejoin:round;stroke-miterlimit:4;stroke-dasharray:none;stroke-dashoffset:0;stroke-opacity:1"
         inkscape:connector-curvature="0" />
    </g>
  </g>
  <g
     id="notification-disabled">
    <rect
       id="rect3022"
       width="22"
       height="22"
       x="0"
       y="-40"
       style="fill:currentColor;fill-opacity:0.94117647;stroke:none;opacity:0" />
    <path
       id="path4196"
       class="ColorScheme-Text"
       d="m 11,-35 a 6,6 0 0 0 -6,6 6,6 0 0 0 6,6 6,6 0 0 0 6,-6 6,6 0 0 0 -6,-6 z m 0,1.5 A 4.5,4.5 0 0 1 15.5,-29 4.5,4.5 0 0 1 11,-24.5 4.5,4.5 0 0 1 6.5,-29 4.5,4.5 0 0 1 11,-33.5 Z m -0.75,0.75 v 4.5 h 1.5 v -4.5 z M 11,-27.5 c -0.339864,0 -0.75,0.38882 -0.75,0.735352 C 10.25,-26.418116 10.660136,-26 11,-26 c 0.339864,0 0.75,-0.418116 0.75,-0.764648 C 11.75,-27.11118 11.339864,-27.5 11,-27.5 Z"
       style="color:#dedede;opacity:0.3;fill:currentColor;fill-opacity:1;fill-rule:nonzero;stroke:none;stroke-width:1;stroke-linecap:round;stroke-linejoin:round;stroke-miterlimit:4;stroke-dasharray:none;stroke-dashoffset:0;stroke-opacity:1"
       inkscape:connector-curvature="0" />
  </g>
  <g
     id="notification-empty">
    <rect
       id="rect3798"
       width="22"
       height="22"
       x="40"
       y="-40"
       style="fill:currentColor;fill-opacity:0.94117647;stroke:none;opacity:0" />
    <path
       id="path4226"
       class="ColorScheme-Text"
       d="m 51,-35 a 6,6 0 0 0 -6,6 6,6 0 0 0 6,6 6,6 0 0 0 6,-6 6,6 0 0 0 -6,-6 z m 0,1.5 a 4.5,4.5 0 0 1 4.5,4.5 4.5,4.5 0 0 1 -4.5,4.5 4.5,4.5 0 0 1 -4.5,-4.5 4.5,4.5 0 0 1 4.5,-4.5 z"
       style="color:#dedede;opacity:1;fill:currentColor;fill-opacity:1;fill-rule:nonzero;stroke:none;stroke-width:1;stroke-linecap:round;stroke-linejoin:round;stroke-miterlimit:4;stroke-dasharray:none;stroke-dashoffset:0;stroke-opacity:1"
       inkscape:connector-curvature="0" />
  </g>
  <g
     id="notification-progress-active">
    <rect
       id="rect3009"
       width="22"
       height="22"
       x="40"
       y="0"
       style="fill:currentColor;fill-opacity:0.94117647;stroke:none;opacity:0" />
    <path
       id="path4233"
       class="ColorScheme-Highlight"
       d="m 51,5 c -3.313708,0 -5.999999,2.6862915 -5.999999,6 0,3.313708 2.686291,6 5.999999,6 3.313709,0 6,-2.686292 6,-6 0,-3.3137085 -2.686291,-6 -6,-6 z"
       style="color:#5294e2;opacity:1;fill:currentColor;fill-opacity:1;fill-rule:nonzero;stroke:none;stroke-width:1;stroke-linecap:round;stroke-linejoin:round;stroke-miterlimit:4;stroke-dasharray:none;stroke-dashoffset:0;stroke-opacity:1"
       inkscape:connector-curvature="0" />
  </g>
  <g
     id="notification-progress-inactive">
    <rect
       id="rect3060"
       width="22"
       height="22"
       x="40"
       y="40"
       style="fill:currentColor;fill-opacity:0.94117647;stroke:none;opacity:0" />
    <path
       id="path4241"
       class="ColorScheme-Text"
       d="m 51,45 c -3.313709,0 -6,2.686291 -6,6 0,3.313709 2.686291,6 6,6 3.313709,0 6,-2.686291 6,-6 0,-3.313709 -2.686291,-6 -6,-6 z"
       style="color:#dedede;opacity:0.3;fill:currentColor;fill-opacity:1;fill-rule:nonzero;stroke:none;stroke-width:1;stroke-linecap:round;stroke-linejoin:round;stroke-miterlimit:4;stroke-dasharray:none;stroke-dashoffset:0;stroke-opacity:1"
       inkscape:connector-curvature="0" />
  </g>
</svg>
