<?xml version="1.0" encoding="UTF-8" standalone="no"?>
<svg
   xmlns:dc="http://purl.org/dc/elements/1.1/"
   xmlns:cc="http://creativecommons.org/ns#"
   xmlns:rdf="http://www.w3.org/1999/02/22-rdf-syntax-ns#"
   xmlns:svg="http://www.w3.org/2000/svg"
   xmlns="http://www.w3.org/2000/svg"
   xmlns:sodipodi="http://sodipodi.sourceforge.net/DTD/sodipodi-0.dtd"
   xmlns:inkscape="http://www.inkscape.org/namespaces/inkscape"
   id="svg"
   width="100%"
   height="100%"
   version="1.1"
   viewBox="0 0 22 22"
   sodipodi:docname="preferences.svg"
   inkscape:version="0.92.4 (5da689c313, 2019-01-14)">
  <metadata
     id="metadata23">
    <rdf:RDF>
      <cc:Work
         rdf:about="">
        <dc:format>image/svg+xml</dc:format>
        <dc:type
           rdf:resource="http://purl.org/dc/dcmitype/StillImage" />
      </cc:Work>
    </rdf:RDF>
  </metadata>
  <sodipodi:namedview
     pagecolor="#ffffff"
     bordercolor="#666666"
     borderopacity="1"
     objecttolerance="10"
     gridtolerance="10"
     guidetolerance="10"
     inkscape:pageopacity="0"
     inkscape:pageshadow="2"
     inkscape:window-width="1366"
     inkscape:window-height="704"
     id="namedview21"
     showgrid="false"
     inkscape:zoom="5.3636364"
     inkscape:cx="93.502783"
     inkscape:cy="5.2653013"
     inkscape:window-x="0"
     inkscape:window-y="0"
     inkscape:window-maximized="1"
     inkscape:current-layer="svg" />
  <defs
     id="defs7386">
    <style
       id="current-color-scheme"
       type="text/css">
   .ColorScheme-Text { color:#dedede; } .ColorScheme-Highlight { color:#5294e2; } .ColorScheme-ButtonBackground { color:#dedede; }
  </style>
  </defs>
  <g
     id="preferences-desktop-notification"
     transform="translate(22,-39.787798)">
    <rect
       id="rect3068"
       width="22"
       height="22"
       x="0"
       y="40"
       style="opacity:0;fill:#000000;fill-opacity:0.94117647;stroke:none" />
    <path
       id="path4238"
       class="ColorScheme-Highlight"
       d="m 11,43 c -4.418278,0 -8,3.581722 -8,8 0,4.418278 3.581722,8 8,8 4.418278,0 8,-3.581722 8,-8 0,-4.418278 -3.581722,-8 -8,-8 z"
       style="opacity:1;fill:currentColor;fill-opacity:1;fill-rule:nonzero;stroke:none;stroke-width:1;stroke-linecap:round;stroke-linejoin:round;stroke-miterlimit:4;stroke-dasharray:none;stroke-dashoffset:0;stroke-opacity:1" />
    <path
       id="path4173-0"
       class="ColorScheme-Text"
       d="m 10,47 0,6 2,0 0,-6 -2,0 z m 1,7 c -0.453152,0 -1,0.518427 -1,0.980469 C 10,55.442512 10.546848,56 11,56 11.453152,56 12,55.442512 12,54.980469 12,54.518427 11.453152,54 11,54 Z"
       style="opacity:1;fill:#ffffff;fill-opacity:1;stroke:none" />
  </g>
  <g
     id="preferences-system-bluetooth-activated"
     transform="translate(44,-104)">
    <rect
       id="rect3969-75"
       width="22"
       height="22"
       x="0"
       y="104"
       style="opacity:0;fill:#000000;fill-opacity:1;stroke:none" />
    <path
       id="rect5886-2"
       class="ColorScheme-Text"
       d="M 11.5,107 C 8.453,107 6,109.676 6,113 l 0,4 c 0,3.324 2.453,6 5.5,6 3.047,0 5.5,-2.676 5.5,-6 l 0,-4 c 0,-3.324 -2.453,-6 -5.5,-6 z m 7.5,0 a 2,2 0 0 0 -2,2 2,2 0 0 0 2,2 2,2 0 0 0 2,-2 2,2 0 0 0 -2,-2 z m -8,2 0.5,0 c 0.20775,0 0.39305,0.13292 0.46875,0.3125 l 2.875,2.84375 0.40625,0.375 -0.4375,0.34375 -2.5625,2.125 2.5625,2.125 0.4375,0.34375 -0.40625,0.375 -2.875,2.84375 c -0.0252,0.0599 -0.0798,0.11106 -0.125,0.15625 C 11.75335,120.93415 11.6385,121 11.5,121 l -0.5,0 0,-0.5 0,-4.4375 -2.15625,1.78125 C 8.75325,117.93425 8.63807,118 8.5,118 l -0.5,0 0,-0.5 c 0,-0.15322 0.079,-0.28328 0.1875,-0.375 L 10.75,115 8.3125,112.96875 C 8.2658,112.94905 8.2257,112.9072 8.1875,112.875 8.07896,112.7833 8,112.65322 8,112.5 l 0,-0.5 0.5,0 c 0.12292,0 0.22543,0.0514 0.3125,0.125 0.0107,0.009 0.02135,0.0213 0.03125,0.0312 L 11,113.9375 11,109.5 11,109 Z m 1,1.6875 0,3.25 1.78125,-1.46875 L 12,110.6875 Z m 0,5.375 0,3.25 1.78125,-1.78125 L 12,116.0625 Z"
       style="opacity:1;fill:#eaeaea;fill-opacity:1;stroke:none" />
  </g>
  <g
     id="preferences-system-bluetooth"
     transform="translate(10,-3.9e-6)">
    <rect
       id="rect4174"
       width="22"
       height="22"
       x="56"
       y="0"
       style="opacity:0;fill:#000000;fill-opacity:1;stroke:none" />
    <path
       id="path4176"
       class="ColorScheme-Text"
       d="M 67.5,3 C 64.453,3 62,5.676 62,9 l 0,4 c 0,3.324 2.453,6 5.5,6 3.047,0 5.5,-2.676 5.5,-6 L 73,9 C 73,5.676 70.547,3 67.5,3 Z M 67,5 67.5,5 c 0.20775,0 0.39305,0.13292 0.46875,0.3125 l 2.875,2.84375 L 71.25,8.53125 70.8125,8.875 68.25,11 l 2.5625,2.125 0.4375,0.34375 -0.40625,0.375 -2.875,2.84375 c -0.0252,0.0599 -0.0798,0.11106 -0.125,0.15625 C 67.75335,16.93415 67.6385,17 67.5,17 l -0.5,0 0,-0.5 0,-4.4375 -2.15625,1.78125 C 64.75325,13.93425 64.63807,14 64.5,14 l -0.5,0 0,-0.5 c 0,-0.15322 0.079,-0.28328 0.1875,-0.375 L 66.75,11 64.3125,8.96875 C 64.2658,8.94905 64.2257,8.90725 64.1875,8.87505 64.07896,8.78335 64,8.65327 64,8.50005 l 0,-0.5 0.5,0 c 0.12292,0 0.22543,0.0514 0.3125,0.125 0.0107,0.009 0.0213,0.0213 0.0312,0.0312 l 2.15625,1.78125 0,-4.4375 0,-0.5 z m 1,1.6875 0,3.25 L 69.78125,8.46875 68,6.6875 Z m 0,5.375 0,3.25 1.78125,-1.78125 L 68,12.0625 Z"
       style="opacity:1;fill:#eaeaea;fill-opacity:1;stroke:none" />
  </g>
  <g
     id="preferences-system-bluetooth-inactive"
     transform="translate(32,-3.9e-6)">
    <rect
       id="rect4180"
       width="22"
       height="22"
       x="56"
       y="0"
       style="opacity:0;fill:#000000;fill-opacity:1;stroke:none" />
    <path
       id="path4182"
       class="ColorScheme-Text"
       d="M 67.5,3 C 64.453,3 62,5.676 62,9 l 0,4 c 0,3.324 2.453,6 5.5,6 3.047,0 5.5,-2.676 5.5,-6 L 73,9 C 73,5.676 70.547,3 67.5,3 Z M 67,5 67.5,5 c 0.20775,0 0.39305,0.13292 0.46875,0.3125 l 2.875,2.84375 L 71.25,8.53125 70.8125,8.875 68.25,11 l 2.5625,2.125 0.4375,0.34375 -0.40625,0.375 -2.875,2.84375 c -0.0252,0.0599 -0.0798,0.11106 -0.125,0.15625 C 67.75335,16.93415 67.6385,17 67.5,17 l -0.5,0 0,-0.5 0,-4.4375 -2.15625,1.78125 C 64.75325,13.93425 64.63807,14 64.5,14 l -0.5,0 0,-0.5 c 0,-0.15322 0.079,-0.28328 0.1875,-0.375 L 66.75,11 64.3125,8.96875 C 64.2658,8.94905 64.2257,8.90725 64.1875,8.87505 64.07896,8.78335 64,8.65327 64,8.50005 l 0,-0.5 0.5,0 c 0.12292,0 0.22543,0.0514 0.3125,0.125 0.0107,0.009 0.0213,0.0213 0.0312,0.0312 l 2.15625,1.78125 0,-4.4375 0,-0.5 z m 1,1.6875 0,3.25 L 69.78125,8.46875 68,6.6875 Z m 0,5.375 0,3.25 1.78125,-1.78125 L 68,12.0625 Z"
       style="opacity:0.3;fill:#eaeaea;fill-opacity:1;stroke:none" />
  </g>
  <g
     id="preferences-desktop-display-randr"
     transform="translate(13.000003,-45.999997)">
    <rect
       transform="scale(-1,1)"
       style="color:#bebebe;display:inline;overflow:visible;visibility:visible;opacity:0;fill:#b3b3b3;stroke:none;stroke-width:2;marker:none;enable-background:accumulate"
       id="rect861"
       width="21.999994"
       height="21.999994"
       x="-8.9999943"
       y="46" />
    <path
       sodipodi:nodetypes="sccscccsscccccccccccc"
       inkscape:connector-curvature="0"
       id="path865"
       d="m 6.7500048,48 c 1.2499984,0 1.2499984,1.286021 1.2499984,1.286021 v 12.427958 c 0,0 0,1.286021 -1.2499984,1.286021 H -10.750001 C -10.750001,63 -12,63 -12,61.713979 V 49.286021 C -12,49.286021 -12,48 -10.750001,48 Z M 6,50 H -10 V 61 H 6 Z M 1.7499971,64.421669 1.7497496,66 H -5.750255 l 2.612e-4,-1.578331 C -5.7499938,63.135647 -4.4999953,63 -4.4999953,63 h 5.0272052 c 0,0 1.2227872,0.135647 1.2227872,1.421669 z"
       style="fill:#eaeaea;fill-opacity:1;stroke:none;stroke-width:1" />
  </g>
</svg>
