<?xml version="1.0" encoding="UTF-8" standalone="no"?>
<svg
   xmlns:dc="http://purl.org/dc/elements/1.1/"
   xmlns:cc="http://creativecommons.org/ns#"
   xmlns:rdf="http://www.w3.org/1999/02/22-rdf-syntax-ns#"
   xmlns:svg="http://www.w3.org/2000/svg"
   xmlns="http://www.w3.org/2000/svg"
   xmlns:sodipodi="http://sodipodi.sourceforge.net/DTD/sodipodi-0.dtd"
   xmlns:inkscape="http://www.inkscape.org/namespaces/inkscape"
   id="svg2"
   width="32"
   height="32"
   version="1.1"
   viewBox="0 0 32 32"
   sodipodi:docname="system.svg"
   inkscape:version="0.92.4 (5da689c313, 2019-01-14)">
  <metadata
     id="metadata59">
    <rdf:RDF>
      <cc:Work
         rdf:about="">
        <dc:format>image/svg+xml</dc:format>
        <dc:type
           rdf:resource="http://purl.org/dc/dcmitype/StillImage" />
      </cc:Work>
    </rdf:RDF>
  </metadata>
  <sodipodi:namedview
     pagecolor="#ffffff"
     bordercolor="#666666"
     borderopacity="1"
     objecttolerance="10"
     gridtolerance="10"
     guidetolerance="10"
     inkscape:pageopacity="0"
     inkscape:pageshadow="2"
     inkscape:window-width="1366"
     inkscape:window-height="707"
     id="namedview57"
     showgrid="true"
     inkscape:zoom="9.8474285"
     inkscape:cx="89.034751"
     inkscape:cy="16.989028"
     inkscape:window-x="0"
     inkscape:window-y="0"
     inkscape:window-maximized="1"
     inkscape:current-layer="svg2"
     inkscape:snap-bbox="true"
     inkscape:bbox-nodes="true"
     inkscape:snap-nodes="true"
     inkscape:snap-smooth-nodes="true"
     inkscape:snap-global="true">
    <inkscape:grid
       type="xygrid"
       id="grid862" />
  </sodipodi:namedview>
  <defs
     id="defs87">
    <style
       id="current-color-scheme"
       type="text/css">
   .ColorScheme-Text { color:#dedede; } .ColorScheme-Highlight { color:#5294e2; } .ColorScheme-ButtonBackground { color:#dedede; }
  </style>
    <style
       id="current-color-scheme-6"
       type="text/css" />
    <linearGradient
       id="a">
      <stop
         id="stop945"
         stop-color="#fff"
         offset="0" />
      <stop
         id="stop947"
         stop-opacity=".235"
         stop-color="#fff"
         offset=".508" />
      <stop
         id="stop949"
         stop-opacity=".157"
         stop-color="#fff"
         offset=".835" />
      <stop
         id="stop951"
         stop-opacity=".392"
         stop-color="#fff"
         offset="1" />
    </linearGradient>
    <linearGradient
       id="c">
      <stop
         id="stop954"
         stop-color="#3d3d3d"
         offset="0" />
      <stop
         id="stop956"
         stop-opacity=".498"
         stop-color="#686868"
         offset=".5" />
      <stop
         id="stop958"
         stop-opacity="0"
         stop-color="#686868"
         offset="1" />
    </linearGradient>
    <linearGradient
       id="b">
      <stop
         id="stop961"
         stop-color="#919caf"
         offset="0" />
      <stop
         id="stop963"
         stop-color="#68758e"
         offset=".262" />
      <stop
         id="stop965"
         stop-color="#485a6c"
         offset=".705" />
      <stop
         id="stop967"
         stop-color="#444c5c"
         offset="1" />
    </linearGradient>
    <filter
       inkscape:collect="always"
       style="color-interpolation-filters:sRGB"
       id="filter1285"
       x="-0.036"
       width="1.072"
       y="-0.036"
       height="1.072">
      <feGaussianBlur
         inkscape:collect="always"
         stdDeviation="0.435"
         id="feGaussianBlur1287" />
    </filter>
    <filter
       inkscape:collect="always"
       style="color-interpolation-filters:sRGB"
       id="filter1307"
       x="-0.036"
       width="1.072"
       y="-0.036"
       height="1.072">
      <feGaussianBlur
         inkscape:collect="always"
         stdDeviation="0.43506"
         id="feGaussianBlur1309" />
    </filter>
    <filter
       inkscape:collect="always"
       style="color-interpolation-filters:sRGB"
       id="filter1349"
       x="-0.036"
       width="1.072"
       y="-0.036"
       height="1.072">
      <feGaussianBlur
         inkscape:collect="always"
         stdDeviation="0.43506"
         id="feGaussianBlur1351" />
    </filter>
    <filter
       inkscape:collect="always"
       style="color-interpolation-filters:sRGB"
       id="filter1385"
       x="-0.036"
       width="1.072"
       y="-0.036"
       height="1.072">
      <feGaussianBlur
         inkscape:collect="always"
         stdDeviation="0.435"
         id="feGaussianBlur1387" />
    </filter>
    <filter
       inkscape:collect="always"
       style="color-interpolation-filters:sRGB"
       id="filter1399"
       x="-0.036"
       width="1.072"
       y="-0.036"
       height="1.072">
      <feGaussianBlur
         inkscape:collect="always"
         stdDeviation="0.435"
         id="feGaussianBlur1401" />
    </filter>
    <filter
       inkscape:collect="always"
       style="color-interpolation-filters:sRGB"
       id="filter1443"
       x="-0.036"
       width="1.072"
       y="-0.036"
       height="1.072">
      <feGaussianBlur
         inkscape:collect="always"
         stdDeviation="0.43466698"
         id="feGaussianBlur1445" />
    </filter>
    <filter
       inkscape:collect="always"
       style="color-interpolation-filters:sRGB"
       id="filter1457"
       x="-0.036"
       width="1.072"
       y="-0.036"
       height="1.072">
      <feGaussianBlur
         inkscape:collect="always"
         stdDeviation="0.43333491"
         id="feGaussianBlur1459" />
    </filter>
  </defs>
  <g
     id="22-22-system-suspend"
     transform="translate(-21.999999,-988.36218)">
    <rect
       id="rect4222"
       width="22"
       height="22"
       x="0"
       y="1030.36"
       style="opacity:0.001;fill:currentColor;fill-opacity:1;stroke:none;stroke-width:2;stroke-linecap:round;stroke-linejoin:round;stroke-miterlimit:4;stroke-dasharray:none;stroke-opacity:1" />
    <g
       id="g4380"
       transform="matrix(1.0009385,0,0,0.99883233,-322.31608,1012.4029)"
       style="display:inline;opacity:1;fill:currentColor;fill-opacity:1">
      <path
         id="path4398"
         class="ColorScheme-Text"
         d="M 8.0449219,2 C 5.4709885,1.9800034 3.1612109,3.6075004 2.3203125,6.0351562 2.0969331,6.6800174 1.9985687,7.3426625 2,8 1.9989991,8.6573375 2.0969831,9.3199826 2.3203125,9.9648438 3.1612109,12.3925 5.4709885,14.02 8.0449219,14 10.618845,13.980003 12.900212,12.315429 13.703125,9.875 13.906195,9.2577756 14.001361,8.6263907 14,8 14.001001,7.3736093 13.906205,6.7422244 13.703125,6.125 12.900212,3.684571 10.618845,2.0199966 8.0449219,2 Z M 8.0292969,3.9980469 C 9.7515617,4.0114312 11.263538,5.1131547 11.800781,6.7460938 11.936599,7.1589011 12.00029,7.582557 12,8 12.00029,8.417443 11.936639,8.8410989 11.800781,9.2539062 11.263538,10.886845 9.7515617,11.988573 8.0292969,12.001953 6.307032,12.015337 4.7736051,10.936893 4.2109375,9.3125 4.0615674,8.8812761 3.9955932,8.4378711 3.9960938,8 3.9955932,7.5621289 4.0615574,7.1187239 4.2109375,6.6875 4.7736051,5.0631071 6.307032,3.9846625 8.0292969,3.9980469 Z M 5.8554688,7 C 5.3807835,7 5,7.446 5,8 5,8.554 5.3807835,9 5.8554688,9 L 10.142578,9 C 10.61726,9 11,8.554 11,8 11,7.446 10.61726,7 10.142578,7 L 5.8554688,7 Z"
         transform="matrix(0.99906238,0,0,1.001169,325.01106,20.983802)"
         style="fill:#eaeaea;fill-opacity:1" />
    </g>
  </g>
  <g
     id="22-22-system-switch-user"
     transform="translate(1e-6,-988.36218)">
    <rect
       id="rect4220"
       width="22"
       height="22"
       x="0"
       y="1030.36"
       style="opacity:0.001;fill:currentColor;fill-opacity:1;stroke:none;stroke-width:2;stroke-linecap:round;stroke-linejoin:round;stroke-miterlimit:4;stroke-dasharray:none;stroke-opacity:1" />
    <path
       id="path4481"
       class="ColorScheme-Text"
       d="m 10.9943,1035.362 c -1.8700303,0 -3.3939153,1.5345 -3.4492153,3.4512 -0.0459,0.012 -0.0915,0.033 -0.13476,0.055 -0.43005,0.227 -0.54034,0.9343 -0.2461,1.5899 0.23672,0.5274 0.65753,0.8538 1.03906,0.8437 0.28723,1.7528 1.430425,3.0606 2.7910153,3.0606 l 0.0117,0 c 1.36059,0 2.5038,-1.3078 2.79102,-3.0606 0.38154,0.01 0.80234,-0.3163 1.03906,-0.8437 0.29424,-0.6556 0.18394,-1.3629 -0.24609,-1.5899 -0.0433,-0.023 -0.0888,-0.044 -0.13477,-0.055 -0.0553,-1.9167 -1.57919,-3.4512 -3.44922,-3.4512 l -0.0117,0 z m 2.40039,8 c -0.28889,0.7005 -1.27408,1.2246 -2.44922,1.2246 -1.1698503,0 -2.1455953,-0.5173 -2.4394453,-1.2129 -2.46908,0.2581 -4.26818,0.8896 -4.48438,1.6367 -0.003,0.01 0.002,0.016 0,0.024 -0.007,0.026 -0.007,0.049 -0.01,0.076 -10e-4,0.012 -0.0117,0.021 -0.0117,0.035 -9e-5,0 0,0.011 0,0.012 l 0,1.8477 c 0,0.1976 0.15571,0.3574 0.34961,0.3574 l 13.3007853,0 c 0.1939,0 0.3496,-0.1598 0.3496,-0.3574 l 0,-1.8477 c 0,-0.01 3.5e-4,-0.015 0,-0.023 -0.002,-0.043 -0.0208,-0.081 -0.0332,-0.123 -0.22075,-0.7563 -2.05842,-1.3964 -4.57226,-1.6484 z"
       style="fill:#eaeaea;fill-opacity:1" />
  </g>
  <g
     id="22-22-system-shutdown"
     transform="translate(-43.999999,-988.36218)">
    <rect
       id="rect4229"
       width="22"
       height="22"
       x="0"
       y="1030.36"
       style="opacity:0.001;fill:currentColor;fill-opacity:1;stroke:none;stroke-width:2;stroke-linecap:round;stroke-linejoin:round;stroke-miterlimit:4;stroke-dasharray:none;stroke-opacity:1" />
    <path
       id="rect4324"
       class="ColorScheme-Text"
       d="m 11.000336,1034.362 c -0.553987,0 -0.99995,0.4462 -0.99995,1 l 0,5.0019 c 0,0.5538 0.445963,0.9981 0.99995,0.9981 0.553988,0 0.99995,-0.4443 0.99995,-0.9981 l 0,-5.0019 c 0,-0.5538 -0.445962,-1 -0.99995,-1 z m 2.939305,1.9902 a 1.000176,0.99982748 0 0 0 -0.542942,1.8086 c 1.377976,1.0304 1.941017,2.8148 1.404226,4.4492 -0.536779,1.6344 -2.050513,2.7386 -3.771293,2.752 -1.7207811,0.013 -3.2501263,-1.0675 -3.8123083,-2.6934 -0.562183,-1.6258 -0.02587,-3.419 1.335869,-4.4707 a 1.000176,0.99982748 0 1 0 -1.222594,-1.582 c -2.035135,1.5718 -2.842036,4.2772 -2.001852,6.707 0.840173,2.4298 3.144793,4.0591 5.7165093,4.0391 2.571705,-0.02 4.853744,-1.6863 5.655965,-4.1289 0.80223,-2.4426 -0.04794,-5.1339 -2.107316,-6.6739 a 1.000176,0.99982748 0 0 0 -0.654264,-0.207 z"
       style="fill:#eaeaea;fill-opacity:1" />
  </g>
  <g
     id="22-22-system-log-out"
     transform="matrix(0,-1,1,0,-1096.3623,64)">
    <rect
       id="rect4235"
       width="22"
       height="22"
       x="0"
       y="1030.36"
       style="opacity:0.001;fill:currentColor;fill-opacity:1;stroke:none;stroke-width:2;stroke-linecap:round;stroke-linejoin:round;stroke-miterlimit:4;stroke-dasharray:none;stroke-opacity:1" />
    <g
       id="layer12"
       transform="matrix(1.0009385,0,0,0.99883233,-322.31609,1012.4029)"
       style="display:inline;opacity:1;fill:currentColor;fill-opacity:1">
      <path
         id="path6796"
         class="ColorScheme-Text"
         d="M 8.0449219,2 C 5.4709885,1.98 3.161211,3.6075002 2.3203125,6.0351562 2.0969411,6.6800174 1.998566,7.342662 2,8 1.998566,8.657338 2.0969411,9.3199826 2.3203125,9.9648438 3.161211,12.3925 5.4709885,14.02 8.0449219,14 10.618845,13.980003 12.900212,12.315429 13.703125,9.875 13.906197,9.2577753 14.001356,8.626391 14,8 14.001356,7.373609 13.906197,6.7422247 13.703125,6.125 12.900212,3.6845712 10.618845,2.019997 8.0449219,2 Z M 8.0292969,3.9980469 C 9.7515617,4.0114279 11.263537,5.1131547 11.800781,6.7460938 11.9366,7.1589017 12.00029,7.5825571 12,8 12.00029,8.4174429 11.936599,8.8410983 11.800781,9.2539062 11.263537,10.886845 9.7515617,11.988572 8.0292969,12.001953 6.307032,12.015337 4.773605,10.936893 4.2109375,9.3125 4.0615674,8.881276 3.995597,8.4378713 3.9960938,8 3.995597,7.5621287 4.0615674,7.118724 4.2109375,6.6875 4.773605,5.0631072 6.307032,3.9846629 8.0292969,3.9980469 Z M 6.4746094,6 A 0.4736353,0.52746185 0 0 0 6.0625,6.7890625 L 7.5898438,9.734375 A 0.4736353,0.52746185 0 0 0 7.9746094,10 0.4736353,0.52746185 0 0 0 8.0234375,10 0.4736353,0.52746185 0 0 0 8.4101562,9.734375 L 9.9375,6.7890625 A 0.4736353,0.52746185 0 0 0 9.5273438,6 L 6.4746094,6 Z"
         transform="matrix(0.99906238,0,0,1.001169,325.01107,20.983802)"
         style="fill:#eaeaea;fill-opacity:1" />
    </g>
  </g>
  <g
     id="22-22-system-reboot"
     transform="matrix(-1,0,0,1,-65.999999,-988.36218)">
    <rect
       id="rect4242"
       width="22"
       height="22"
       x="0"
       y="1030.36"
       style="opacity:0.001;fill:currentColor;fill-opacity:1;stroke:none;stroke-width:2;stroke-linecap:round;stroke-linejoin:round;stroke-miterlimit:4;stroke-dasharray:none;stroke-opacity:1" />
    <path
       id="path4360"
       class="ColorScheme-Text"
       d="m 11.475393,1035.3621 a 0.4736353,0.52746183 0 0 0 -0.412109,0.7891 l 1.527343,2.9453 a 0.4736353,0.52746183 0 0 0 0.384766,0.2656 0.4736353,0.52746183 0 0 0 0.04883,0 0.4736353,0.52746183 0 0 0 0.386718,-0.2656 l 0.326172,-0.6289 c 1.12174,1.0534 1.553588,2.6586 1.064453,4.1465 -0.536781,1.6327 -2.050703,2.7366 -3.771484,2.75 -1.7207807,0.013 -3.2503167,-1.0672 -3.8124997,-2.6915 -0.562183,-1.6242 -0.02584,-3.4141 1.335938,-4.4648 a 1.0005526,0.99921387 0 1 0 -1.222657,-1.582 c -2.035134,1.5702 -2.842137,4.2737 -2.001953,6.7011 0.840174,2.4275 3.145082,4.0552 5.7167967,4.0352 2.571705,-0.02 4.854029,-1.6848 5.65625,-4.125 0.789982,-2.4029 -0.02804,-5.0426 -2.019531,-6.5918 l 0.255859,-0.4941 a 0.4736353,0.52746183 0 0 0 -0.410156,-0.7891 l -3.052734,0 z"
       style="fill:#eaeaea;fill-opacity:1" />
  </g>
  <g
     id="22-22-system-suspend-hibernate"
     transform="translate(-110,-988.36218)">
    <rect
       id="rect4248"
       width="22"
       height="22"
       x="0"
       y="1030.36"
       style="opacity:0.001;fill:currentColor;fill-opacity:1;stroke:none;stroke-width:2;stroke-linecap:round;stroke-linejoin:round;stroke-miterlimit:4;stroke-dasharray:none;stroke-opacity:1" />
    <g
       id="g4447"
       transform="matrix(1.0009385,0,0,0.99883233,-322.31607,1012.4029)"
       style="display:inline;opacity:1;fill:currentColor;fill-opacity:1">
      <path
         id="path4455"
         class="ColorScheme-Text"
         d="M 80.044922,2 C 77.470989,1.9800034 75.161212,3.6075014 74.320312,6.0351562 74.096933,6.6800174 73.998569,7.3426625 74,8 73.999,8.6573375 74.09698,9.3199826 74.320312,9.9648438 75.161212,12.3925 77.470989,14.02 80.044922,14 82.618845,13.98 84.900212,12.315429 85.703125,9.875 85.906195,9.2577756 86.001361,8.6263907 86,8 86.001001,7.3736093 85.906205,6.7422244 85.703125,6.125 84.900212,3.684571 82.618845,2.0199966 80.044922,2 Z m -0.01563,1.9980469 c 1.722265,0.013384 3.234241,1.1151078 3.771484,2.7480469 C 83.936599,7.1589011 84.00029,7.582557 84,8 84.00029,8.417443 83.936639,8.8410989 83.800781,9.2539062 83.263538,10.886845 81.751562,11.988574 80.029297,12.001953 78.307032,12.015337 76.773605,10.936893 76.210938,9.3125 76.061566,8.8812761 75.995593,8.4378711 75.996094,8 75.995593,7.5621289 76.061556,7.1187239 76.210938,6.6875 76.773605,5.0631071 78.307032,3.9846625 80.029297,3.9980469 Z M 80,6 a 2,2 0 0 0 -2,2 2,2 0 0 0 2,2 2,2 0 0 0 2,-2 2,2 0 0 0 -2,-2 z"
         transform="matrix(0.99906238,0,0,1.001169,253.07856,20.983802)"
         style="fill:#eaeaea;fill-opacity:1" />
    </g>
  </g>
  <g
     id="22-22-system-lock-screen"
     transform="translate(22.000001,-988.36218)">
    <rect
       id="rect4255"
       width="22"
       height="22"
       x="0"
       y="1030.36"
       style="opacity:0.001;fill:currentColor;fill-opacity:1;stroke:none;stroke-width:2;stroke-linecap:round;stroke-linejoin:round;stroke-miterlimit:4;stroke-dasharray:none;stroke-opacity:1" />
    <path
       id="path5975"
       class="ColorScheme-Text"
       d="m 11,1034.3622 c -2.216,0 -4,1.8216 -4,4.0625 l 0,1.9375 -1,0 c -0.554,0 -1,0.446 -1,1 l 0,6 c 0,0.554 0.446,1 1,1 l 10,0 c 0.554,0 1,-0.446 1,-1 l 0,-6 c 0,-0.554 -0.446,-1 -1,-1 l -1,0 0,-1.9375 c 0,-2.24 -1.784,-4.0625 -4,-4.0625 z m 0,2 c 1.108,0 2,0.892 2,2 l 0,2 -4,0 0,-2 c 0,-1.108 0.892,-2 2,-2 z"
       style="fill:#eaeaea;fill-opacity:1" />
  </g>
  <g
     id="system-suspend"
     transform="translate(-19.860294,97.992379)">
    <rect
       ry="0"
       rx="0"
       y="-98"
       x="-60"
       height="32"
       width="32"
       id="rect1127"
       style="opacity:0;fill:#000000;fill-opacity:1;fill-rule:evenodd;stroke:none;stroke-width:2;stroke-linecap:round;stroke-linejoin:round;stroke-miterlimit:4;stroke-dasharray:none;stroke-opacity:1;paint-order:fill markers stroke" />
    <g
       transform="translate(-60,-98)"
       id="g1045">
      <path
         id="path1275"
         overflow="visible"
         d="M 16,1.5 C 8,1.5 1.5,8 1.5,16 1.5,24 8,30.5 16,30.5 24,30.5 30.5,24 30.5,16 30.5,8 24,1.5 16,1.5 Z"
         style="color:#000000;overflow:visible;opacity:0.15;fill:#000000;marker:none;filter:url(#filter1285)"
         inkscape:connector-curvature="0" />
      <path
         inkscape:connector-curvature="0"
         style="color:#000000;overflow:visible;fill:#64728a;stroke-width:1;marker:none"
         d="M 16,2 C 8.2758621,2 2,8.2758621 2,16 2,23.724138 8.2758621,30 16,30 23.724138,30 30,23.724138 30,16 30,8.2758621 23.724138,2 16,2 Z"
         overflow="visible"
         id="path1030" />
      <path
         inkscape:connector-curvature="0"
         style="color:#000000;overflow:visible;opacity:0.5;isolation:auto;mix-blend-mode:normal;solid-color:#000000;solid-opacity:1;fill:none;stroke:none;stroke-linecap:round;stroke-linejoin:round;marker:none"
         d="M 16,1.5 C 8,1.5 1.5,8 1.5,16 1.5,24 8,30.5 16,30.5 24,30.5 30.5,24 30.5,16 30.5,8 24,1.5 16,1.5 Z"
         overflow="visible"
         id="path1032" />
      <path
         inkscape:connector-curvature="0"
         d="m 16,6.5 a 9.5,9.5 0 1 0 0,19 9.5,9.5 0 0 0 0,-19 z m 0,2 A 7.5,7.5 0 0 1 23.438,15 H 8.563 A 7.5,7.5 0 0 1 16,8.5 Z M 8.562,17 H 23.438 A 7.5,7.5 0 0 1 16,23.5 7.5,7.5 0 0 1 8.562,17 Z"
         style="color:#000000;overflow:visible;fill:#ffffff;marker:none"
         overflow="visible"
         id="path1034" />
    </g>
  </g>
  <g
     id="system-reboot"
     transform="translate(-19.860294,97.992379)">
    <rect
       style="opacity:0;fill:#000000;fill-opacity:1;fill-rule:evenodd;stroke:none;stroke-width:2;stroke-linecap:round;stroke-linejoin:round;stroke-miterlimit:4;stroke-dasharray:none;stroke-opacity:1;paint-order:fill markers stroke"
       id="rect1129"
       width="32"
       height="32"
       x="-20"
       y="-98"
       rx="0"
       ry="0" />
    <g
       transform="translate(-20.002,-97.998)"
       id="g927">
      <path
         id="path1289"
         overflow="visible"
         d="M 16.002,1.496 C 8,1.496 1.5,7.996 1.5,15.998 1.5,24 8,30.5 16.002,30.5 c 8.001,0 14.502,-6.5 14.502,-14.502 0,-8.001 -6.5,-14.502 -14.502,-14.502 z"
         style="color:#000000;overflow:visible;opacity:0.15;fill:#000000;fill-opacity:0.99199997;marker:none;filter:url(#filter1307)"
         inkscape:connector-curvature="0" />
      <path
         inkscape:connector-curvature="0"
         style="color:#000000;overflow:visible;opacity:0.98999999;fill:#4da2f3;fill-opacity:0.99199997;stroke-width:1;marker:none"
         d="m 16.002,1.998 c -7.7250035,0 -14,6.2749965 -14,14 0,7.725003 6.2749965,14 14,14 7.724038,0 14,-6.274997 14,-14 0,-7.7240381 -6.274997,-14 -14,-14 z"
         overflow="visible"
         id="path910" />
      <path
         inkscape:connector-curvature="0"
         style="color:#000000;overflow:visible;opacity:0.5;isolation:auto;mix-blend-mode:normal;solid-color:#000000;solid-opacity:1;fill:none;stroke:none;stroke-linecap:round;stroke-linejoin:round;marker:none"
         d="m 16.002,1.498 c -8,0 -14.5,6.5 -14.5,14.5 0,8 6.5,14.5 14.5,14.5 8,0 14.5,-6.5 14.5,-14.5 0,-8 -6.5,-14.5 -14.5,-14.5 z"
         overflow="visible"
         id="path912" />
      <path
         inkscape:connector-curvature="0"
         style="color:#bebebe;overflow:visible;fill:#ffffff;marker:none"
         d="m 16,6.5 v 2.429 a 7.286,7.286 0 1 0 7.286,7.285 H 20.857 A 4.857,4.857 0 1 1 16,11.357 v 2.429 l 6.071,-3.643 z"
         overflow="visible"
         id="path914-3" />
    </g>
  </g>
  <g
     id="system-shutdown"
     transform="translate(-19.860294,97.992379)">
    <rect
       ry="0"
       rx="0"
       y="-98"
       x="20"
       height="32"
       width="32"
       id="rect1131"
       style="opacity:0;fill:#000000;fill-opacity:1;fill-rule:evenodd;stroke:none;stroke-width:2;stroke-linecap:round;stroke-linejoin:round;stroke-miterlimit:4;stroke-dasharray:none;stroke-opacity:1;paint-order:fill markers stroke" />
    <g
       transform="translate(20,-98)"
       id="g1001">
      <path
         id="path1331"
         overflow="visible"
         d="M 16,1.498 C 7.998,1.498 1.498,7.998 1.498,16 c 0,8.002 6.5,14.502 14.502,14.502 8.002,0 14.502,-6.5 14.502,-14.502 C 30.502,7.998 24.002,1.498 16,1.498 Z"
         style="color:#000000;overflow:visible;opacity:0.15;fill:#000000;fill-opacity:0.99199997;marker:none;filter:url(#filter1349)"
         inkscape:connector-curvature="0" />
      <path
         inkscape:connector-curvature="0"
         style="color:#000000;overflow:visible;opacity:1;fill:#d93c3f;fill-opacity:0.99199997;stroke-width:1;marker:none"
         d="M 16,2 C 8.2749965,2 2,8.2749965 2,16 2,23.725003 8.2749965,30 16,30 23.725003,30 30,23.725003 30,16 30,8.2749965 23.725003,2 16,2 Z"
         overflow="visible"
         id="path972" />
      <path
         inkscape:connector-curvature="0"
         style="color:#000000;overflow:visible;opacity:0.5;fill:none;stroke:none;stroke-linecap:round;stroke-linejoin:round;marker:none"
         d="M 16,1.5 C 8,1.5 1.5,8 1.5,16 1.5,24 8,30.5 16,30.5 24,30.5 30.5,24 30.5,16 30.5,8 24,1.5 16,1.5 Z"
         overflow="visible"
         id="path974" />
      <path
         inkscape:connector-curvature="0"
         d="m 11.877,8.776 c -0.204,0 -0.394,0.08 -0.566,0.162 l -0.405,0.243 c -1.984,1.309 -3.382,3.331 -3.8,5.7 0,0.002 -0.04,-0.003 -0.04,0 -0.011,0.065 0.01,0.136 0,0.202 -0.06,0.4 -0.121,0.795 -0.121,1.213 0,4.822 4.054,8.732 9.055,8.732 5.001,0 9.055,-3.91 9.055,-8.732 0,-0.371 -0.033,-0.733 -0.08,-1.092 -0.015,-0.111 -0.062,-0.213 -0.081,-0.323 -0.418,-2.369 -1.816,-4.391 -3.8,-5.7 L 20.689,8.938 C 20.517,8.857 20.327,8.776 20.123,8.776 c -0.736,0 -1.334,0.598 -1.334,1.335 0,0.419 0.223,0.806 0.526,1.05 0.096,0.078 0.208,0.154 0.323,0.203 a 6.32,6.32 0 0 1 2.588,3.517 c 0.007,0.027 0.033,0.053 0.04,0.08 0.135,0.495 0.202,1 0.202,1.537 0,3.445 -2.896,6.226 -6.468,6.226 -3.572,0 -6.468,-2.781 -6.468,-6.226 0,-0.536 0.068,-1.042 0.202,-1.536 0.008,-0.03 0.032,-0.053 0.04,-0.081 a 6.32,6.32 0 0 1 2.588,-3.517 c 0.115,-0.05 0.227,-0.125 0.323,-0.202 0.303,-0.245 0.526,-0.632 0.526,-1.051 0,-0.737 -0.598,-1.335 -1.334,-1.335 z M 16,5.623 a 1.29,1.29 0 0 1 1.294,1.294 v 7.762 A 1.29,1.29 0 0 1 16,15.972 1.29,1.29 0 0 1 14.706,14.679 V 6.917 A 1.29,1.29 0 0 1 16,5.623 Z"
         style="color:#000000;overflow:visible;fill:#ffffff;marker:none"
         overflow="visible"
         id="path976" />
    </g>
  </g>
  <g
     id="system-suspend-hibernate"
     transform="translate(-19.860294,97.992379)">
    <rect
       style="opacity:0;fill:#000000;fill-opacity:1;fill-rule:evenodd;stroke:none;stroke-width:2;stroke-linecap:round;stroke-linejoin:round;stroke-miterlimit:4;stroke-dasharray:none;stroke-opacity:1;paint-order:fill markers stroke"
       id="rect1133"
       width="32"
       height="32"
       x="60"
       y="-98"
       rx="0"
       ry="0" />
    <g
       transform="translate(60,-1188.52)"
       id="g1053">
      <circle
         id="circle1433"
         cy="1106.52"
         cx="15.999999"
         style="opacity:0.15;fill:#000000;fill-opacity:1;stroke-width:0.99999988;filter:url(#filter1443)"
         r="14.488899" />
      <circle
         style="fill:#9575cd;fill-opacity:1;stroke-width:0.99999994"
         cx="16"
         cy="1106.52"
         r="14"
         id="circle1047" />
      <path
         style="fill:#ffffff;stroke-width:2;stroke-linecap:round;stroke-linejoin:round;stroke-opacity:0.528"
         inkscape:connector-curvature="0"
         d="M 16.667,1100.52 A 0.665,0.665 0 0 0 16,1101.186 v 2 c 0,0.37 0.297,0.667 0.667,0.667 H 20 l -4,3.333 v 2.667 c 0,0.37 0.297,0.667 0.667,0.667 h 6.666 c 0.37,0 0.667,-0.298 0.667,-0.667 v -2 a 0.665,0.665 0 0 0 -0.667,-0.667 H 20 l 4,-3.333 v -2.667 a 0.665,0.665 0 0 0 -0.667,-0.666 z m -8,6 A 0.665,0.665 0 0 0 8,1107.186 v 0.667 c 0,0.37 0.298,0.685 0.667,0.667 H 10 l -2,2 v 1.333 c 0,0.37 0.297,0.667 0.667,0.667 H 12 c 0.37,0 0.667,-0.298 0.667,-0.667 v -0.667 A 0.665,0.665 0 0 0 12,1110.52 h -1.333 l 2,-2 v -1.334 A 0.665,0.665 0 0 0 12,1106.52 Z"
         id="path1051" />
    </g>
  </g>
  <g
     id="system-log-out"
     transform="translate(-19.860294,97.992379)">
    <rect
       ry="0"
       rx="0"
       y="-98"
       x="98"
       height="32"
       width="32"
       id="rect1135"
       style="opacity:0;fill:#000000;fill-opacity:1;fill-rule:evenodd;stroke:none;stroke-width:2;stroke-linecap:round;stroke-linejoin:round;stroke-miterlimit:4;stroke-dasharray:none;stroke-opacity:1;paint-order:fill markers stroke" />
    <g
       transform="translate(98,-98)"
       id="g908">
      <path
         id="path1375"
         overflow="visible"
         style="color:#000000;overflow:visible;opacity:0.15;fill:#000000;marker:none;filter:url(#filter1385)"
         d="M 16,1.5 C 8,1.5 1.5,8 1.5,16 1.5,24 8,30.5 16,30.5 24,30.5 30.5,24 30.5,16 30.5,8 24,1.5 16,1.5 Z"
         inkscape:connector-curvature="0" />
      <path
         inkscape:connector-curvature="0"
         d="M 16,2 C 8.2758621,2 2,8.2758621 2,16 2,23.724138 8.2758621,30 16,30 23.724138,30 30,23.724138 30,16 30,8.2758621 23.724138,2 16,2 Z"
         style="color:#000000;overflow:visible;fill:#f88230;stroke-width:1;marker:none"
         overflow="visible"
         id="path891" />
      <path
         inkscape:connector-curvature="0"
         d="M 16,1.5 C 8,1.5 1.5,8 1.5,16 1.5,24 8,30.5 16,30.5 24,30.5 30.5,24 30.5,16 30.5,8 24,1.5 16,1.5 Z"
         style="color:#000000;overflow:visible;opacity:0.35;fill:none;stroke:none;stroke-linecap:round;stroke-linejoin:round;marker:none"
         overflow="visible"
         id="path893" />
      <path
         inkscape:connector-curvature="0"
         d="M 17,9 25,16.027 17,23 V 18 H 8 v -3.928 h 9 z"
         style="overflow:visible;fill:#ffffff;marker:none"
         overflow="visible"
         id="path895" />
    </g>
  </g>
  <g
     id="system-lock-screen"
     transform="translate(-19.860294,97.992379)">
    <rect
       style="opacity:0;fill:#000000;fill-opacity:1;fill-rule:evenodd;stroke:none;stroke-width:2;stroke-linecap:round;stroke-linejoin:round;stroke-miterlimit:4;stroke-dasharray:none;stroke-opacity:1;paint-order:fill markers stroke"
       id="rect1209"
       width="32"
       height="32"
       x="140"
       y="-98"
       rx="0"
       ry="0" />
    <g
       transform="translate(-2.5,-46.5)"
       id="g1125">
      <path
         id="path1389"
         overflow="visible"
         d="m 158.5,-50 c -8,0 -14.5,6.5 -14.5,14.5 0,8 6.5,14.5 14.5,14.5 8,0 14.5,-6.5 14.5,-14.5 0,-8 -6.5,-14.5 -14.5,-14.5 z"
         style="color:#000000;overflow:visible;opacity:0.15;fill:#000000;marker:none;filter:url(#filter1399)"
         inkscape:connector-curvature="0" />
      <path
         inkscape:connector-curvature="0"
         style="color:#000000;overflow:visible;fill:#77cb75;stroke-width:1;marker:none"
         d="m 158.5,-49.5 c -7.72414,0 -14,6.275862 -14,14 0,7.724138 6.27586,14 14,14 7.72414,0 14,-6.275862 14,-14 0,-7.724138 -6.27586,-14 -14,-14 z"
         overflow="visible"
         id="path866" />
      <path
         inkscape:connector-curvature="0"
         style="color:#000000;overflow:visible;opacity:0.5;isolation:auto;mix-blend-mode:normal;solid-color:#000000;solid-opacity:1;fill:none;stroke:none;stroke-linecap:round;stroke-linejoin:round;marker:none"
         d="m 158.5,-50 c -8,0 -14.5,6.5 -14.5,14.5 0,8 6.5,14.5 14.5,14.5 8,0 14.5,-6.5 14.5,-14.5 0,-8 -6.5,-14.5 -14.5,-14.5 z"
         overflow="visible"
         id="path868" />
      <path
         style="opacity:1;fill:#ffffff;fill-opacity:1;fill-rule:evenodd;stroke:none;stroke-width:2;stroke-linecap:round;stroke-linejoin:round;stroke-miterlimit:4;stroke-dasharray:none;stroke-opacity:1;paint-order:fill markers stroke"
         d="m 158,-44 c -2.216,0 -4,1.811875 -4,4.0625 V -37 h -1 c -0.554,0 -1,0.446 -1,1 v 7 c 0,0.554 0.446,1 1,1 h 5 1 5 c 0.554,0 1,-0.446 1,-1 v -7 c 0,-0.554 -0.446,-1 -1,-1 h -1 v -2.9375 C 163,-42.188125 161.216,-44 159,-44 Z m 0,2 h 1 c 1.108,0 2,0.892 2,2 v 3 h -5 v -3 c 0,-1.108 0.892,-2 2,-2 z"
         id="rect1107"
         inkscape:connector-curvature="0"
         sodipodi:nodetypes="sscssssccsssscssssssccss" />
    </g>
  </g>
  <g
     id="system-switch-user"
     transform="translate(-19.860294,97.992379)">
    <rect
       ry="0"
       rx="0"
       y="-98"
       x="183"
       height="32"
       width="32"
       id="rect1211"
       style="opacity:0;fill:#000000;fill-opacity:1;fill-rule:evenodd;stroke:none;stroke-width:2;stroke-linecap:round;stroke-linejoin:round;stroke-miterlimit:4;stroke-dasharray:none;stroke-opacity:1;paint-order:fill markers stroke" />
    <g
       transform="translate(183,-1188.52)"
       id="g1075">
      <circle
         id="circle1447"
         r="14.444497"
         cy="1106.52"
         cx="16"
         style="opacity:0.15;fill:#000000;fill-opacity:1;stroke-width:1;filter:url(#filter1457)" />
      <circle
         style="fill:#81c784;fill-opacity:1;stroke-width:1"
         cx="16"
         cy="1106.52"
         r="14.00002"
         id="circle1067" />
      <g
         style="fill:#ffffff;stroke-width:2;stroke-linecap:round;stroke-linejoin:round"
         id="g1073">
        <path
           inkscape:connector-curvature="0"
           d="m 14.52,1107.02 a 0.5,0.5 0 0 1 0.48,0.5 v 2 h 7 c 0.277,0 0.5,0.223 0.5,0.5 v 2 c 0,0.276 -0.223,0.5 -0.5,0.5 h -7 v 2 a 0.5,0.5 0 0 1 -0.806,0.394 l -4.5,-3.5 a 0.5,0.5 0 0 1 0,-0.79 l 4.5,-3.499 a 0.503,0.503 0 0 1 0.326,-0.105 z m 2.96,-9 a 0.5,0.5 0 0 0 -0.48,0.5 v 2 h -7 c -0.277,0 -0.5,0.223 -0.5,0.5 v 2 c 0,0.277 0.223,0.5 0.5,0.5 h 7 v 2 a 0.5,0.5 0 0 0 0.806,0.394 l 4.5,-3.5 a 0.5,0.5 0 0 0 0,-0.789 l -4.5,-3.5 a 0.503,0.503 0 0 0 -0.326,-0.105 z"
           id="path1071" />
      </g>
    </g>
  </g>
</svg>
