<svg width="32" height="32" version="1.1" xmlns="http://www.w3.org/2000/svg">
 <defs>
  <style id="current-color-scheme" type="text/css">.ColorScheme-Text { color:#dedede; } .ColorScheme-Highlight { color:#5294e2; } .ColorScheme-ButtonBackground { color:#dedede; }</style>
  <filter id="a" x="-.036" y="-.036" width="1.072" height="1.072" color-interpolation-filters="sRGB">
   <feGaussianBlur stdDeviation="0.43466698"/>
  </filter>
 </defs>
 <g id="view-refresh" transform="matrix(0 -1 -1 0 -218.84 494.56)" enable-background="new">
  <rect transform="scale(-1)" x="-481" y="258.97" width="16" height="16" color="#bebebe" fill="none"/>
  <path transform="matrix(0 -1 -1 0 1079 -14.938)" d="m252.06 598.02-3.5625 2.9824 3.5606 3.0176v-2c2.2091 0 4 1.7909 4 4s-1.7909 4-4 4-4-1.7909-4-4c0-6e-3 -4e-3 -0.0113-4e-3 -0.0176h-1.9922c-1.1e-4 6e-3 -4e-3 0.0113-4e-3 0.0176 0 0.0333 4e-3 0.0665 8e-3 0.0996 0.0538 3.2672 2.7141 5.9004 5.9941 5.9004 3.3137 0 6-2.6863 6-6s-2.6863-6-6-6v-2z" fill="#eaeaea"/>
 </g>
 <g id="view-history">
  <rect width="32" height="32" rx="0" ry="0" opacity="0" stroke-width="2" style="paint-order:fill markers stroke"/>
  <circle cx="16" cy="16" r="14.489" filter="url(#a)" opacity=".15"/>
  <circle cx="16" cy="16" r="14" fill="#9575cd"/>
  <path d="m16.25 7.25a8.75 8.75 0 0 0-8.75 8.75h-2.5l3.75 5 3.75-5h-2.5a6.25 6.25 0 0 1 6.25-6.25 6.25 6.25 0 0 1 6.25 6.25 6.25 6.25 0 0 1-6.25 6.25v2.5a8.75 8.75 0 0 0 8.75-8.75 8.75 8.75 0 0 0-8.75-8.75zm-1.25 4.375v5.3345l4.0284 2.6855 0.69335-1.04-3.4716-2.3145v-4.6655z" enable-background="new" fill="#f9f9f9"/>
 </g>
</svg>
