<svg width="220" height="212" version="1.0" xmlns="http://www.w3.org/2000/svg" xmlns:xlink="http://www.w3.org/1999/xlink">
 <defs>
  <style id="current-color-scheme" type="text/css">.ColorScheme-Text {
        color:#31363b;
        stop-color:#31363b;
      }
      .ColorScheme-Background {
        color:#eff0f1;
        stop-color:#eff0f1;
      }
      .ColorScheme-Highlight {
        color:#3daee9;
        stop-color:#3daee9;
      }
      .ColorScheme-ViewText {
        color:#31363b;
        stop-color:#31363b;
      }
      .ColorScheme-ViewBackground {
        color:#fcfcfc;
        stop-color:#fcfcfc;
      }
      .ColorScheme-ViewHover {
        color:#93cee9;
        stop-color:#93cee9;
      }
      .ColorScheme-ViewFocus{
        color:#3daee9;
        stop-color:#3daee9;
      }
      .ColorScheme-ButtonText {
        color:#31363b;
        stop-color:#31363b;
      }
      .ColorScheme-ButtonBackground {
        color:#eff0f1;
        stop-color:#eff0f1;
      }
      .ColorScheme-ButtonHover {
        color:#93cee9;
        stop-color:#93cee9;
      }
      .ColorScheme-ButtonFocus{
        color:#3daee9;
        stop-color:#3daee9;
      }</style>
  <linearGradient id="n" x1="50.181" x2="47" y1="35" y2="35" gradientTransform="matrix(.9 0 0 1.1034 4.7 987.98)" gradientUnits="userSpaceOnUse" xlink:href="#a"/>
  <linearGradient id="a">
   <stop stop-opacity=".353" offset="0"/>
   <stop stop-opacity=".137" offset=".45"/>
   <stop stop-opacity="0" offset="1"/>
  </linearGradient>
  <linearGradient id="m" x1="53" x2="53" y1="21.514" y2="16.5" gradientTransform="translate(-1,991.36)" gradientUnits="userSpaceOnUse" xlink:href="#a"/>
  <linearGradient id="l" x1="50.181" x2="47" y1="35" y2="35" gradientTransform="matrix(-.9 0 0 1.1034 131.3 987.98)" gradientUnits="userSpaceOnUse" xlink:href="#a"/>
  <linearGradient id="k" x1="53" x2="53" y1="53" y2="59" gradientTransform="matrix(1 0 0 .83333 -1 1003.2)" gradientUnits="userSpaceOnUse" xlink:href="#a"/>
  <linearGradient id="b">
   <stop offset="0"/>
   <stop stop-opacity="0" offset="1"/>
  </linearGradient>
  <linearGradient id="q" x1="21" x2="21" y1="1048.4" y2="1050.4" gradientTransform="matrix(1,0,0,2,0,-1050.4)" gradientUnits="userSpaceOnUse" xlink:href="#b"/>
  <radialGradient id="i" cx="52" cy="20.518" r="3" gradientTransform="matrix(-1.7928e-6,-2.3333,-1,7.6805e-7,106.52,131.33)" gradientUnits="userSpaceOnUse" xlink:href="#a"/>
  <radialGradient id="j" cx="53.802" cy="23.591" r="3" gradientTransform="matrix(3.981e-7,-1.3333,-1.6667,-4.9298e-7,123.32,77.736)" gradientUnits="userSpaceOnUse" xlink:href="#a"/>
  <radialGradient id="g" cx="53.027" cy="52.74" r="3" gradientTransform="matrix(.92011 -.0018406 -.0023338 -1.1667 37.572 1107)" gradientUnits="userSpaceOnUse" xlink:href="#a"/>
  <radialGradient id="h" cx="52.776" cy="51.595" r="3" gradientTransform="matrix(1.6667,-2.1836e-7,-2.1836e-7,-1.6667,-3.9603,1133.4)" gradientUnits="userSpaceOnUse" xlink:href="#a"/>
  <radialGradient id="e" cx="52" cy="20.518" r="3" gradientTransform="matrix(1.7928e-6,-2.3333,1,7.6805e-7,29.482,131.33)" gradientUnits="userSpaceOnUse" xlink:href="#a"/>
  <radialGradient id="f" cx="53.802" cy="23.591" r="3" gradientTransform="matrix(-3.981e-7,-1.3333,1.6667,-4.9298e-7,12.682,77.736)" gradientUnits="userSpaceOnUse" xlink:href="#a"/>
  <radialGradient id="c" cx="53.027" cy="52.74" r="3" gradientTransform="matrix(-.92011 -.0018406 .0023338 -1.1667 98.428 1107)" gradientUnits="userSpaceOnUse" xlink:href="#a"/>
  <radialGradient id="d" cx="52.776" cy="51.595" r="3" gradientTransform="matrix(-1.6667,-2.1836e-7,2.1836e-7,-1.6667,139.96,1133.4)" gradientUnits="userSpaceOnUse" xlink:href="#a"/>
  <radialGradient id="o" cx="6" cy="1050.5" r="2.5" gradientTransform="matrix(-1.2,4.5871e-5,-6.1162e-5,-1.6,10.264,2727.2)" gradientUnits="userSpaceOnUse" xlink:href="#b"/>
  <radialGradient id="p" cx="31.585" cy="1047.4" r="2.5" gradientTransform="matrix(1.5684e-5,1.6,-1.1999,1.1764e-5,1295.8,995.81)" gradientUnits="userSpaceOnUse" xlink:href="#b"/>
 </defs>
 <path id="pressed-center" d="m197 56v-32h-32v32z" fill="#00ce99"/>
 <g id="pressed-left" transform="translate(112 4)">
  <path d="m53 52v-32h-5v32z" fill="#00ce99"/>
 </g>
 <g id="pressed-bottom" transform="matrix(1 0 0 .71428 112 19.572)" stroke-width="1.1832">
  <path d="m85 51h-32v4.1999h32z" fill="#00ce99"/>
  <path d="m85 51h-32v6.9999h32z" opacity="0"/>
 </g>
 <g id="pressed-top" transform="translate(112 2)">
  <path d="m53 22h32v-3h-32z" fill="#00ce99"/>
 </g>
 <g id="pressed-bottomleft" transform="matrix(1 0 0 .71429 158 18.857)" stroke-width="1.1832">
  <path d="m7 59h-3c-1.5 0-2-1.75-2-7v1.47e-4h5z" opacity="0"/>
  <path d="m7 56.2h-3c-1.4088 0-2-0.71941-2-2.8v-1.4l5 1.04e-4z" fill="#00ce99"/>
 </g>
 <g id="pressed-topleft" transform="translate(158 7)">
  <path d="m7 14h-3c-1.5 0-2 0.5-2 2v1h5z" fill="#00ce99"/>
 </g>
 <use id="pressed-right" transform="matrix(-1 0 0 1 362 0)" width="100%" height="100%" xlink:href="#pressed-left"/>
 <use id="pressed-bottomright" transform="matrix(-1 0 0 1 362 0)" width="100%" height="100%" xlink:href="#pressed-bottomleft"/>
 <use id="pressed-topright" transform="matrix(-1 0 0 1 362 0)" width="100%" height="100%" xlink:href="#pressed-topleft"/>
 <g id="toolbutton-hover-right" transform="matrix(-.8 0 0 1 139.44 83.025)" stroke-width="1.118">
  <path transform="matrix(-1.25 0 0 1 503.5 73)" d="m362-53v32h4v-32h-2z" fill="#fff" opacity=".15" stroke-width="1"/>
 </g>
 <g id="toolbutton-hover-bottomright" transform="matrix(.8 0 0 .8 67.444 -701.06)" stroke-width="1.25">
  <g transform="matrix(-1,0,0,1,44,993.36)" stroke-width="1.25">
   <path transform="matrix(-1.25 0 0 1.25 457.5 78)" d="m362-20v4c2.216 0 4-1.784 4-4h-2z" fill="#fff" opacity=".15" stroke-width="1"/>
  </g>
 </g>
 <g id="toolbutton-hover-left" transform="matrix(.8 0 0 1 23.844 83.025)" stroke-width="1.118">
  <path transform="matrix(1.25 0 0 1 -359 73)" d="m324-53v32h4v-32h-2z" fill="#fff" opacity=".15" stroke-width="1"/>
 </g>
 <rect id="toolbutton-hover-hint-left-margin" transform="rotate(-90)" x="-121.03" y="60.644" width="2" height="4" fill="#4e9a06"/>
 <g id="toolbutton-hover-bottom" transform="matrix(1 0 0 .57079 60.644 -461.22)" fill="#565656" stroke-width="1.3236">
  <g transform="translate(-48,994.36)" stroke-width="1.3236">
   <path transform="matrix(1 0 0 1.752 -276 87.039)" d="m329-20v4h32v-4z" fill="#fff" opacity=".15" stroke-width=".99999"/>
  </g>
 </g>
 <g id="toolbutton-hover-bottomleft" transform="matrix(.8 0 0 .8 62.244 -701.06)" stroke-width="1.25">
  <g transform="translate(-2,993.36)" stroke-width="1.25">
   <path transform="matrix(1.25 0 0 1.25 -405 78)" d="m324-20c0 2.216 1.784 4 4 4v-4h-2z" fill="#fff" opacity=".15" stroke-width="1"/>
  </g>
 </g>
 <g id="toolbutton-hover-top" transform="matrix(1 0 0 .8 60.644 -706.26)" stroke-width="1.118">
  <g transform="translate(-48,988.36)" stroke-width="1.118">
   <path transform="matrix(1 0 0 1.25 -276 89.5)" d="m329-58v4h32v-4z" fill="#fff" opacity=".15" stroke-width="1"/>
  </g>
 </g>
 <g id="toolbutton-hover-topleft" transform="matrix(1.3333 0 0 1.3333 60.644 -1245.1)" stroke-width=".75001">
  <g transform="translate(-2,993.36)" stroke-width=".75001">
   <path transform="matrix(.75 0 0 .75 -241 57.5)" d="m328-58c-2.216 0-4 1.784-4 4h4v-2z" fill="#fff" opacity=".15" stroke-width="1"/>
  </g>
 </g>
 <g id="toolbutton-hover-topright" transform="matrix(.8 0 0 .8 67.444 -706.26)" stroke-width="1.25">
  <g transform="matrix(-1,0,0,1,44,993.36)" stroke-width="1.25">
   <path transform="matrix(-1.25 0 0 1.25 457.5 84.5)" d="m362-58v4h4c0-2.216-1.784-4-4-4z" fill="#fff" opacity=".15" stroke-width="1"/>
  </g>
 </g>
 <path id="toolbutton-hover-center" d="m97.644 135.03v-32h-32v32z" fill="#fff" opacity=".15"/>
 <g fill="#4e9a06">
  <rect id="toolbutton-hover-hint-top-margin" x="80.644" y="98.025" width="2" height="4"/>
  <rect id="toolbutton-hover-hint-right-margin" transform="rotate(-90)" x="-120.03" y="98.644" width="2" height="4"/>
  <rect id="toolbutton-hover-hint-bottom-margin" x="80.644" y="136.03" width="2" height="4"/>
 </g>
 <g id="toolbutton-pressed-right" transform="matrix(-.8 0 0 1 194.44 83.025)" stroke-width="1.118">
  <path transform="matrix(-1.25 0 0 1 572.25 73)" d="m417-53v32h4v-32h-2z" fill="#00ce99" stroke-width="1"/>
 </g>
 <g id="toolbutton-pressed-bottomright" transform="matrix(.8 0 0 .8 122.44 -701.06)" stroke-width="1.25">
  <g transform="matrix(-1,0,0,1,44,993.36)" stroke-width="1.25">
   <path transform="matrix(-1.25 0 0 1.25 526.25 78)" d="m417-20v4c2.216 0 4-1.784 4-4h-2z" fill="#00ce99" stroke-width="1"/>
  </g>
 </g>
 <g id="toolbutton-pressed-left" transform="matrix(.8 0 0 1 78.844 83.025)" stroke-width="1.118">
  <path transform="matrix(1.25 0 0 1 -427.75 73)" d="m379-53v32h4v-32h-2z" fill="#00ce99" stroke-width="1"/>
 </g>
 <rect id="toolbutton-pressed-hint-left-margin" transform="rotate(-90)" x="-121.03" y="115.64" width="2" height="4" fill="#4e9a06"/>
 <g id="toolbutton-pressed-bottom" transform="matrix(1 0 0 .57079 115.64 -461.22)" fill="#565656" stroke-width="1.3236">
  <g transform="translate(-48,994.36)" stroke-width="1.3236">
   <path transform="matrix(1 0 0 1.752 -331 87.039)" d="m384-20v4h32v-4z" fill="#00ce99" stroke-width=".99999"/>
  </g>
 </g>
 <g id="toolbutton-pressed-bottomleft" transform="matrix(.8 0 0 .8 117.24 -701.06)" stroke-width="1.25">
  <g transform="translate(-2,993.36)" stroke-width="1.25">
   <path transform="matrix(1.25 0 0 1.25 -473.75 78)" d="m379-20c0 2.216 1.784 4 4 4v-4h-2z" fill="#00ce99" stroke-width="1"/>
  </g>
 </g>
 <g id="toolbutton-pressed-top" transform="matrix(1 0 0 .8 115.64 -706.26)" stroke-width="1.118">
  <g transform="translate(-48,988.36)" stroke-width="1.118">
   <path transform="matrix(1 0 0 1.25 -331 89.5)" d="m384-58v4h32v-4z" fill="#00ce99" stroke-width="1"/>
  </g>
 </g>
 <g id="toolbutton-pressed-topleft" transform="matrix(1.3333 0 0 1.3333 115.64 -1245.1)" stroke-width=".75001">
  <g transform="translate(-2,993.36)" stroke-width=".75001">
   <path transform="matrix(.75 0 0 .75 -282.25 57.5)" d="m383-58c-2.216 0-4 1.784-4 4h4v-2z" fill="#00ce99" stroke-width="1"/>
  </g>
 </g>
 <g id="toolbutton-pressed-topright" transform="matrix(.8 0 0 .8 122.44 -706.26)" stroke-width="1.25">
  <g transform="matrix(-1,0,0,1,44,993.36)" stroke-width="1.25">
   <path transform="matrix(-1.25 0 0 1.25 526.25 84.5)" d="m417-58v4h4c0-2.216-1.784-4-4-4z" fill="#00ce99" stroke-width="1"/>
  </g>
 </g>
 <path id="toolbutton-pressed-center" d="m152.64 135.03v-32h-32v32z" fill="#00ce99"/>
 <g fill="#4e9a06">
  <rect id="toolbutton-pressed-hint-top-margin" x="135.64" y="98.025" width="2" height="4"/>
  <rect id="toolbutton-pressed-hint-right-margin" transform="rotate(-90)" x="-120.03" y="153.64" width="2" height="4"/>
  <rect id="toolbutton-pressed-hint-bottom-margin" x="135.64" y="136.03" width="2" height="4"/>
 </g>
 <g id="focus-left" transform="translate(65,-989.36)">
  <path d="m47 1013.4v32h2v-32z" fill="url(#n)"/>
  <path d="m52 1045.4v-32h-3v32z" fill="#565e5c"/>
 </g>
 <g id="focus-top" transform="translate(65,-989.36)">
  <path d="m84 1009.4h-32v1h32z" fill="url(#m)"/>
  <path d="m52 1013.4h32v-3h-32z" fill="#565e5c"/>
  <path d="m52 1010.4v1h32v-1z" fill="#fff" opacity=".05"/>
 </g>
 <g id="focus-right" transform="translate(65,-989.36)">
  <path d="m89 1013.4v32h-2v-32z" fill="url(#l)"/>
  <path d="m84 1045.4v-32h3v32z" fill="#565e5c"/>
 </g>
 <path id="focus-center" d="m149 56v-32h-32v32z" fill="#565e5c"/>
 <g id="focus-bottom" transform="translate(65,-989.36)">
  <path d="m52 1052.4h32v-5h-32z" fill="url(#k)"/>
  <path d="m84 1045.4h-32v2h32z" fill="#565e5c"/>
 </g>
 <g id="focus-bottomleft" transform="translate(65,-989.36)">
  <path d="m47 1045.4v7h5v-5h-1c-1.5 0-2-0.5-2-2z" fill="url(#c)" opacity=".6"/>
  <path d="m47 1045.4v7h5v-5h-1c-1.5 0-2-0.5-2-2z" fill="url(#d)"/>
  <path d="m52 1047.4h-1c-1.5 0-2-0.5-2-2h3z" fill="#565e5c"/>
 </g>
 <g id="focus-topleft" transform="translate(65,-989.36)">
  <path transform="translate(-7.6294e-6,1006.4)" d="m47 3v4h2v-1c0-1.5 0.5-2 2-2h1v-1z" fill="url(#e)"/>
  <path transform="translate(-7.6294e-6,1006.4)" d="m47 3v4h2v-1c0-1.5 0.5-2 2-2h1v-1z" fill="url(#f)"/>
  <path d="m52 1010.4h-1c-1.5 0-2 0.5-2 2v1h3z" fill="#565e5c"/>
  <path d="m51 1010.4c-1.5 0-2 0.5-2 2v1c0-1.5 0.5-2 2-2h1v-1z" fill="#fff" opacity=".05"/>
 </g>
 <g id="focus-bottomright" transform="translate(65,-989.36)">
  <path d="m89 1045.4v7h-5v-5h1c1.5 0 2-0.5 2-2z" fill="url(#g)" opacity=".6"/>
  <path d="m89 1045.4v7h-5v-5h1c1.5 0 2-0.5 2-2z" fill="url(#h)"/>
  <path d="m84 1047.4h1c1.5 0 2-0.5 2-2h-3z" fill="#565e5c"/>
 </g>
 <g id="focus-topright" transform="translate(65,-989.36)">
  <path transform="translate(-7.6294e-6,1006.4)" d="m84 3v1h1c1.5 0 2 0.5 2 2v1h2v-4z" fill="url(#i)"/>
  <path transform="translate(-7.6294e-6,1006.4)" d="m84 3v1h1c1.5 0 2 0.5 2 2v1h2v-4z" fill="url(#j)"/>
  <path d="m84 1010.4h1c1.5 0 2 0.5 2 2v1h-3z" fill="#565e5c"/>
  <path d="m85 1010.4c1.5 0 2 0.5 2 2v1c0-1.5-0.5-2-2-2h-1v-1z" fill="#fff" opacity=".05"/>
 </g>
 <g id="hover-left" transform="translate(20,-989.36)">
  <path d="m47 1013.4v32h2v-32z" fill="url(#n)"/>
  <path d="m52 1045.4v-32h-3v32z" fill="#565e5c"/>
 </g>
 <g id="hover-top" transform="translate(20,-989.36)">
  <path d="m84 1009.4h-32v1h32z" fill="url(#m)"/>
  <path d="m52 1013.4h32v-3h-32z" fill="#565e5c"/>
  <path d="m52 1010.4v1h32v-1z" fill="#fff" opacity=".05"/>
 </g>
 <g id="hover-right" transform="translate(20,-989.36)">
  <path d="m89 1013.4v32h-2v-32z" fill="url(#l)"/>
  <path d="m84 1045.4v-32h3v32z" fill="#565e5c"/>
 </g>
 <g id="normal-right" transform="matrix(-1 0 0 1 108 4)" fill="#424242">
  <path d="m51 52v-32h-3v32z" fill="#4c5351"/>
 </g>
 <g id="normal-bottomright" transform="translate(18,-990.36)">
  <path d="m42 1046.4c0 1.5-0.52041 1.2534-2 1.5l-0.99998 0.5v2c2.1589-0.3132 2.9733-0.5985 3-2.5v-1z" fill="url(#p)" opacity=".3"/>
  <g transform="matrix(-1,0,0,1,44,993.36)" fill="#424242">
   <path d="m5 55h-0.99998c-1.5 0-2-0.5-2-2v4.2e-5h3z" fill="#4c5351"/>
  </g>
 </g>
 <path id="normal-center" d="m57 56v-32h-32v32z" fill="#4c5351"/>
 <g id="normal-left" transform="translate(-26 4)" fill="#424242">
  <path d="m51 52v-32h-3v32z" fill="#4c5351"/>
 </g>
 <g id="normal-bottom" transform="translate(20,-990.36)">
  <path d="m5 1046.4v4h32v-4z" fill="url(#q)" opacity=".3"/>
  <g transform="translate(-48,994.36)" fill="#424242">
   <path d="m85 52h-32v2h32z" fill="#4c5351"/>
  </g>
 </g>
 <g id="normal-bottomleft" transform="translate(22,-990.36)">
  <path d="m-7.6e-6 1046.4v1.5c0.53714 2.5133 0.71024 2.1184 3 2.5v-2l-1-0.5c-1.3416-0.6708-2 0-2-1.5z" fill="url(#o)" opacity=".3"/>
  <g transform="translate(-2,993.36)" fill="#424242">
   <path d="m5 55h-1c-1.5 0-2-0.5-2-2v4.2e-5h3z" fill="#4c5351"/>
  </g>
 </g>
 <g id="normal-top" transform="translate(20,-986.36)">
  <g transform="translate(-48,988.36)">
   <path d="m53 22h32v-3h-32z" fill="#4c5351"/>
  </g>
  <path d="m5 1007.4v1h32v-1z" fill="#fff" opacity=".05"/>
 </g>
 <g id="normal-topleft" transform="translate(22,-986.36)">
  <g transform="translate(-2,993.36)">
   <path d="m5 14h-1c-1.5 0-2 0.5-2 2v1h3z" fill="#4c5351"/>
  </g>
  <path d="m2 1007.4c-1.5 0-2 0.5-2 2v1c0-1.5 0.5-2 2-2h1v-1z" fill="#fff" opacity=".05"/>
 </g>
 <g id="normal-topright" transform="translate(18,-986.36)">
  <g transform="matrix(-1,0,0,1,44,993.36)">
   <path d="m5 14h-0.99998c-1.5 0-2 0.5-2 2v1h3z" fill="#4c5351"/>
  </g>
  <path d="m40 1007.4c1.5 0 2 0.5 2 2v1c0-1.5-0.5-2-2-2h-0.99998v-1z" fill="#fff" opacity=".05"/>
 </g>
 <g fill="#9a06ff">
  <rect id="focusss-hint-top-margin" x="131" y="19.998" width="2" height="1"/>
  <rect id="focusss-hint-right-margin" transform="rotate(-90)" x="-38.998" y="152" width="2" height="2"/>
  <rect id="focusss-hint-left-margin" transform="rotate(-90)" x="-38.998" y="112" width="2" height="2"/>
  <rect id="focusss-hint-bottom-margin" x="132" y="59.998" width="2" height="3"/>
  <rect id="hint-stretch-borders" x="20" y="12.998" width="2" height="2" ry="0"/>
  <rect id="hover-hint-top-margin" x="85" y="19.998" width="2" height="1"/>
  <rect id="hover-hint-right-margin" transform="rotate(-90)" x="-38.998" y="107" width="2" height="2"/>
  <rect id="hover-hint-left-margin" transform="rotate(-90)" x="-38.998" y="67" width="2" height="2"/>
 </g>
 <path id="hover-center" d="m104 56v-32h-32v32z" fill="#565e5c"/>
 <g id="hover-bottom" transform="translate(20,-989.36)">
  <path d="m52 1052.4h32v-5h-32z" fill="url(#k)"/>
  <path d="m84 1045.4h-32v2h32z" fill="#565e5c"/>
 </g>
 <g id="hover-bottomleft" transform="translate(20,-989.36)">
  <path d="m47 1045.4v7h5v-5h-1c-1.5 0-2-0.5-2-2z" fill="url(#c)" opacity=".6"/>
  <path d="m47 1045.4v7h5v-5h-1c-1.5 0-2-0.5-2-2z" fill="url(#d)"/>
  <path d="m52 1047.4h-1c-1.5 0-2-0.5-2-2h3z" fill="#565e5c"/>
 </g>
 <g id="hover-topleft" transform="translate(20,-989.36)">
  <path transform="translate(-7.6294e-6,1006.4)" d="m47 3v4h2v-1c0-1.5 0.5-2 2-2h1v-1z" fill="url(#e)"/>
  <path transform="translate(-7.6294e-6,1006.4)" d="m47 3v4h2v-1c0-1.5 0.5-2 2-2h1v-1z" fill="url(#f)"/>
  <path d="m52 1010.4h-1c-1.5 0-2 0.5-2 2v1h3z" fill="#565e5c"/>
  <path d="m51 1010.4c-1.5 0-2 0.5-2 2v1c0-1.5 0.5-2 2-2h1v-1z" fill="#fff" opacity=".05"/>
 </g>
 <g id="hover-bottomright" transform="translate(20,-989.36)">
  <path d="m89 1045.4v7h-5v-5h1c1.5 0 2-0.5 2-2z" fill="url(#g)" opacity=".6"/>
  <path d="m89 1045.4v7h-5v-5h1c1.5 0 2-0.5 2-2z" fill="url(#h)"/>
  <path d="m84 1047.4h1c1.5 0 2-0.5 2-2h-3z" fill="#565e5c"/>
 </g>
 <g id="hover-topright" transform="translate(20,-989.36)">
  <path transform="translate(-7.6294e-6,1006.4)" d="m84 3v1h1c1.5 0 2 0.5 2 2v1h2v-4z" fill="url(#i)"/>
  <path transform="translate(-7.6294e-6,1006.4)" d="m84 3v1h1c1.5 0 2 0.5 2 2v1h2v-4z" fill="url(#j)"/>
  <path d="m84 1010.4h1c1.5 0 2 0.5 2 2v1h-3z" fill="#565e5c"/>
  <path d="m85 1010.4c1.5 0 2 0.5 2 2v1c0-1.5-0.5-2-2-2h-1v-1z" fill="#fff" opacity=".05"/>
 </g>
 <rect id="hover-hint-bottom-margin" x="85" y="59.998" width="2" height="3" fill="#9a06ff"/>
</svg>
