<?xml version="1.0" encoding="UTF-8" standalone="no"?>
<svg
   xmlns:dc="http://purl.org/dc/elements/1.1/"
   xmlns:cc="http://creativecommons.org/ns#"
   xmlns:rdf="http://www.w3.org/1999/02/22-rdf-syntax-ns#"
   xmlns:svg="http://www.w3.org/2000/svg"
   xmlns="http://www.w3.org/2000/svg"
   xmlns:xlink="http://www.w3.org/1999/xlink"
   xmlns:sodipodi="http://sodipodi.sourceforge.net/DTD/sodipodi-0.dtd"
   xmlns:inkscape="http://www.inkscape.org/namespaces/inkscape"
   width="121"
   height="56"
   version="1.1"
   viewBox="0 0 121 56"
   id="svg177"
   sodipodi:docname="translucentbackground.svg"
   inkscape:version="0.92.4 (5da689c313, 2019-01-14)">
  <metadata
     id="metadata181">
    <rdf:RDF>
      <cc:Work
         rdf:about="">
        <dc:format>image/svg+xml</dc:format>
        <dc:type
           rdf:resource="http://purl.org/dc/dcmitype/StillImage" />
      </cc:Work>
    </rdf:RDF>
  </metadata>
  <sodipodi:namedview
     pagecolor="#ffffff"
     bordercolor="#666666"
     borderopacity="1"
     objecttolerance="10"
     gridtolerance="10"
     guidetolerance="10"
     inkscape:pageopacity="0"
     inkscape:pageshadow="2"
     inkscape:window-width="1366"
     inkscape:window-height="706"
     id="namedview179"
     showgrid="false"
     inkscape:zoom="12.085486"
     inkscape:cx="49.066228"
     inkscape:cy="38.348379"
     inkscape:window-x="0"
     inkscape:window-y="0"
     inkscape:window-maximized="1"
     inkscape:current-layer="svg177" />
  <defs
     id="defs30">
    <linearGradient
       id="a">
      <stop
         offset="0"
         id="stop2" />
      <stop
         stop-opacity="0"
         offset="1"
         id="stop4" />
    </linearGradient>
    <linearGradient
       id="q"
       x1="-912.36"
       x2="-909.36"
       y1="-35"
       y2="-35"
       gradientUnits="userSpaceOnUse"
       xlink:href="#a" />
    <linearGradient
       id="p"
       x1="15"
       x2="12"
       y1="10"
       y2="10"
       gradientUnits="userSpaceOnUse"
       xlink:href="#a" />
    <radialGradient
       id="e"
       cx="23.7"
       cy="912.47"
       r="6"
       gradientTransform="matrix(4.3054e-7 -.33333 .33333 4.3054e-7 -232.16 14.9)"
       gradientUnits="userSpaceOnUse"
       xlink:href="#a" />
    <linearGradient
       id="o"
       x1="16"
       x2="16"
       y1="8"
       y2="5"
       gradientTransform="translate(58)"
       gradientUnits="userSpaceOnUse"
       xlink:href="#a" />
    <linearGradient
       id="n"
       x1="55"
       x2="58"
       y1="10"
       y2="10"
       gradientUnits="userSpaceOnUse"
       xlink:href="#a" />
    <radialGradient
       id="d"
       cx="55.393"
       cy="910.26"
       r="6"
       gradientTransform="matrix(.33333 2.4113e-6 -2.4113e-6 .33333 95.538 -296.42)"
       gradientUnits="userSpaceOnUse">
      <stop
         stop-opacity=".6"
         offset="0"
         id="stop12" />
      <stop
         stop-opacity="0"
         offset="1"
         id="stop14" />
    </radialGradient>
    <linearGradient
       id="m"
       x1="53"
       x2="53"
       y1="8"
       y2="5"
       gradientTransform="translate(58)"
       gradientUnits="userSpaceOnUse"
       xlink:href="#a" />
    <linearGradient
       id="l"
       x1="952.36"
       x2="955.36"
       y1="-35"
       y2="-35"
       gradientUnits="userSpaceOnUse"
       xlink:href="#a" />
    <linearGradient
       id="k"
       x1="19"
       x2="19"
       y1="48"
       y2="51"
       gradientTransform="translate(58)"
       gradientUnits="userSpaceOnUse"
       xlink:href="#a" />
    <radialGradient
       id="c"
       cx="9.1429"
       cy="948.86"
       r="6"
       gradientTransform="matrix(-.33333 -1.5267e-6 1.5267e-6 -.33333 75.046 365.29)"
       gradientUnits="userSpaceOnUse"
       xlink:href="#a" />
    <linearGradient
       id="j"
       x1="15"
       x2="12"
       y1="46"
       y2="46"
       gradientUnits="userSpaceOnUse"
       xlink:href="#a" />
    <linearGradient
       id="i"
       x1="53"
       x2="53"
       y1="48"
       y2="51"
       gradientTransform="translate(58)"
       gradientUnits="userSpaceOnUse"
       xlink:href="#a" />
    <radialGradient
       id="b"
       cx="55.75"
       cy="943.61"
       r="6"
       gradientTransform="matrix(1.0353e-7 .33333 -.33333 1.0353e-7 428.54 30.417)"
       gradientUnits="userSpaceOnUse"
       xlink:href="#a" />
    <linearGradient
       id="h"
       x1="55"
       x2="58"
       y1="46"
       y2="46"
       gradientUnits="userSpaceOnUse"
       xlink:href="#a" />
    <linearGradient
       id="g"
       x1="-15"
       x2="-12"
       y1="932.36"
       y2="932.36"
       gradientUnits="userSpaceOnUse"
       xlink:href="#a" />
    <linearGradient
       id="f"
       x1="55"
       x2="58"
       y1="932.36"
       y2="932.36"
       gradientUnits="userSpaceOnUse"
       xlink:href="#a" />
    <style
       id="current-color-scheme"
       type="text/css">.ColorScheme-Text {
        color:#31363b;
      }
      .ColorScheme-Background {
        color:#eff0f1;
      }
      .ColorScheme-Highlight {
        color:#3daee9;
      }
      .ColorScheme-ViewText {
        color:#31363b;
      }
      .ColorScheme-ViewBackground {
        color:#fcfcfc;
      }
      .ColorScheme-ViewHover {
        color:#93cee9;
      }
      .ColorScheme-ViewFocus{
        color:#3daee9;
      }
      .ColorScheme-ButtonText {
        color:#31363b;
      }
      .ColorScheme-ButtonBackground {
        color:#eff0f1;
      }
      .ColorScheme-ButtonHover {
        color:#93cee9;
      }
      .ColorScheme-ButtonFocus{
        color:#3daee9;
      }</style>
    <style
       type="text/css"
       id="style28">.ColorScheme-Text {
        color:#31363b;
      }
      .ColorScheme-Background {
        color:#eff0f1;
      }
      .ColorScheme-Highlight {
        color:#3daee9;
      }
      .ColorScheme-ViewText {
        color:#31363b;
      }
      .ColorScheme-ViewBackground {
        color:#fcfcfc;
      }
      .ColorScheme-ViewHover {
        color:#93cee9;
      }
      .ColorScheme-ViewFocus{
        color:#3daee9;
      }
      .ColorScheme-ButtonText {
        color:#31363b;
      }
      .ColorScheme-ButtonBackground {
        color:#eff0f1;
      }
      .ColorScheme-ButtonHover {
        color:#93cee9;
      }
      .ColorScheme-ButtonFocus{
        color:#3daee9;
      }</style>
  </defs>
  <g
     transform="translate(0 -904.36)"
     id="g175">
    <rect
       id="hint-tile-center"
       y="904.36"
       width="5"
       height="5"
       fill="#f60" />
    <g
       id="top">
      <rect
         class="ColorScheme-Background"
         transform="matrix(0,-1,-1,0,0,0)"
         x="-916.36"
         y="-51"
         width="6"
         height="32"
         fill="#212329"
         id="rect33"
         style="opacity:0.9" />
    </g>
    <g
       id="topleft">
      <path
         class="ColorScheme-Background"
         transform="translate(0 904.36)"
         d="m14 6c-0.55399 0-1 0.44601-1 1v4 1h4 1 1v-1-4-1h-1-1-3z"
         fill="#212329"
         id="path36"
         style="opacity:0.9" />
    </g>
    <g
       id="topright">
      <path
         class="ColorScheme-Background"
         transform="translate(0 904.36)"
         d="m51 6v1 4 1h1 1 3 1v-1-4c0-0.55399-0.44601-1-1-1h-3-1-1z"
         fill="#212329"
         id="path39"
         style="opacity:0.9" />
    </g>
    <g
       id="bottom">
      <rect
         class="ColorScheme-Background"
         transform="rotate(90)"
         x="948.36"
         y="-51"
         width="6"
         height="32"
         fill="#212329"
         id="rect42"
         style="opacity:0.9" />
    </g>
    <g
       id="bottomleft">
      <path
         class="ColorScheme-Background"
         d="m19 954.36v-1-4-1h-1-1-3-1v1 4c0 0.55399 0.44601 1 1 1h3 1 1z"
         fill="#212329"
         id="path45"
         style="opacity:0.9" />
    </g>
    <g
       id="bottomright">
      <path
         class="ColorScheme-Background"
         d="m51 954.36v-1-4-1h1 1 3 1v1 4c0 0.55399-0.44601 1-1 1h-3-1-1z"
         fill="#212329"
         id="path48"
         style="opacity:0.9" />
    </g>
    <g
       id="left">
      <rect
         class="ColorScheme-Background"
         transform="scale(-1,1)"
         x="-19"
         y="916.36"
         width="6"
         height="32"
         fill="#212329"
         id="rect51"
         style="opacity:0.9" />
    </g>
    <g
       id="right">
      <rect
         class="ColorScheme-Background"
         x="51"
         y="916.36"
         width="6"
         height="32"
         fill="#212329"
         id="rect54"
         style="opacity:0.9" />
    </g>
    <g
       id="center">
      <rect
         x="19"
         y="916.36"
         width="32"
         height="32"
         fill="none"
         id="rect57" />
      <rect
         class="ColorScheme-Background"
         x="19"
         y="916.36"
         width="32"
         height="32"
         fill="#212329"
         id="rect59"
         style="opacity:0.9" />
    </g>
    <g
       fill="#f0f"
       id="g66">
      <rect
         id="hint-top-margin"
         x="33"
         y="916.36"
         width="4"
         height="6" />
      <rect
         id="hint-bottom-margin"
         x="33"
         y="942.36"
         width="4"
         height="6" />
      <rect
         id="hint-right-margin"
         transform="rotate(90)"
         x="930.36"
         y="-51"
         width="4"
         height="6" />
      <rect
         id="hint-left-margin"
         transform="rotate(90)"
         x="930.36"
         y="-25"
         width="4"
         height="6" />
    </g>
    <g
       id="shadow-top"
       transform="translate(58)">
      <rect
         transform="matrix(0,-1,-1,0,0,0)"
         x="-916.36"
         y="-51"
         width="6"
         height="32"
         fill="none"
         id="rect68" />
      <rect
         transform="matrix(0,-1,-1,0,0,0)"
         x="-910.36"
         y="-51"
         width="6"
         height="32"
         fill="url(#q)"
         id="rect70" />
      <rect
         transform="matrix(0,-1,-1,0,0,0)"
         x="-911.36"
         y="-51"
         width=".99998"
         height="32"
         fill="none"
         id="rect72" />
    </g>
    <g
       id="shadow-topleft"
       transform="translate(58)">
      <g
         fill-rule="evenodd"
         id="g81">
        <path
           transform="translate(0 904.36)"
           d="m7 7v1 4h6v-4-1h-6z"
           fill="url(#p)"
           id="path75" />
        <path
           transform="translate(-58 904.36)"
           d="m65 0v7h6v-1h1v-6h-7z"
           fill="url(#e)"
           opacity=".6"
           id="path77" />
        <path
           transform="translate(-58 904.36)"
           d="m72 0v6h1 4v-6h-4-1z"
           fill="url(#o)"
           id="path79" />
      </g>
      <g
         fill="none"
         id="g89">
        <rect
           transform="scale(-1,1)"
           x="-19"
           y="910.36"
           width="6"
           height="6"
           ry=".99998"
           id="rect83" />
        <rect
           transform="scale(-1,1)"
           x="-19"
           y="910.36"
           width="2"
           height="6"
           ry="0"
           id="rect85" />
        <rect
           transform="scale(-1,1)"
           x="-18"
           y="914.36"
           width="5"
           height="2"
           id="rect87" />
      </g>
    </g>
    <g
       id="shadow-topright"
       transform="translate(58)">
      <g
         fill-rule="evenodd"
         id="g98">
        <path
           transform="translate(0 904.36)"
           d="m57 7v1 4h6v-4-1h-6z"
           fill="url(#n)"
           id="path92" />
        <path
           transform="translate(-58 904.36)"
           d="m114 0v6h1v1h6v-7h-7z"
           fill="url(#d)"
           id="path94" />
        <path
           transform="translate(-58 904.36)"
           d="m109 0v6h4 1v-6h-1-4z"
           fill="url(#m)"
           id="path96" />
      </g>
      <g
         fill="none"
         id="g106">
        <rect
           x="51"
           y="910.36"
           width="6"
           height="6"
           ry=".99998"
           id="rect100" />
        <rect
           x="51"
           y="910.36"
           width="2"
           height="6"
           ry="0"
           id="rect102" />
        <rect
           x="52"
           y="914.36"
           width="5"
           height="2"
           id="rect104" />
      </g>
    </g>
    <g
       id="shadow-bottom"
       transform="translate(58)">
      <rect
         transform="rotate(90)"
         x="948.36"
         y="-51"
         width="6"
         height="32"
         fill="none"
         id="rect109" />
      <rect
         transform="rotate(90)"
         x="954.36"
         y="-51"
         width="6"
         height="32"
         fill="url(#l)"
         id="rect111" />
      <rect
         transform="rotate(90)"
         x="953.36"
         y="-51"
         width="1"
         height="32"
         fill="none"
         id="rect113" />
    </g>
    <g
       id="shadow-bottomleft"
       transform="translate(58)">
      <g
         fill-rule="evenodd"
         id="g122">
        <path
           transform="translate(-58 904.36)"
           d="m72 50v6h1 4v-6h-4-1z"
           fill="url(#k)"
           id="path116" />
        <path
           transform="translate(-58 904.36)"
           d="m65 49v7h7v-6h-1v-1h-6z"
           fill="url(#c)"
           opacity=".6"
           id="path118" />
        <path
           transform="translate(0 904.36)"
           d="m7 44v4 1h6v-1-4h-6z"
           fill="url(#j)"
           id="path120" />
      </g>
      <g
         fill="none"
         id="g130">
        <rect
           transform="scale(-1)"
           x="-19"
           y="-954.36"
           width="6"
           height="6"
           ry=".99972"
           id="rect124" />
        <rect
           transform="scale(-1)"
           x="-19"
           y="-954.36"
           width="2"
           height="6"
           ry="0"
           id="rect126" />
        <rect
           transform="scale(-1)"
           x="-18"
           y="-950.36"
           width="5"
           height="2"
           id="rect128" />
      </g>
    </g>
    <g
       id="shadow-bottomright"
       transform="translate(58)">
      <g
         fill-rule="evenodd"
         id="g139">
        <path
           transform="translate(-58 904.36)"
           d="m109 50v6h4 1v-6h-1-4z"
           fill="url(#i)"
           id="path133" />
        <path
           transform="translate(-58 904.36)"
           d="m115 49v1h-1v6h7v-7h-6z"
           fill="url(#b)"
           opacity=".6"
           id="path135" />
        <path
           transform="translate(0 904.36)"
           d="m57 44v4 1h6v-1-4h-6z"
           fill="url(#h)"
           id="path137" />
      </g>
      <g
         fill="none"
         id="g147">
        <rect
           transform="scale(1,-1)"
           x="51"
           y="-954.36"
           width="6"
           height="6"
           ry=".99972"
           id="rect141" />
        <rect
           transform="scale(1,-1)"
           x="51"
           y="-954.36"
           width="2"
           height="6"
           ry="0"
           id="rect143" />
        <rect
           transform="scale(1,-1)"
           x="52"
           y="-950.36"
           width="5"
           height="2"
           id="rect145" />
      </g>
    </g>
    <g
       id="shadow-left"
       transform="translate(58)">
      <rect
         transform="scale(-1,1)"
         x="-19"
         y="916.36"
         width="6"
         height="32"
         fill="none"
         id="rect150" />
      <rect
         transform="scale(-1,1)"
         x="-13"
         y="916.36"
         width="6"
         height="32"
         fill="url(#g)"
         id="rect152" />
      <rect
         transform="scale(-1,1)"
         x="-14"
         y="916.36"
         width="1"
         height="32"
         fill="none"
         id="rect154" />
    </g>
    <g
       id="shadow-right"
       transform="translate(58)">
      <rect
         x="51"
         y="916.36"
         width="6"
         height="32"
         fill="none"
         id="rect157" />
      <rect
         x="57"
         y="916.36"
         width="6"
         height="32"
         fill="url(#f)"
         id="rect159" />
      <rect
         x="56"
         y="916.36"
         width="1"
         height="32"
         fill="none"
         id="rect161" />
    </g>
    <g
       id="shadow-center"
       transform="translate(58)"
       fill="none">
      <rect
         x="19"
         y="916.36"
         width="32"
         height="32"
         id="rect164" />
      <rect
         x="19"
         y="916.36"
         width="32"
         height="32"
         id="rect166" />
    </g>
    <g
       fill="#f0f"
       id="g173">
      <rect
         id="shadow-hint-top-margin"
         x="91"
         y="904.36"
         width="4"
         height="6" />
      <rect
         id="shadow-hint-bottom-margin"
         x="91"
         y="954.36"
         width="4"
         height="6" />
      <rect
         id="shadow-hint-right-margin"
         transform="rotate(90)"
         x="930.36"
         y="-121"
         width="4"
         height="6" />
      <rect
         id="shadow-hint-left-margin"
         transform="rotate(90)"
         x="930.36"
         y="-71"
         width="4"
         height="6" />
    </g>
  </g>
</svg>
