<?xml version="1.0" encoding="UTF-8" standalone="no"?>
<svg
   xmlns:dc="http://purl.org/dc/elements/1.1/"
   xmlns:cc="http://creativecommons.org/ns#"
   xmlns:rdf="http://www.w3.org/1999/02/22-rdf-syntax-ns#"
   xmlns:svg="http://www.w3.org/2000/svg"
   xmlns="http://www.w3.org/2000/svg"
   xmlns:sodipodi="http://sodipodi.sourceforge.net/DTD/sodipodi-0.dtd"
   xmlns:inkscape="http://www.inkscape.org/namespaces/inkscape"
   id="svg4379"
   width="200"
   height="200"
   version="1.1"
   viewBox="0 0 200 200"
   sodipodi:docname="kde.svg"
   inkscape:version="0.92.4 (5da689c313, 2019-01-14)">
  <metadata
     id="metadata41">
    <rdf:RDF>
      <cc:Work
         rdf:about="">
        <dc:format>image/svg+xml</dc:format>
        <dc:type
           rdf:resource="http://purl.org/dc/dcmitype/StillImage" />
        <dc:title></dc:title>
      </cc:Work>
    </rdf:RDF>
  </metadata>
  <sodipodi:namedview
     pagecolor="#dfe2e4"
     bordercolor="#666666"
     borderopacity="1"
     objecttolerance="10"
     gridtolerance="10"
     guidetolerance="10"
     inkscape:pageopacity="0"
     inkscape:pageshadow="2"
     inkscape:window-width="1366"
     inkscape:window-height="712"
     id="namedview39"
     showgrid="false"
     inkscape:zoom="1.84375"
     inkscape:cx="54.084887"
     inkscape:cy="112.75973"
     inkscape:window-x="0"
     inkscape:window-y="28"
     inkscape:window-maximized="1"
     inkscape:current-layer="svg4379">
    <inkscape:grid
       type="xygrid"
       id="grid839" />
  </sodipodi:namedview>
  <defs
     id="defs4381">
    <filter
       inkscape:collect="always"
       style="color-interpolation-filters:sRGB"
       id="filter837"
       x="-0.072"
       width="1.144"
       y="-0.072"
       height="1.144">
      <feGaussianBlur
         inkscape:collect="always"
         stdDeviation="4.5"
         id="feGaussianBlur839" />
    </filter>
  </defs>
  <path
     sodipodi:nodetypes="sssss"
     inkscape:connector-curvature="0"
     style="opacity:0.12000002;fill:#000000;fill-opacity:1;fill-rule:evenodd;stroke:none;stroke-width:24.00000191;stroke-linecap:round;stroke-linejoin:round;stroke-miterlimit:4;stroke-dasharray:none;stroke-opacity:0.29411765;paint-order:fill markers stroke;filter:url(#filter837)"
     d="m 100,15 c -41.421357,0 -75,33.578644 -75,75 0,41.42136 33.578643,75 75,75 41.42136,0 75,-33.57864 75,-75 0,-41.421356 -33.57864,-75 -75,-75 z"
     id="path815" />
  <path
     inkscape:connector-curvature="0"
     id="circle846"
     d="m 100,15 c -41.421357,0 -75,33.578644 -75,75 0,41.42136 33.578643,75 75,75 41.42136,0 75,-33.57864 75,-75 0,-41.421356 -33.57864,-75 -75,-75 z m -0.429688,31.011719 0.306641,0.30664 V 60 l -1.839844,1.226562 v 0.306641 l 0.919922,0.306641 c 0,-0.613498 0.204283,-0.919922 0.613281,-0.919922 h 0.306641 v 0.613281 l -7.791015,2.699219 -5.03125,3.865234 -2.392579,-0.613281 c 0.368098,0.899796 0.757018,1.390858 1.166016,1.472656 0,-0.572596 0.204283,-0.859375 0.613281,-0.859375 v 0.552735 c -3.394683,4.08998 -5.582858,9.263815 -6.564453,15.521484 l -0.306641,-0.306641 h -0.919921 c 0,0.408998 0.306425,0.613282 0.919921,0.613282 l 0.306641,0.30664 v 0.613282 c 0,2.372188 -0.306424,3.558593 -0.919922,3.558593 h -0.30664 l 0.30664,0.306641 v 0.613281 l -0.552734,0.552735 -0.919922,-0.306641 -0.306641,0.306641 v 0.30664 l 0.306641,0.306641 h 0.306641 l 0.859375,-0.306641 c 0.736196,0.736197 1.431541,3.823999 2.085937,9.263672 l -0.859375,0.85938 h -0.306641 v 0.30664 h 0.613282 v -0.30664 c 0.981596,0 1.472656,0.89962 1.472656,2.69921 l -0.306641,0.30664 c 0.490799,0.1227 2.085771,2.6173 4.785157,7.48438 0,0.4499 2.086033,2.02523 6.257812,4.72461 l 5.091797,1.22656 v 0.85938 l -0.306641,0.30664 v 0.30664 l -0.30664,-0.30664 h -0.613282 v 0.91992 h -0.613281 v -0.30664 l 0.306641,-0.30664 v -0.30664 l -1.779297,-0.30664 c -0.572597,1.79959 -1.65686,2.69921 -3.251953,2.69922 v 0.61328 c 0.572597,0 0.859375,0.38891 0.859375,1.16601 v 0.30664 l 1.226562,-0.30664 -0.30664,-0.30664 v -0.24609 c 0.981596,0 1.472656,-0.20428 1.472656,-0.61328 v -0.61328 L 93.865234,120 h 0.306641 l 1.226563,-0.30664 h 0.552734 l 2.085937,0.55273 V 120 c 0.817996,0.2863 1.226563,0.57308 1.226563,0.85938 l -0.306641,0.30664 v 0.30664 h 0.306641 l -0.306641,0.30664 v 0.85937 l 0.306641,0.30664 v 0.30664 l -0.306641,0.30664 h -0.30664 l -0.613282,-0.61328 c 0,0.40901 -0.286777,0.61328 -0.859375,0.61328 l -0.30664,1.47266 h 0.30664 l 1.166016,-0.30664 c 0,0.40899 0.408566,0.61328 1.226562,0.61328 v 0.61328 l -0.613281,1.47266 h -0.30664 l -1.166016,-0.61328 -1.226563,0.91992 v 0.61328 h 0.613282 v 1.16602 l -0.613282,0.61328 -1.166015,0.30664 v -0.91992 h 0.552734 v -0.61329 l -0.859375,-0.24609 c 1.186094,-1.47239 1.779297,-2.5763 1.779297,-3.3125 -0.449898,0 -1.145243,0.79749 -2.085937,2.39258 l 0.30664,0.30664 h -0.30664 l -0.919922,-0.61328 H 93.3125 l -0.613281,0.61328 c 0,0.5726 0.388919,0.85937 1.166015,0.85937 l -0.30664,0.91993 0.30664,1.47265 -0.30664,-0.30664 H 93.3125 v 0.30664 c 0.572597,0 0.961517,0.69535 1.166016,2.08594 h -0.613282 v 0.30664 l -5.33789,-1.16602 0.30664,-1.5332 -1.779296,-0.55273 -0.613282,0.55273 c 0,-0.77709 -0.306425,-1.16601 -0.919922,-1.16601 h -0.30664 c 0,0.77709 -0.38892,1.16601 -1.166016,1.16601 -3.599182,-1.10429 -7.87339,-4.17244 -12.822266,-9.20312 l 0.306641,-1.22657 -0.306641,-0.30664 h -0.30664 l -0.613281,0.61329 -4.478516,-6.25782 0.306641,-0.91992 h -0.306641 c -0.736197,0 -2.024744,-2.67923 -3.865234,-8.03711 0,-1.79959 0.695344,-2.69922 2.085937,-2.69922 l -0.30664,-1.47265 c 0.408997,0 0.613281,0.30642 0.613281,0.91992 l 0.30664,-0.30664 h 0.306641 l 0.306641,0.30664 v -0.91992 h 0.859375 l 0.613281,0.61328 -0.919922,0.85937 0.306641,0.30664 v 0.61328 l -0.306641,-0.30664 h -0.246094 l -0.30664,2.08594 1.472656,0.30664 v -0.30664 c 1.226994,0 2.228763,0.5932 3.005859,1.7793 l -0.30664,0.30664 0.30664,0.30664 h 0.552735 l -0.552735,-1.7793 H 70 l 0.919922,0.30664 v -0.30664 l 0.919922,0.61328 0.246094,-0.30664 h 0.613281 v 0.61328 l 0.613281,-0.61328 v -0.30664 l -0.306641,-0.30664 v -0.30664 l 0.306641,-0.30664 -0.306641,-0.30664 h -0.30664 c 0,0.818 -0.286778,1.22656 -0.859375,1.22656 h -0.306641 c -0.940695,-0.98159 -1.63604,-1.47265 -2.085937,-1.47265 l -0.613282,0.55273 h -1.166015 c -0.408998,-0.0818 -0.817565,-0.57286 -1.226563,-1.47266 0,-0.98159 0.491062,-1.77908 1.472656,-2.39257 l 0.306641,0.30664 v -0.30664 l 1.226563,0.61328 0.30664,-0.30664 v -0.30664 L 69.447266,101.16602 70,100 69.753906,99.693359 70,99.386719 h -0.552734 l -0.306641,0.30664 h -0.306641 l -0.919922,-0.30664 v 0.30664 l -0.552734,0.613281 V 100 l -1.779297,0.61328 h -2.699219 v 0.55274 h -1.533203 c -0.777096,0 -1.166015,-1.492835 -1.166015,-4.47852 l 1.472656,0.919922 h 0.919922 v -0.613281 l -0.306641,-1.472657 0.919922,-0.919922 h -0.306641 l -1.226562,0.919922 -0.552734,-1.226562 0.246093,-0.246094 -1.166015,-0.613281 c 0.163599,1.186094 0.367883,1.779297 0.613281,1.779297 l -0.306641,0.919922 c -0.613496,0 -0.919921,-2.188175 -0.919922,-6.564454 0,-4.785275 0.306426,-7.177734 0.919922,-7.177734 l -0.30664,-0.30664 v -0.306641 c 0.572597,-6.09407 3.149692,-12.84323 7.730468,-20.246094 8.670758,-10.347648 19.222712,-15.521484 31.65625,-15.521484 z m 4.171878,0 c 9.12066,0 17.95585,3.476723 26.5039,10.429687 5.35788,5.603273 8.44568,10.286047 9.26368,14.048828 l -0.61329,0.859375 v 0.613282 l 0.61329,0.613281 v -1.839844 c 0.2863,0 0.59272,0.491061 0.91992,1.472656 l -15.82813,7.484375 -3.25195,-2.945312 0.24609,-0.306641 v -0.30664 l -3.55859,-5.951172 c -2.94479,-3.599182 -6.72794,-6.093781 -11.34961,-7.484375 -2.37219,-0.286298 -3.55859,-0.675217 -3.55859,-1.166016 V 46.625 Z m 20.85937,9.816406 v 0.306641 c 0.409,0 0.61328,0.306424 0.61328,0.919922 h 0.55274 v -1.226563 z m -49.203122,4.785156 -1.226563,0.613281 v 0.859376 c 0.899795,-0.449898 1.410503,-0.940959 1.533203,-1.472657 z m 61.105472,11.962891 c 0,0.572597 -0.49107,0.859375 -1.47266,0.859375 v 0.306641 h 1.22656 l 1.7793,-0.613282 v -0.552734 h -0.61328 l -0.30664,0.246094 h -0.30664 z m -70.675785,1.779297 v 0.613281 h 0.919922 v -0.613281 z m 13.742187,5.951172 c 0,0.408998 -0.306425,0.613281 -0.919921,0.613281 v 0.552734 h 0.30664 l 1.226563,-1.166015 z m -5.951171,0.613281 v 0.552734 h 0.859375 v -0.552734 z m -7.791016,2.945312 v 0.613282 l 0.613281,0.613281 0.306641,-0.306641 v -0.919922 z m 2.699219,1.226563 v 0.613281 h 0.919922 v -0.30664 z m -4.785156,1.166015 v 0.613282 l 0.919921,0.30664 v -0.30664 z m 6.564453,0.613282 v 0.30664 l 0.30664,0.859375 c -0.613497,0.490798 -1.513125,0.797223 -2.699219,0.919922 0,-0.490798 -0.388919,-0.797223 -1.166015,-0.919922 l -0.306641,0.306641 v 0.306641 c 1.595092,0 2.392578,1.001769 2.392578,3.005859 h -0.30664 c -0.408998,0 -0.613282,0.286778 -0.613282,0.859375 -1.554192,0.695297 -2.332031,1.206004 -2.332031,1.533203 h 0.246094 c 1.799591,-0.408997 2.699219,-1.021847 2.699219,-1.839844 l 1.779297,-0.246093 v 0.246093 l 0.30664,-0.246093 h 0.613281 l -0.30664,0.246093 v 0.306641 l 0.30664,0.306641 0.306641,-0.306641 h 0.306641 l 0.552734,0.613281 -0.30664,0.306641 h 1.533203 V 93.128906 L 73.3125,92.208984 h 0.613281 v 0.613282 h 0.859375 l -0.30664,-0.306641 v -0.552734 h 0.30664 l 1.226563,0.859375 0.859375,-0.306641 -0.306641,-0.306641 v -0.246093 l 0.306641,-1.533203 h -1.779297 v -0.552735 h -0.306641 v 0.552735 c -1.390592,-0.286299 -2.085937,-0.777361 -2.085937,-1.472657 v -0.30664 l -0.306641,0.30664 h -0.30664 C 71.390641,88.507133 70.89958,87.811789 70.613281,86.871094 Z m -5.644532,3.251953 v 0.919922 l 0.919922,-0.306641 v -0.613281 l -0.30664,0.306641 H 64.96875 Z m -0.30664,3.925781 v 0.552734 h 1.226562 L 64.96875,94.048828 Z m 3.865234,0 -0.306641,1.166016 c 0.408998,0 0.613282,-0.306425 0.613282,-0.919922 v -0.246094 z m -0.552734,1.472656 -0.613281,0.613282 v 0.30664 l 0.859374,-0.919922 z m 10.982422,2.085938 -1.472657,0.30664 0.306641,0.306641 v 0.306641 l 1.472656,-0.306641 v -0.613281 z m -2.332032,0.613281 -0.919921,0.306641 0.30664,0.859375 1.166016,-1.166016 z m -3.61914,0.552735 -1.166016,0.919921 -0.919922,-0.30664 h -0.30664 v 0.30664 l 2.085937,1.166021 h 0.306641 l -0.306641,-1.472661 0.613281,-0.613281 z m 3.005859,2.392582 c 0,0.61349 -0.204282,0.91992 -0.613281,0.91992 l -1.166016,-0.30664 v 0.30664 l -0.30664,-0.30664 H 73.3125 l -1.226562,1.77929 0.30664,1.22657 h 0.306641 c 0,-0.818 0.491061,-1.43085 1.472656,-1.83985 h 0.919922 v 0.30664 h -0.613281 l 0.919922,1.53321 h 1.472656 l 0.30664,-0.30664 h 0.306641 l 1.166016,1.16601 h 0.30664 c -1.226994,-1.96319 -2.106975,-2.94531 -2.638672,-2.94531 v -1.5332 z m 46.197262,0.18359 17.17774,9.20312 c -1.5951,3.27199 -3.63989,6.60532 -6.13477,10 -8.79346,8.95705 -18.63042,13.43555 -29.50976,13.43555 V 133.375 c 0.57258,0 0.85937,-0.18463 0.85937,-0.55273 h -1.16601 v -4.17188 h 0.61328 v -1.83984 h 0.85937 l 0.91992,0.61328 h 0.30664 l 1.16602,-0.61328 -1.7793,-2.39258 v -1.16602 c 0,-2.12678 0.79749,-3.31319 2.39258,-3.55859 l -0.30664,-0.30664 0.30664,-0.30664 v -1.16602 l -1.47265,0.2461 v -0.85938 l 2.63867,-0.61328 v 0.30664 l -0.2461,0.30664 v 0.30664 h 0.55274 c 0,-0.818 1.59497,-2.02405 4.78515,-3.61914 2.3722,-1.96319 3.5586,-3.25174 3.5586,-3.86523 h 2.08594 v -0.30664 l -0.2461,-0.30664 v -0.2461 l -0.30664,0.2461 h -0.61328 v -0.2461 c 0,-0.3272 0.89963,-1.02254 2.69922,-2.08594 v -0.91992 l -0.30664,-1.47265 0.30664,-0.30664 h 0.55273 l 0.30664,0.30664 0.30664,-0.30664 h 0.30664 c 0.6135,0 0.91993,0.28677 0.91993,0.85937 h 0.24609 v -1.16601 h -1.47266 c -0.40899,0 -0.61328,-0.30643 -0.61328,-0.91993 z m -60.798824,1.04297 h 0.246093 l 1.226563,0.30664 v 0.24609 l -0.919922,0.91992 h -0.306641 z m 9.203125,0.55273 L 70,103.86523 l 0.306641,0.91993 h 0.30664 l 0.306641,-0.91993 0.919922,0.30665 v -0.91993 z m -6.871094,3.00586 -0.246094,0.30664 v 0.30664 l 2.945313,1.7793 v -0.61328 c 0,-0.6953 -0.286778,-1.2885 -0.859375,-1.7793 l -0.306641,0.30664 h -0.306641 z m 60.859373,0 0.61328,0.61328 h 0.30664 l -0.61328,-0.61328 z m -42.332029,1.22656 -0.919922,0.2461 v 0.30664 h 0.919922 z m 40.859379,1.7793 c -0.40901,0 -0.61329,0.28678 -0.61329,0.85938 l 0.30664,0.91992 h 0.30665 l 0.61328,-0.61328 v -0.61328 z m 5.64453,0 -0.61328,0.55274 0.30664,0.30664 -0.30664,0.30664 h 0.91992 z m -44.724612,0.55274 v 0.61328 l 0.613281,0.61328 0.552734,-0.61328 -0.859375,-0.61328 z m -11.34961,1.22656 -0.552734,0.61328 1.166015,0.24609 0.613282,-0.85937 z m 51.595702,0.30664 v 0.30664 l 0.30664,0.24609 h 0.91992 v -0.24609 z m -2.94531,0.30664 c -0.40899,0 -0.61328,0.28678 -0.61328,0.85937 l 0.30664,0.91993 h 0.30664 l 0.55273,-0.61328 v -0.61329 z m -38.773439,1.47266 0.306641,0.30664 v 0.30664 l -0.306641,0.85937 0.306641,0.30664 h 0.552734 c 0,-1.02249 -0.286777,-1.6157 -0.859375,-1.77929 z m 2.392578,1.47265 -1.533203,1.47266 2.699219,-0.85938 v -0.30664 z m -11.65625,0.61328 0.306641,1.16602 h 0.613281 l 0.552735,-0.55274 v -0.61328 l -0.306641,0.30664 -0.246094,-0.30664 z m -4.785156,1.7793 v 0.91992 h 0.306641 l 0.919922,-0.30664 -0.613282,-0.61328 z m 11.042969,0 v 1.22656 h 0.30664 l 0.306641,-1.22656 z m 13.435547,0 0.30664,0.30664 v 0.30664 h -0.613281 v 0.61328 l 0.919922,-0.61328 0.246094,0.30664 v -0.30664 L 93.005859,116.6875 Z M 70,117.30078 v 0.85938 l 0.306641,0.30664 h 0.30664 v -0.30664 l -0.30664,-0.85938 z m 13.742188,0.30664 v 1.16602 c -10e-7,0.98159 0.491061,1.67694 1.472656,2.08594 h 0.613281 v -1.16602 z m -11.042969,1.47266 -0.613281,0.61328 0.613281,0.55273 L 73.005859,120 v 0.24609 L 73.925781,120 l -0.30664,-0.91992 z m 4.785156,0.61328 -1.166016,0.55273 0.552735,0.61329 h 0.613281 l 0.306641,-1.16602 z M 103.74219,120 h 0.55273 l -0.24609,1.47266 h -0.30664 l -0.61328,-0.61328 v -0.30665 z m -27.730471,0.85938 -0.919922,0.91992 h 0.306641 l 0.613281,-0.61328 z m 2.085937,0 v 0.91992 h 0.552735 v -0.91992 z m 0.859375,1.22656 0.306641,0.24609 -0.306641,0.30664 v 0.30664 l 0.613281,0.61328 0.919922,-0.30664 v 0.61328 h 0.246094 c 0,-0.40899 0.408566,-0.61328 1.226563,-0.61328 l 0.613281,-0.61328 v -0.55273 l -0.919922,0.55273 -1.779297,-0.55273 z m 28.650389,0.55273 v 0.30664 l 0.91992,0.30664 v -0.61328 z m -4.47851,0.91992 h 0.61328 v 2.39258 l -0.61328,0.55274 z m -26.257816,1.47266 v 0.30664 c 0.408998,0.98159 1.104343,1.47266 2.085937,1.47266 h 1.533203 v -0.30664 l -1.533203,-0.2461 -0.859375,0.2461 0.306641,-0.2461 v -0.61328 z m 5.705078,0.30664 -0.613281,0.91992 h 0.613281 l 0.246094,-0.91992 z m 32.455078,0.30664 -0.55273,0.61328 v 0.2461 h 0.55273 l 0.30664,-0.85938 z m -27.730469,1.47266 v 0.30664 l 0.306641,0.30664 h 0.919922 v -0.30664 z m 3.3125,0 0.613281,1.5332 h 1.166016 v -0.61328 c -0.408997,0 -0.613281,-0.30643 -0.613281,-0.91992 z m -9.263672,0.30664 -0.30664,0.30664 -0.306641,0.91992 h 0.306641 l 1.226562,-0.61328 v -0.30664 H 81.65625 Z m 18.220703,0.91992 h 0.306641 v 2.39258 l -0.306641,0.24609 v 0.30664 l -0.919921,-0.30664 c 0.245399,-1.75868 0.551823,-2.63867 0.919921,-2.63867 z m -10.429687,0.30664 -0.306641,0.24609 v 0.30664 h 0.552735 l -0.246094,0.30665 v 0.30664 h 1.166016 v -0.91993 z m 18.466795,0.85938 -0.30664,0.30664 v 0.61328 l 0.91992,0.30664 v -0.61328 z m -9.816404,1.77929 c 1.186095,0 1.779296,0.51071 1.779296,1.53321 l 0.306641,0.85937 h -0.306641 l -2.392578,0.30664 v -0.30664 l -0.919922,-1.16602 -0.30664,0.30665 h -0.306641 v -0.61329 z"
     style="opacity:1;fill:#ffffff;fill-opacity:1;fill-rule:evenodd;stroke:none;stroke-width:24.00000191;stroke-linecap:round;stroke-linejoin:round;stroke-miterlimit:4;stroke-dasharray:none;stroke-opacity:0.29411765;paint-order:fill markers stroke" />
  <g
     aria-label="C"
     style="font-style:normal;font-variant:normal;font-weight:normal;font-stretch:normal;font-size:99.44764709px;line-height:1.25;font-family:'Capture it';-inkscape-font-specification:'Capture it';letter-spacing:0px;word-spacing:0px;fill:#ffffff;fill-opacity:1;stroke:none;stroke-width:1"
     id="text821"
     transform="translate(1.4425876,-1.6461816)" />
</svg>
