<?xml version="1.0" encoding="UTF-8" standalone="no"?>
<svg
   id="svg4379"
   width="200"
   height="200"
   version="1.1"
   viewBox="0 0 200 200"
   sodipodi:docname="kde.svg"
   inkscape:version="1.1.1 (3bf5ae0d25, 2021-09-20, custom)"
   xmlns:inkscape="http://www.inkscape.org/namespaces/inkscape"
   xmlns:sodipodi="http://sodipodi.sourceforge.net/DTD/sodipodi-0.dtd"
   xmlns="http://www.w3.org/2000/svg"
   xmlns:svg="http://www.w3.org/2000/svg"
   xmlns:rdf="http://www.w3.org/1999/02/22-rdf-syntax-ns#"
   xmlns:cc="http://creativecommons.org/ns#"
   xmlns:dc="http://purl.org/dc/elements/1.1/">
  <metadata
     id="metadata41">
    <rdf:RDF>
      <cc:Work
         rdf:about="">
        <dc:format>image/svg+xml</dc:format>
        <dc:type
           rdf:resource="http://purl.org/dc/dcmitype/StillImage" />
      </cc:Work>
    </rdf:RDF>
  </metadata>
  <sodipodi:namedview
     pagecolor="#757575"
     bordercolor="#666666"
     borderopacity="1"
     objecttolerance="10"
     gridtolerance="10"
     guidetolerance="10"
     inkscape:pageopacity="0"
     inkscape:pageshadow="2"
     inkscape:window-width="1920"
     inkscape:window-height="1010"
     id="namedview39"
     showgrid="true"
     inkscape:zoom="3.6875"
     inkscape:cx="53.423729"
     inkscape:cy="66.440678"
     inkscape:window-x="0"
     inkscape:window-y="0"
     inkscape:window-maximized="1"
     inkscape:current-layer="svg4379"
     inkscape:pagecheckerboard="0">
    <inkscape:grid
       type="xygrid"
       id="grid839" />
  </sodipodi:namedview>
  <defs
     id="defs4381" />
  <g
     id="g12890">
    <path
       id="path2454"
       style="opacity:0.35;fill:#ffffff;stroke-width:2.72552;stroke-linecap:round;stroke-linejoin:round;paint-order:stroke fill markers"
       d="M 100,10 C 66.862864,9.9998932 39.999894,36.862863 40.000001,69.999999 39.999894,103.13712 66.862864,130.00009 100,130 c 33.13711,9e-5 60.00008,-26.86288 60,-60.000001 C 160.00008,36.862863 133.13711,9.9998932 100,10 Z"
       sodipodi:nodetypes="ccccc" />
    <path
       inkscape:connector-curvature="0"
       id="circle846"
       d="M 100,25 C 75.147188,25 55.000001,45.147187 55.000001,69.999999 55.000001,94.852814 75.147188,115 100,115 124.85281,115 145,94.852814 145,69.999999 145,45.147187 124.85281,25 100,25 Z m -0.257813,18.60703 0.183985,0.183985 v 8.208984 l -1.103908,0.735937 v 0.183984 l 0.551955,0.183986 c 0,-0.368099 0.122574,-0.551953 0.367968,-0.551953 h 0.183985 v 0.367967 l -4.674609,1.619532 -3.01875,2.31914 -1.435548,-0.367969 c 0.22086,0.539879 0.454212,0.834515 0.69961,0.883595 0,-0.343558 0.122576,-0.515626 0.367967,-0.515626 v 0.331641 c -2.036808,2.453988 -3.349713,5.55829 -3.93867,9.312889 l -0.183983,-0.183983 h -0.551954 c 0,0.245399 0.183856,0.36797 0.551954,0.36797 l 0.183983,0.183983 v 0.367971 c 0,1.423312 -0.183853,2.135155 -0.551953,2.135155 h -0.183984 l 0.183984,0.183985 v 0.367968 l -0.33164,0.331642 -0.551954,-0.183987 -0.183984,0.183987 v 0.183982 l 0.183984,0.183986 h 0.183985 l 0.515625,-0.183986 c 0.441717,0.441718 0.858924,2.294399 1.251563,5.558206 l -0.515626,0.515626 h -0.183983 v 0.183983 h 0.367968 v -0.183983 c 0.588957,0 0.883593,0.539773 0.883593,1.619526 l -0.183984,0.183983 c 0.294479,0.07362 1.251463,1.57038 2.871093,4.490629 0,0.26994 1.251622,1.215139 3.754687,2.834766 l 3.055079,0.735935 v 0.515629 l -0.183985,0.183984 v 0.183984 l -0.183984,-0.183984 h -0.367969 v 0.551953 h -0.367969 v -0.183986 l 0.183985,-0.183983 v -0.183984 l -1.06758,-0.183984 c -0.343556,1.079754 -0.994115,1.619525 -1.951169,1.619532 v 0.367966 c 0.343557,0 0.515624,0.233347 0.515624,0.699608 v 0.183983 l 0.735937,-0.183983 -0.183982,-0.183984 v -0.147654 c 0.588957,0 0.88359,-0.122563 0.88359,-0.36797 V 88.515627 L 96.31914,87.999999 h 0.183983 l 0.735941,-0.183985 h 0.331639 l 1.251561,0.331639 v -0.147654 c 0.4908,0.17178 0.73594,0.343847 0.73594,0.515628 l -0.183985,0.183984 v 0.183982 h 0.183985 l -0.183985,0.183986 v 0.515622 l 0.183985,0.183983 v 0.183985 l -0.183985,0.183983 h -0.183983 l -0.367972,-0.367968 c 0,0.245407 -0.172066,0.367968 -0.515624,0.367968 l -0.183984,0.883597 h 0.183984 l 0.699609,-0.183985 c 0,0.245395 0.245141,0.367969 0.735938,0.367969 V 91.5707 l -0.367968,0.883596 h -0.183983 l -0.699611,-0.367968 -0.735938,0.551952 v 0.367968 h 0.367969 v 0.699613 l -0.367969,0.367967 -0.699608,0.183985 v -0.551952 h 0.331639 v -0.367974 l -0.515624,-0.147654 c 0.711656,-0.883436 1.067578,-1.54578 1.067578,-1.9875 -0.26994,0 -0.687145,0.478493 -1.251562,1.435547 l 0.183984,0.183985 H 96.68711 L 96.135157,92.454296 H 95.9875 l -0.367967,0.367969 c 0,0.34356 0.23335,0.515622 0.699607,0.515622 l -0.183983,0.551957 0.183983,0.883592 -0.183983,-0.183986 H 95.9875 v 0.183986 c 0.343559,0 0.57691,0.417207 0.69961,1.251563 h -0.36797 v 0.183983 l -3.202732,-0.699611 0.183983,-0.919921 -1.067578,-0.331637 -0.367971,0.331637 c 0,-0.466254 -0.183853,-0.699606 -0.551952,-0.699606 h -0.183983 c 0,0.466254 -0.233354,0.699606 -0.69961,0.699606 -2.159509,-0.662574 -4.724033,-2.503462 -7.69336,-5.521871 l 0.183984,-0.735943 -0.183984,-0.183983 h -0.183983 l -0.367969,0.367974 -2.687109,-3.754691 0.183983,-0.551954 h -0.183983 c -0.441719,0 -1.214846,-1.607536 -2.319141,-4.822265 0,-1.079754 0.417206,-1.619531 1.251562,-1.619531 l -0.183985,-0.883591 c 0.245399,0 0.367969,0.183852 0.367969,0.551952 l 0.183983,-0.183984 h 0.183987 l 0.183984,0.183984 v -0.551952 h 0.515624 l 0.36797,0.367968 -0.551953,0.515623 0.183983,0.183983 v 0.367967 l -0.183983,-0.183983 h -0.147658 l -0.183983,1.251564 0.883594,0.183984 v -0.183984 c 0.736195,0 1.337257,0.355919 1.803515,1.067579 l -0.183983,0.183985 0.183983,0.183983 h 0.331641 l -0.331641,-1.067579 h 0.147657 l 0.551953,0.183984 v -0.183984 l 0.551953,0.367968 0.147655,-0.183984 h 0.36797 v 0.367968 L 83.9875,79.938669 V 79.754685 L 83.803517,79.570701 V 79.386717 L 83.9875,79.202732 83.803517,79.018749 h -0.183985 c 0,0.4908 -0.172067,0.735936 -0.515625,0.735936 h -0.183986 c -0.564416,-0.588953 -0.981622,-0.88359 -1.25156,-0.88359 l -0.36797,0.331637 h -0.699609 c -0.245399,-0.04907 -0.490539,-0.343716 -0.735939,-0.883596 0,-0.588953 0.294637,-1.067448 0.883595,-1.435541 l 0.183984,0.183983 v -0.183983 l 0.735939,0.367968 0.183983,-0.183985 v -0.183983 l -0.183983,-0.183985 0.33164,-0.699609 -0.147657,-0.183987 0.147657,-0.183984 h -0.33164 l -0.183986,0.183984 H 81.300391 L 80.748438,75.63203 v 0.183984 l -0.331642,0.367969 v -0.183982 l -1.067578,0.367965 h -1.619532 v 0.331644 h -0.91992 c -0.466257,0 -0.69961,-0.895702 -0.69961,-2.687111 l 0.883595,0.551953 h 0.551952 v -0.367968 l -0.183983,-0.883595 0.551953,-0.551952 h -0.183987 l -0.735935,0.551952 -0.331641,-0.735938 0.147656,-0.147655 -0.69961,-0.367969 c 0.09817,0.711655 0.220731,1.067578 0.36797,1.067578 L 76.29414,73.68086 c -0.368096,0 -0.551951,-1.312906 -0.551951,-3.938674 0,-2.871165 0.183855,-4.306641 0.551951,-4.306641 l -0.183984,-0.183983 v -0.183985 c 0.34356,-3.656442 1.889816,-7.705939 4.638282,-12.147657 5.202454,-6.208589 11.533625,-9.31289 18.993749,-9.31289 z m 2.503123,0 c 5.4724,0 10.77352,2.086035 15.90235,6.257812 3.21473,3.361965 5.0674,6.17163 5.5582,8.429299 l -0.36797,0.515624 v 0.367969 l 0.36797,0.367969 v -1.103906 c 0.17178,0 0.35563,0.294635 0.55197,0.883592 l -9.49689,4.490624 -1.95117,-1.767185 0.14765,-0.183987 v -0.183983 l -2.13515,-3.570703 c -1.76686,-2.159508 -4.03675,-3.65627 -6.80976,-4.490625 -1.42332,-0.171779 -2.13515,-0.405129 -2.13515,-0.69961 v -8.944922 z m 12.51563,5.889845 v 0.183983 c 0.24542,0 0.36796,0.183855 0.36796,0.551955 h 0.33165 v -0.735938 z m -29.521876,2.871092 -0.735939,0.367969 v 0.515625 c 0.539877,-0.269938 0.846303,-0.564574 0.919922,-0.883594 z m 36.663286,7.177736 c 0,0.343557 -0.29464,0.515624 -0.8836,0.515624 v 0.183984 h 0.73594 l 1.06758,-0.367968 v -0.33164 h -0.36798 l -0.18398,0.147654 h -0.18398 z m -42.405474,1.067579 v 0.367968 h 0.551953 v -0.367968 z m 8.245313,3.570703 c 0,0.245397 -0.183857,0.367968 -0.551954,0.367968 v 0.33164 h 0.183984 l 0.735938,-0.699608 z m -3.570703,0.367968 v 0.33164 h 0.515623 v -0.33164 z m -4.67461,1.767186 v 0.36797 l 0.367967,0.367969 0.183986,-0.183986 v -0.551953 z m 1.61953,0.735939 v 0.367968 h 0.551955 v -0.183983 z m -2.871094,0.699608 v 0.367969 l 0.551952,0.183984 v -0.183984 z m 3.938673,0.367969 v 0.183984 l 0.183983,0.515624 c -0.368098,0.294479 -0.907874,0.478335 -1.61953,0.551955 0,-0.294479 -0.233351,-0.478335 -0.699609,-0.551955 l -0.183986,0.183985 v 0.183987 c 0.957056,0 1.435548,0.601059 1.435548,1.803514 h -0.183985 c -0.245399,0 -0.367968,0.172067 -0.367968,0.515625 -0.932515,0.417179 -1.39922,0.723603 -1.39922,0.919922 h 0.147658 c 1.079753,-0.245399 1.61953,-0.613108 1.61953,-1.103906 l 1.067579,-0.147657 v 0.147657 l 0.183983,-0.147657 h 0.367969 l -0.183983,0.147657 v 0.183984 l 0.183983,0.183985 0.183984,-0.183985 h 0.183986 l 0.331638,0.367968 -0.183983,0.183985 h 0.919924 V 71.877342 L 83.9875,71.32539 h 0.367968 v 0.367969 h 0.515626 l -0.183985,-0.183985 v -0.331641 h 0.183985 l 0.735937,0.515626 0.515626,-0.183985 -0.183985,-0.183984 v -0.147657 l 0.183985,-0.91992 h -1.06758 v -0.331642 h -0.183983 v 0.331642 c -0.834355,-0.17178 -1.251562,-0.466418 -1.251562,-0.883595 v -0.183983 l -0.183987,0.183983 h -0.183983 c -0.417177,-0.26994 -0.711813,-0.687146 -0.883594,-1.251563 z m -3.386721,1.951171 v 0.551955 l 0.551954,-0.183986 v -0.367969 l -0.183983,0.183987 h -0.183984 z m -0.183983,2.35547 v 0.331641 h 0.735937 l -0.367967,-0.331641 z m 2.319141,0 -0.183984,0.699609 c 0.245398,0 0.367968,-0.183855 0.367968,-0.551954 v -0.147655 z m -0.33164,0.883593 -0.367968,0.367971 v 0.183983 l 0.515624,-0.551954 z m 6.589453,1.251563 -0.883594,0.183983 0.183984,0.183984 v 0.183987 l 0.883594,-0.183987 v -0.367967 z m -1.39922,0.367967 -0.551951,0.183987 0.183983,0.515624 0.69961,-0.699611 z m -2.171483,0.331643 -0.699611,0.551952 -0.551953,-0.183984 h -0.183983 v 0.183984 l 1.25156,0.699613 h 0.183987 l -0.183987,-0.883597 0.367972,-0.367968 z m 1.803515,1.435548 c 0,0.368096 -0.122576,0.551953 -0.36797,0.551953 l -0.699609,-0.183985 v 0.183985 L 84.171486,77.067578 H 83.9875 l -0.735938,1.067575 0.183983,0.735942 h 0.183987 c 0,-0.4908 0.294635,-0.85851 0.883593,-1.103909 h 0.551952 v 0.183983 h -0.367968 l 0.551955,0.919926 h 0.883593 l 0.183984,-0.183984 h 0.183984 l 0.69961,0.699606 h 0.183984 C 86.638022,78.208803 86.110035,77.619532 85.791015,77.619532 V 76.69961 Z m 27.718363,0.110162 10.30664,5.521873 c -0.95706,1.963193 -2.18394,3.963192 -3.68086,5.999998 -5.27608,5.374231 -11.17825,8.061331 -17.70585,8.061331 v -0.367967 c 0.34355,0 0.51562,-0.110776 0.51562,-0.331639 h -0.6996 v -2.503133 h 0.36795 V 92.08633 h 0.51564 l 0.55195,0.367969 h 0.18397 l 0.69962,-0.367969 -1.06757,-1.435547 V 89.95117 c 0,-1.276067 0.47848,-1.987913 1.43553,-2.135153 l -0.18397,-0.183983 0.18397,-0.183986 v -0.699611 l -0.88357,0.14766 v -0.515628 l 1.58318,-0.367968 v 0.183984 l -0.14766,0.183984 v 0.183984 h 0.33165 c 0,-0.4908 0.95698,-1.214429 2.87109,-2.171483 1.42332,-1.177914 2.13516,-1.951045 2.13516,-2.319138 h 1.25156 v -0.183984 l -0.14765,-0.183985 v -0.147661 l -0.184,0.147661 h -0.36796 v -0.147661 c 0,-0.196319 0.53977,-0.613524 1.61954,-1.251563 v -0.551951 l -0.18399,-0.883591 0.18399,-0.183985 h 0.33163 l 0.18399,0.183985 0.18398,-0.183985 h 0.18397 c 0.3681,0 0.55197,0.172064 0.55197,0.515623 h 0.14766 v -0.699608 h -0.8836 c -0.24538,0 -0.36797,-0.183859 -0.36797,-0.551958 z m -36.4793,0.625781 h 0.147656 l 0.735937,0.183984 v 0.147655 l -0.551952,0.551952 h -0.183985 z m 5.521875,0.331639 -0.183984,0.551952 0.183984,0.551959 h 0.183983 l 0.183986,-0.551959 0.551953,0.18399 v -0.55196 z m -4.122656,1.803515 -0.147656,0.183986 v 0.183983 l 1.767186,1.06758 v -0.367968 c 0,-0.417179 -0.172067,-0.7731 -0.515624,-1.067581 l -0.183984,0.183986 h -0.183987 z m 36.515621,0 0.36798,0.367969 h 0.18397 l -0.36796,-0.367969 z m -25.399215,0.735936 -0.551954,0.147661 v 0.183984 h 0.551954 z m 24.515635,1.067582 c -0.2454,0 -0.36798,0.172066 -0.36798,0.515627 l 0.18397,0.551952 h 0.18401 l 0.36796,-0.367968 v -0.367968 z m 3.38672,0 -0.36798,0.331643 0.184,0.183984 -0.184,0.183984 h 0.55195 z m -26.834778,0.331643 v 0.367968 l 0.367971,0.367968 0.33164,-0.367968 -0.515626,-0.367968 z m -6.809767,0.735936 -0.331638,0.367968 0.69961,0.147653 0.367969,-0.515621 z m 30.957445,0.183985 v 0.183983 l 0.18396,0.147653 h 0.55195 v -0.147653 z m -1.7672,0.183983 c -0.24538,0 -0.36798,0.172068 -0.36798,0.515623 l 0.18399,0.551957 h 0.18399 l 0.33163,-0.367968 v -0.367975 z m -23.264072,0.883598 0.183986,0.183982 v 0.183984 l -0.183986,0.515621 0.183986,0.183984 h 0.33164 c 0,-0.613491 -0.172067,-0.969418 -0.515626,-1.067571 z m 1.435547,0.883587 -0.919921,0.883598 1.619531,-0.515629 v -0.183985 z m -6.993748,0.367969 0.183983,0.699612 h 0.367968 l 0.331641,-0.331644 v -0.367968 l -0.183984,0.183985 -0.147657,-0.183985 z m -2.871095,1.067581 v 0.551952 h 0.183984 l 0.551955,-0.183985 -0.36797,-0.367967 z m 6.625781,0 v 0.735934 h 0.183986 l 0.183983,-0.735934 z m 8.06133,0 0.183982,0.183983 v 0.183984 h -0.367969 v 0.367967 l 0.551954,-0.367967 0.147657,0.183985 v -0.183985 l -0.331642,-0.367967 z m -13.619532,0.367967 v 0.515627 l 0.183984,0.183986 h 0.183983 v -0.183989 l -0.183983,-0.515626 z m 8.245311,0.183985 v 0.699612 c 0,0.588953 0.294637,1.006164 0.883595,1.251563 h 0.367968 V 87.81602 Z m -6.62578,0.883595 -0.36797,0.367967 0.36797,0.331639 0.183985,-0.147655 v 0.147655 l 0.551951,-0.147655 -0.183982,-0.551951 z m 2.871093,0.367967 -0.69961,0.331639 0.331642,0.367974 h 0.367968 l 0.183985,-0.699613 z m 15.754685,0.183984 h 0.33165 l -0.14766,0.883597 h -0.18399 l -0.36795,-0.367968 v -0.183991 z m -16.638279,0.515629 -0.551954,0.551951 h 0.183987 l 0.367967,-0.367966 z m 1.251563,0 v 0.551951 h 0.331641 v -0.551951 z m 0.515625,0.735936 0.183984,0.147654 -0.183984,0.183983 v 0.183984 l 0.36797,0.36797 0.551953,-0.183985 v 0.367968 h 0.147656 c 0,-0.245394 0.245139,-0.367968 0.735937,-0.367968 l 0.367969,-0.367969 V 89.25157 L 88.99375,89.583207 87.926172,89.25157 Z m 17.190231,0.331637 v 0.183984 l 0.55195,0.183985 v -0.367969 z m -2.68709,0.551954 h 0.36795 v 1.435547 l -0.36795,0.331644 z m -15.754703,0.883595 v 0.183984 c 0.245399,0.588954 0.662605,0.883595 1.251562,0.883595 h 0.919923 v -0.183983 l -0.919923,-0.147661 -0.515625,0.147661 0.183985,-0.147661 v -0.367967 z m 3.423047,0.183984 -0.367969,0.551951 h 0.367969 l 0.147655,-0.551951 z m 19.473056,0.183984 -0.33164,0.367967 v 0.147661 h 0.33164 l 0.18398,-0.515628 z M 92.38047,92.27032 v 0.183984 l 0.183984,0.183984 h 0.551954 v -0.183984 z m 1.987499,0 0.367968,0.919921 h 0.699609 v -0.36797 c -0.245396,0 -0.367968,-0.183857 -0.367968,-0.551951 z m -5.558203,0.183984 -0.183985,0.183984 -0.183983,0.551953 h 0.183983 l 0.735937,-0.36797 V 92.638288 H 88.99375 Z m 10.932421,0.551951 h 0.183985 v 1.435549 l -0.183985,0.147652 v 0.183987 l -0.551951,-0.183987 c 0.147238,-1.055207 0.331093,-1.583201 0.551951,-1.583201 z m -6.257812,0.183986 -0.183984,0.147652 v 0.183984 h 0.33164 l -0.147656,0.18399 v 0.183985 h 0.699611 v -0.551959 z m 11.080075,0.515626 -0.18397,0.183985 v 0.367969 l 0.55195,0.183983 v -0.367969 z m -5.889841,1.067576 c 0.711658,0 1.067578,0.306426 1.067578,0.919925 l 0.183985,0.515621 h -0.183985 l -1.435547,0.183985 v -0.183985 l -0.551953,-0.699612 -0.183984,0.183991 h -0.183985 v -0.367974 z"
       style="opacity:1;fill:#ffffff;fill-opacity:1;fill-rule:evenodd;stroke:none;stroke-width:14.4;stroke-linecap:round;stroke-linejoin:round;stroke-miterlimit:4;stroke-dasharray:none;stroke-opacity:0.294118;paint-order:fill markers stroke" />
  </g>
  <g
     aria-label="C"
     style="font-style:normal;font-variant:normal;font-weight:normal;font-stretch:normal;font-size:99.44764709px;line-height:1.25;font-family:'Capture it';-inkscape-font-specification:'Capture it';letter-spacing:0px;word-spacing:0px;fill:#ffffff;fill-opacity:1;stroke:none;stroke-width:1"
     id="text821"
     transform="translate(1.4425876,-1.6461816)" />
</svg>
